<svg xmlns="http://www.w3.org/2000/svg" width="66.225" height="70.529"><style>.st44{fill:#00a651}</style><linearGradient id="g4780_5_" gradientUnits="userSpaceOnUse" x1="20.153" y1="33.998" x2="45.82" y2="33.998"><stop offset="0" stop-color="#3c274d"/><stop offset="1" stop-color="#8658ab"/></linearGradient><path id="g4780_4_" d="M43.845 40.029c1.087.871 2.456 1.6 1.807 3.43-.67 1.904-3.005 3.825-4.997 3.804-.279-.076-.834-.162-1.334-.376-8.746-3.768-15.101-9.939-18.713-18.805-1.211-2.973.053-5.481 3.103-6.508.548-.184 1.084-.195 1.623.002 1.302.479 4.598 5.014 4.672 6.372.057 1.039-.652 1.603-1.353 2.079-1.325.901-1.333 2.045-.766 3.316 1.279 2.879 3.468 4.858 6.299 6.143 1.027.467 2.011.418 2.712-.643 1.251-1.893 2.784-1.801 4.458-.625.84.59 1.695 1.168 2.489 1.811zm-9.807-17.894c6.395.983 9.345 4.024 10.16 10.468.075.595-.147 1.489.701 1.508.887.016.674-.867.682-1.463.074-6.066-5.214-11.691-11.359-11.897-.462.067-1.421-.319-1.481.718-.041.702.768.586 1.297.666zm1.25 1.767c-.615-.074-1.426-.364-1.57.49-.15.895.756.806 1.338.935 3.95.882 5.325 2.319 5.974 6.239.098.571-.092 1.46.879 1.311.718-.108.46-.87.519-1.316.032-3.761-3.193-7.185-7.14-7.659zm.363 3.077c-.41.011-.814.054-.965.492-.227.655.252.812.736.89 1.62.262 2.474 1.217 2.635 2.832.042.44.322.793.746.744.588-.071.639-.594.621-1.089.03-1.815-2.021-3.912-3.773-3.869z" fill="url(#g4780_5_)"/><g opacity=".3"><radialGradient id="SVGID_1_" cx="-245.823" cy="-370.524" r="4.923" gradientTransform="matrix(7.1054 0 0 .3658 1781.667 204.039)" gradientUnits="userSpaceOnUse"><stop offset="0"/><stop offset="1"/></radialGradient><radialGradient id="SVGID_2_" cx="-244.62" cy="-388.223" r="4.941" gradientTransform="matrix(6.9057 0 0 .3561 1724.268 206.748)" gradientUnits="userSpaceOnUse"><stop offset="0"/><stop offset="1"/></radialGradient><path d="M5.759 68.501c0-1.093 13.09-1.979 29.237-1.979 16.146 0 29.236.886 29.236 1.979 0 1.092-13.09 1.979-29.236 1.979-16.148 0-29.237-.887-29.237-1.979z" opacity=".024" fill="url(#SVGID_2_)"/><radialGradient id="SVGID_3_" cx="-243.342" cy="-406.911" r="4.958" gradientTransform="matrix(6.706 0 0 .3464 1666.846 209.455)" gradientUnits="userSpaceOnUse"><stop offset="0"/><stop offset="1"/></radialGradient><path d="M6.464 68.501c0-1.066 12.774-1.931 28.532-1.931 15.757 0 28.531.864 28.531 1.931 0 1.065-12.774 1.931-28.531 1.931-15.758 0-28.532-.866-28.532-1.931z" opacity=".049" fill="url(#SVGID_3_)"/><radialGradient id="SVGID_4_" cx="-241.985" cy="-426.675" r="4.977" gradientTransform="matrix(6.5063 0 0 .3367 1609.423 212.163)" gradientUnits="userSpaceOnUse"><stop offset="0"/><stop offset="1"/></radialGradient><path d="M7.17 68.501c0-1.04 12.457-1.882 27.826-1.882 15.368 0 27.825.842 27.825 1.882 0 1.039-12.457 1.882-27.825 1.882-15.369 0-27.826-.843-27.826-1.882z" opacity=".073" fill="url(#SVGID_4_)"/><radialGradient id="SVGID_5_" cx="-240.543" cy="-447.61" r="4.997" gradientTransform="matrix(6.3066 0 0 .327 1552.001 214.87)" gradientUnits="userSpaceOnUse"><stop offset="0"/><stop offset="1"/></radialGradient><path d="M7.875 68.501c0-1.013 12.142-1.833 27.121-1.833s27.12.82 27.12 1.833c0 1.012-12.142 1.834-27.12 1.834-14.98 0-27.121-.822-27.121-1.834z" opacity=".098" fill="url(#SVGID_5_)"/><radialGradient id="SVGID_6_" cx="-239.006" cy="-469.829" r="5.018" gradientTransform="matrix(6.1069 0 0 .3173 1494.579 217.578)" gradientUnits="userSpaceOnUse"><stop offset="0"/><stop offset="1"/></radialGradient><path d="M8.58 68.501c0-.986 11.826-1.785 26.416-1.785 14.589 0 26.415.799 26.415 1.785 0 .985-11.826 1.785-26.415 1.785-14.59 0-26.416-.8-26.416-1.785z" opacity=".122" fill="url(#SVGID_6_)"/><radialGradient id="SVGID_7_" cx="-237.365" cy="-491.051" r="5.042" gradientTransform="matrix(5.9072 0 0 .3075 1437.157 219.5)" gradientUnits="userSpaceOnUse"><stop offset="0"/><stop offset="1"/></radialGradient><path d="M9.285 68.501c0-.96 11.511-1.737 25.711-1.737 14.199 0 25.71.777 25.71 1.737 0 .959-11.511 1.737-25.71 1.737-14.2 0-25.711-.778-25.711-1.737z" opacity=".146" fill="url(#SVGID_7_)"/><radialGradient id="SVGID_8_" cx="-235.609" cy="-516.138" r="5.067" gradientTransform="matrix(5.7075 0 0 .2978 1379.734 222.207)" gradientUnits="userSpaceOnUse"><stop offset="0"/><stop offset="1"/></radialGradient><path d="M9.99 68.501c0-.933 11.195-1.688 25.006-1.688 13.81 0 25.005.755 25.005 1.688 0 .932-11.195 1.688-25.005 1.688-13.811 0-25.006-.756-25.006-1.688z" opacity=".171" fill="url(#SVGID_8_)"/><radialGradient id="SVGID_9_" cx="-233.726" cy="-542.914" r="5.092" gradientTransform="matrix(5.5078 0 0 .2881 1322.312 224.914)" gradientUnits="userSpaceOnUse"><stop offset="0"/><stop offset="1"/></radialGradient><path d="M10.695 68.501c0-.906 10.88-1.64 24.301-1.64s24.3.733 24.3 1.64c0 .905-10.879 1.64-24.3 1.64s-24.301-.735-24.301-1.64z" opacity=".195" fill="url(#SVGID_9_)"/><radialGradient id="SVGID_10_" cx="-231.701" cy="-571.553" r="5.12" gradientTransform="matrix(5.3081 0 0 .2784 1264.89 227.621)" gradientUnits="userSpaceOnUse"><stop offset="0"/><stop offset="1"/></radialGradient><path d="M11.401 68.501c0-.879 10.563-1.591 23.595-1.591 13.031 0 23.594.712 23.594 1.591 0 .878-10.563 1.591-23.594 1.591-13.032 0-23.595-.713-23.595-1.591z" opacity=".22" fill="url(#SVGID_10_)"/><radialGradient id="SVGID_11_" cx="-229.518" cy="-602.263" r="5.15" gradientTransform="matrix(5.1084 0 0 .2687 1207.467 230.33)" gradientUnits="userSpaceOnUse"><stop offset="0"/><stop offset="1"/></radialGradient><path d="M12.106 68.501c0-.853 10.247-1.543 22.89-1.543 12.642 0 22.889.69 22.889 1.543 0 .852-10.247 1.543-22.889 1.543-12.643 0-22.89-.691-22.89-1.543z" opacity=".244" fill="url(#SVGID_11_)"/><radialGradient id="SVGID_12_" cx="-227.158" cy="-635.273" r="5.183" gradientTransform="matrix(4.9087 0 0 .259 1150.045 233.037)" gradientUnits="userSpaceOnUse"><stop offset="0"/><stop offset="1"/></radialGradient><path d="M12.811 68.501c0-.826 9.932-1.495 22.185-1.495 12.252 0 22.184.669 22.184 1.495 0 .825-9.932 1.495-22.184 1.495-12.253 0-22.185-.67-22.185-1.495z" opacity=".268" fill="url(#SVGID_12_)"/><radialGradient id="SVGID_13_" cx="-224.597" cy="-670.852" r="5.218" gradientTransform="matrix(4.709 0 0 .2493 1092.623 235.744)" gradientUnits="userSpaceOnUse"><stop offset="0"/><stop offset="1"/></radialGradient><path d="M13.516 68.501c0-.799 9.616-1.446 21.479-1.446 11.862 0 21.479.647 21.479 1.446 0 .798-9.616 1.446-21.479 1.446-11.862 0-21.479-.648-21.479-1.446z" opacity=".293" fill="url(#SVGID_13_)"/><radialGradient id="SVGID_14_" cx="-221.81" cy="-709.31" r="5.256" gradientTransform="matrix(4.5093 0 0 .2396 1035.2 238.452)" gradientUnits="userSpaceOnUse"><stop offset="0"/><stop offset="1"/></radialGradient><path d="M14.222 68.501c0-.772 9.301-1.397 20.774-1.397 11.474 0 20.773.625 20.773 1.397 0 .771-9.3 1.397-20.773 1.397-11.474 0-20.774-.626-20.774-1.397z" opacity=".317" fill="url(#SVGID_14_)"/><radialGradient id="SVGID_15_" cx="-218.763" cy="-751.013" r="5.297" gradientTransform="matrix(4.3096 0 0 .2299 977.779 241.159)" gradientUnits="userSpaceOnUse"><stop offset="0"/><stop offset="1"/></radialGradient><path d="M14.927 68.501c0-.746 8.985-1.349 20.069-1.349s20.068.604 20.068 1.349-8.984 1.349-20.068 1.349-20.069-.604-20.069-1.349z" opacity=".342" fill="url(#SVGID_15_)"/><radialGradient id="SVGID_16_" cx="-215.422" cy="-796.395" r="5.342" gradientTransform="matrix(4.1099 0 0 .2202 920.356 243.867)" gradientUnits="userSpaceOnUse"><stop offset="0"/><stop offset="1"/></radialGradient><path d="M15.633 68.501c0-.719 8.668-1.301 19.363-1.301 10.694 0 19.362.582 19.362 1.301 0 .718-8.668 1.3-19.362 1.3-10.695 0-19.363-.582-19.363-1.3z" opacity=".366" fill="url(#SVGID_16_)"/><radialGradient id="SVGID_17_" cx="-211.738" cy="-842.622" r="5.394" gradientTransform="matrix(3.9102 0 0 .2104 862.934 245.788)" gradientUnits="userSpaceOnUse"><stop offset="0"/><stop offset="1"/></radialGradient><path d="M16.338 68.501c0-.692 8.353-1.252 18.658-1.252 10.305 0 18.657.56 18.657 1.252 0 .691-8.353 1.252-18.657 1.252-10.306 0-18.658-.561-18.658-1.252z" opacity=".39" fill="url(#SVGID_17_)"/><radialGradient id="SVGID_18_" cx="-207.658" cy="-896.837" r="5.449" gradientTransform="matrix(3.7105 0 0 .2007 805.512 248.496)" gradientUnits="userSpaceOnUse"><stop offset="0"/><stop offset="1"/></radialGradient><path d="M17.043 68.501c0-.665 8.037-1.204 17.953-1.204 9.915 0 17.952.539 17.952 1.204 0 .664-8.037 1.204-17.952 1.204-9.916 0-17.953-.54-17.953-1.204z" opacity=".415" fill="url(#SVGID_18_)"/><radialGradient id="SVGID_19_" cx="-203.114" cy="-956.559" r="5.509" gradientTransform="matrix(3.5108 0 0 .191 748.09 251.204)" gradientUnits="userSpaceOnUse"><stop offset="0"/><stop offset="1"/></radialGradient><path d="M17.748 68.501c0-.639 7.722-1.155 17.248-1.155s17.247.517 17.247 1.155-7.721 1.155-17.247 1.155-17.248-.517-17.248-1.155z" opacity=".439" fill="url(#SVGID_19_)"/><radialGradient id="SVGID_20_" cx="-198.022" cy="-1022.669" r="5.578" gradientTransform="matrix(3.3111 0 0 .1813 690.667 253.91)" gradientUnits="userSpaceOnUse"><stop offset="0"/><stop offset="1"/></radialGradient><path d="M18.453 68.501c0-.612 7.406-1.107 16.543-1.107s16.542.495 16.542 1.107c0 .611-7.405 1.106-16.542 1.106s-16.543-.495-16.543-1.106z" opacity=".463" fill="url(#SVGID_20_)"/><radialGradient id="SVGID_21_" cx="-192.277" cy="-1096.256" r="5.655" gradientTransform="matrix(3.1114 0 0 .1716 633.245 256.618)" gradientUnits="userSpaceOnUse"><stop offset="0"/><stop offset="1"/></radialGradient><path d="M19.158 68.501c0-.585 7.091-1.059 15.838-1.059s15.837.474 15.837 1.059c0 .584-7.09 1.058-15.837 1.058s-15.838-.474-15.838-1.058z" opacity=".488" fill="url(#SVGID_21_)"/><radialGradient id="SVGID_22_" cx="-185.743" cy="-1178.661" r="5.741" gradientTransform="matrix(2.9117 0 0 .1619 575.823 259.326)" gradientUnits="userSpaceOnUse"><stop offset="0"/><stop offset="1"/></radialGradient><path d="M19.864 68.501c0-.559 6.774-1.01 15.131-1.01 8.358 0 15.132.452 15.132 1.01s-6.773 1.009-15.132 1.009c-8.357 0-15.131-.451-15.131-1.009z" opacity=".512" fill="url(#SVGID_22_)"/><radialGradient id="SVGID_23_" cx="-178.246" cy="-1271.573" r="5.839" gradientTransform="matrix(2.712 0 0 .1522 518.4 262.034)" gradientUnits="userSpaceOnUse"><stop offset="0"/><stop offset="1"/></radialGradient><path d="M20.569 68.501c0-.532 6.458-.962 14.426-.962 7.969 0 14.427.43 14.427.962 0 .531-6.458.961-14.427.961-7.968 0-14.426-.43-14.426-.961z" opacity=".537" fill="url(#SVGID_23_)"/><radialGradient id="SVGID_24_" cx="-169.558" cy="-1377.122" r="5.954" gradientTransform="matrix(2.5123 0 0 .1425 460.975 264.74)" gradientUnits="userSpaceOnUse"><stop offset="0"/><stop offset="1"/></radialGradient><path d="M21.274 68.501c0-.505 6.143-.914 13.721-.914 7.579 0 13.722.409 13.722.914 0 .504-6.143.913-13.722.913-7.578 0-13.721-.409-13.721-.913z" opacity=".561" fill="url(#SVGID_24_)"/><radialGradient id="SVGID_25_" cx="-159.369" cy="-1498.099" r="6.084" gradientTransform="matrix(2.3126 0 0 .1328 403.551 267.448)" gradientUnits="userSpaceOnUse"><stop offset="0"/><stop offset="1"/></radialGradient><path d="M21.979 68.501c0-.478 5.827-.865 13.016-.865 7.19 0 13.017.387 13.017.865 0 .477-5.826.864-13.017.864-7.189 0-13.016-.387-13.016-.864z" opacity=".585" fill="url(#SVGID_25_)"/><radialGradient id="SVGID_26_" cx="-147.253" cy="-1638.136" r="6.24" gradientTransform="matrix(2.1129 0 0 .1231 346.127 270.155)" gradientUnits="userSpaceOnUse"><stop offset="0"/><stop offset="1"/></radialGradient><path d="M22.684 68.501c0-.451 5.512-.816 12.311-.816 6.801 0 12.312.365 12.312.816 0 .45-5.511.815-12.312.815-6.799 0-12.311-.365-12.311-.815z" opacity=".61" fill="url(#SVGID_26_)"/><radialGradient id="SVGID_27_" cx="-132.609" cy="-1796.792" r="6.43" gradientTransform="matrix(1.9132 0 0 .1133 288.703 272.077)" gradientUnits="userSpaceOnUse"><stop offset="0"/><stop offset="1"/></radialGradient><path d="M23.389 68.501c0-.425 5.196-.768 11.605-.768 6.411 0 11.606.343 11.606.768 0 .424-5.195.767-11.606.767-6.408 0-11.605-.343-11.605-.767z" opacity=".634" fill="url(#SVGID_27_)"/><radialGradient id="SVGID_28_" cx="-114.551" cy="-1991.166" r="6.657" gradientTransform="matrix(1.7135 0 0 .1036 231.279 274.785)" gradientUnits="userSpaceOnUse"><stop offset="0"/><stop offset="1"/></radialGradient><path d="M24.096 68.501c0-.398 4.879-.72 10.899-.72 6.021 0 10.9.322 10.9.72 0 .397-4.879.718-10.9.718-6.021 0-10.899-.321-10.899-.718z" opacity=".658" fill="url(#SVGID_28_)"/><radialGradient id="SVGID_29_" cx="-91.729" cy="-2225.681" r="6.941" gradientTransform="matrix(1.5138 0 0 .0939 173.854 277.492)" gradientUnits="userSpaceOnUse"><stop offset="0"/><stop offset="1"/></radialGradient><path d="M24.801 68.501c0-.371 4.563-.671 10.194-.671 5.632 0 10.195.3 10.195.671 0 .37-4.563.67-10.195.67-5.631 0-10.194-.3-10.194-.67z" opacity=".683" fill="url(#SVGID_29_)"/><radialGradient id="SVGID_30_" cx="-61.97" cy="-2514.237" r="7.305" gradientTransform="matrix(1.3141 0 0 .0842 116.43 280.2)" gradientUnits="userSpaceOnUse"><stop offset="0"/><stop offset="1"/></radialGradient><path d="M25.506 68.501c0-.344 4.248-.623 9.489-.623 5.243 0 9.49.278 9.49.623 0 .343-4.247.622-9.49.622-5.241 0-9.489-.279-9.489-.622z" opacity=".707" fill="url(#SVGID_30_)"/><radialGradient id="SVGID_31_" cx="-21.546" cy="-2877.934" r="7.791" gradientTransform="matrix(1.1144 0 0 .0745 59.006 282.906)" gradientUnits="userSpaceOnUse"><stop offset="0"/><stop offset="1"/></radialGradient><path d="M26.211 68.501c0-.318 3.933-.574 8.784-.574 4.854 0 8.785.256 8.785.574 0 .317-3.932.573-8.785.573-4.852 0-8.784-.256-8.784-.573z" opacity=".732" fill="url(#SVGID_31_)"/><radialGradient id="SVGID_32_" cx="36.529" cy="-3350.52" r="8.476" gradientTransform="matrix(.9147 0 0 .0648 1.582 285.614)" gradientUnits="userSpaceOnUse"><stop offset="0"/><stop offset="1"/></radialGradient><path d="M26.916 68.501c0-.291 3.617-.526 8.079-.526 4.464 0 8.08.235 8.08.526 0 .29-3.616.524-8.08.524-4.462 0-8.079-.234-8.079-.524z" opacity=".756" fill="url(#SVGID_32_)"/><radialGradient id="SVGID_33_" cx="127.046" cy="-3989.496" r="9.52" gradientTransform="matrix(.715 0 0 .0551 -55.842 288.322)" gradientUnits="userSpaceOnUse"><stop offset="0"/><stop offset="1"/></radialGradient><path d="M27.621 68.501c0-.264 3.302-.478 7.374-.478 4.074 0 7.375.213 7.375.478 0 .263-3.301.476-7.375.476-4.072 0-7.374-.213-7.374-.476z" opacity=".78" fill="url(#SVGID_33_)"/><radialGradient id="SVGID_34_" cx="287.719" cy="-4901.505" r="11.325" gradientTransform="matrix(.5153 0 0 .0454 -113.266 291.029)" gradientUnits="userSpaceOnUse"><stop offset="0"/><stop offset="1"/></radialGradient><path d="M28.327 68.501c0-.237 2.984-.429 6.668-.429 3.685 0 6.669.192 6.669.429 0 .236-2.984.428-6.669.428-3.684 0-6.668-.192-6.668-.428z" opacity=".805" fill="url(#SVGID_34_)"/><radialGradient id="SVGID_35_" cx="651.728" cy="-6309.143" r="15.332" gradientTransform="matrix(.3156 0 0 .0357 -170.69 293.737)" gradientUnits="userSpaceOnUse"><stop offset="0"/><stop offset="1"/></radialGradient><path d="M29.032 68.501c0-.211 2.669-.38 5.963-.38 3.296 0 5.964.17 5.964.38s-2.668.379-5.964.379c-3.294 0-5.963-.169-5.963-.379z" opacity=".829" fill="url(#SVGID_35_)"/><radialGradient id="SVGID_36_" cx="2270.147" cy="-8767.035" r="33.322" gradientTransform="matrix(.1159 0 0 .026 -228.115 296.443)" gradientUnits="userSpaceOnUse"><stop offset="0"/><stop offset="1"/></radialGradient><path d="M29.737 68.501c0-.184 2.353-.332 5.258-.332 2.906 0 5.259.148 5.259.332 0 .183-2.353.331-5.259.331-2.904 0-5.258-.148-5.258-.331z" opacity=".854" fill="url(#SVGID_36_)"/><radialGradient id="SVGID_37_" cx="-3824.986" cy="-14189.195" r="40.356" gradientTransform="matrix(-.0838 0 0 .0162 -285.538 298.365)" gradientUnits="userSpaceOnUse"><stop offset="0"/><stop offset="1"/></radialGradient><path d="M30.442 68.501c0-.157 2.038-.284 4.553-.284 2.517 0 4.554.127 4.554.284 0 .156-2.037.282-4.554.282-2.515 0-4.553-.126-4.553-.282z" opacity=".878" fill="url(#SVGID_37_)"/><radialGradient id="SVGID_38_" cx="-1333.185" cy="-35780.43" r="27.246" gradientTransform="matrix(-.2835 0 0 .0065 -342.963 301.073)" gradientUnits="userSpaceOnUse"><stop offset="0"/><stop offset="1"/></radialGradient><path d="M31.147 68.501c0-.13 1.723-.235 3.848-.235 2.127 0 3.849.105 3.849.235 0 .129-1.722.233-3.849.233-2.125 0-3.848-.104-3.848-.233z" opacity=".902" fill="url(#SVGID_38_)"/><radialGradient id="SVGID_39_" cx="-901.039" cy="73524.938" r="41.368" gradientTransform="matrix(-.4832 0 0 -.0032 -400.387 303.78)" gradientUnits="userSpaceOnUse"><stop offset="0"/><stop offset="1"/></radialGradient><path d="M31.852 68.501c0-.104 1.407-.187 3.143-.187 1.737 0 3.144.083 3.144.187 0 .103-1.406.185-3.144.185-1.735 0-3.143-.082-3.143-.185z" opacity=".927" fill="url(#SVGID_39_)"/><radialGradient id="SVGID_40_" cx="-721.638" cy="18448.578" r="7.946" gradientTransform="matrix(-.6829 0 0 -.0129 -457.811 306.487)" gradientUnits="userSpaceOnUse"><stop offset="0"/><stop offset="1"/></radialGradient><path d="M32.558 68.501c0-.077 1.09-.138 2.437-.138 1.349 0 2.438.061 2.438.138 0 .076-1.089.137-2.438.137-1.347 0-2.437-.061-2.437-.137z" opacity=".951" fill="url(#SVGID_40_)"/><radialGradient id="SVGID_41_" cx="-623.42" cy="10650.196" r="3.107" gradientTransform="matrix(-.8826 0 0 -.0226 -515.235 309.195)" gradientUnits="userSpaceOnUse"><stop offset="0"/><stop offset="1"/></radialGradient><path d="M33.263 68.501c0-.05.774-.09 1.731-.09.959 0 1.732.039 1.732.09 0 .049-.773.088-1.732.088-.956 0-1.731-.039-1.731-.088z" opacity=".976" fill="url(#SVGID_41_)"/><radialGradient id="SVGID_42_" cx="-561.448" cy="7535.667" r="1.112" gradientTransform="matrix(-1.0823 0 0 -.0323 -572.66 311.902)" gradientUnits="userSpaceOnUse"><stop offset="0"/><stop offset="1"/></radialGradient><path d="M33.969 68.501c0-.023.459-.041 1.026-.041.569 0 1.027.018 1.027.041 0 .022-.458.039-1.027.039-.567 0-1.026-.017-1.026-.039z" fill="url(#SVGID_42_)"/></g><path class="st44" d="M66.225 33.361C66.225 14.936 51.289 0 32.864 0H.138c6.852 10.307 3.01 21.959.757 29.951a23.751 23.751 0 0 0 .305 13.91c4.398 13.28 16.91 22.862 31.665 22.862 18.424 0 33.36-14.937 33.36-33.362z"/><g opacity=".7"><path d="M35.71 63.89c-15.786 0-28.629-12.843-28.629-28.629 0-15.786 12.843-28.629 28.629-28.629 15.786 0 28.628 12.843 28.628 28.629 0 15.785-12.842 28.629-28.628 28.629z" opacity=".014"/><path d="M35.671 63.855c-15.776 0-28.612-12.836-28.612-28.612 0-15.777 12.836-28.612 28.612-28.612 15.777 0 28.612 12.835 28.612 28.612 0 15.776-12.835 28.612-28.612 28.612z" opacity=".028"/><path d="M35.633 63.821c-15.769 0-28.597-12.829-28.597-28.596 0-15.768 12.828-28.596 28.597-28.596 15.768 0 28.595 12.828 28.595 28.596-.001 15.767-12.828 28.596-28.595 28.596z" opacity=".042"/><path d="M35.594 63.787c-15.76 0-28.581-12.821-28.581-28.58 0-15.759 12.821-28.58 28.581-28.58 15.759 0 28.579 12.821 28.579 28.58 0 15.758-12.821 28.58-28.579 28.58z" opacity=".056"/><path d="M35.555 63.752c-15.75 0-28.564-12.814-28.564-28.563 0-15.75 12.814-28.563 28.564-28.563s28.562 12.813 28.562 28.563c0 15.749-12.812 28.563-28.562 28.563z" opacity=".07"/><path d="M35.515 63.718c-15.741 0-28.548-12.807-28.548-28.547 0-15.741 12.807-28.547 28.548-28.547S64.062 19.43 64.062 35.171c0 15.74-12.805 28.547-28.547 28.547z" opacity=".085"/><path d="M35.476 63.684c-15.731 0-28.531-12.8-28.531-28.531 0-15.732 12.8-28.531 28.531-28.531 15.732 0 28.53 12.799 28.53 28.531.001 15.731-12.797 28.531-28.53 28.531z" opacity=".099"/><path d="M35.437 63.649c-15.723 0-28.515-12.792-28.515-28.514 0-15.723 12.792-28.515 28.515-28.515 15.724 0 28.515 12.792 28.515 28.515 0 15.722-12.791 28.514-28.515 28.514z" opacity=".113"/><path d="M35.399 63.615C19.684 63.615 6.9 50.83 6.9 35.117c0-15.714 12.784-28.498 28.499-28.498 15.714 0 28.497 12.784 28.497 28.498 0 15.713-12.783 28.498-28.497 28.498z" opacity=".127"/><path d="M35.36 63.58c-15.705 0-28.482-12.777-28.482-28.481 0-15.705 12.777-28.482 28.482-28.482s28.481 12.777 28.481 28.482C63.842 50.803 51.065 63.58 35.36 63.58z" opacity=".141"/><path d="M35.321 63.546c-15.696 0-28.466-12.77-28.466-28.465 0-15.696 12.77-28.465 28.466-28.465s28.465 12.769 28.465 28.465c0 15.695-12.769 28.465-28.465 28.465z" opacity=".155"/><path d="M35.282 63.512c-15.688 0-28.45-12.763-28.45-28.449 0-15.688 12.763-28.45 28.45-28.45 15.686 0 28.449 12.762 28.449 28.45 0 15.686-12.762 28.449-28.449 28.449z" opacity=".169"/><path d="M35.243 63.477c-15.678 0-28.434-12.755-28.434-28.432 0-15.678 12.756-28.433 28.434-28.433s28.433 12.755 28.433 28.433c0 15.677-12.755 28.432-28.433 28.432z" opacity=".183"/><path d="M35.204 63.443c-15.669 0-28.417-12.748-28.417-28.416 0-15.67 12.748-28.417 28.417-28.417 15.669 0 28.417 12.748 28.417 28.417 0 15.668-12.748 28.416-28.417 28.416z" opacity=".197"/><path d="M35.166 63.409c-15.661 0-28.401-12.741-28.401-28.4 0-15.66 12.74-28.4 28.401-28.4 15.659 0 28.399 12.74 28.399 28.4 0 15.659-12.74 28.4-28.399 28.4z" opacity=".211"/><path d="M35.127 63.374c-15.651 0-28.385-12.733-28.385-28.383 0-15.651 12.733-28.384 28.385-28.384 15.65 0 28.383 12.733 28.383 28.384 0 15.65-12.733 28.383-28.383 28.383z" opacity=".225"/><path d="M35.088 63.34C19.445 63.34 6.72 50.614 6.72 34.973c0-15.642 12.726-28.368 28.368-28.368 15.642 0 28.367 12.726 28.367 28.368 0 15.641-12.726 28.367-28.367 28.367z" opacity=".239"/><path d="M35.049 63.306c-15.633 0-28.352-12.719-28.352-28.351 0-15.633 12.719-28.352 28.352-28.352S63.4 19.321 63.4 34.955c-.001 15.631-12.719 28.351-28.351 28.351z" opacity=".254"/><path d="M35.01 63.271c-15.624 0-28.335-12.711-28.335-28.334 0-15.624 12.711-28.335 28.335-28.335s28.335 12.711 28.335 28.335c0 15.623-12.711 28.334-28.335 28.334z" opacity=".268"/><path d="M34.971 63.237c-15.615 0-28.319-12.704-28.319-28.318C6.651 19.303 19.355 6.6 34.971 6.6c15.615 0 28.318 12.704 28.318 28.319 0 15.614-12.703 28.318-28.318 28.318z" opacity=".282"/><path d="M34.932 63.203c-15.606 0-28.304-12.697-28.304-28.302 0-15.606 12.697-28.303 28.304-28.303 15.605 0 28.302 12.696 28.302 28.303 0 15.604-12.696 28.302-28.302 28.302z" opacity=".296"/><path d="M34.893 63.168c-15.598 0-28.287-12.689-28.287-28.286 0-15.597 12.689-28.286 28.287-28.286 15.597 0 28.285 12.689 28.285 28.286.001 15.597-12.688 28.286-28.285 28.286z" opacity=".31"/><path d="M34.854 63.134c-15.589 0-28.271-12.682-28.271-28.27s12.682-28.27 28.271-28.27c15.588 0 28.269 12.682 28.269 28.27.001 15.588-12.681 28.27-28.269 28.27z" opacity=".324"/><path d="M34.815 63.1c-15.579 0-28.254-12.675-28.254-28.253 0-15.579 12.675-28.254 28.254-28.254s28.253 12.675 28.253 28.254c0 15.577-12.674 28.253-28.253 28.253z" opacity=".338"/><circle cx="34.776" cy="34.828" r="28.237" opacity=".352"/><path d="M34.737 63.031c-15.561 0-28.221-12.661-28.221-28.221 0-15.561 12.66-28.221 28.221-28.221 15.562 0 28.221 12.66 28.221 28.221 0 15.56-12.659 28.221-28.221 28.221z" opacity=".366"/><path d="M34.699 62.996c-15.553 0-28.205-12.653-28.205-28.204 0-15.552 12.652-28.205 28.205-28.205 15.552 0 28.204 12.652 28.204 28.205 0 15.551-12.652 28.204-28.204 28.204z" opacity=".38"/><path d="M34.66 62.962c-15.544 0-28.189-12.646-28.189-28.188 0-15.543 12.646-28.188 28.189-28.188s28.188 12.646 28.188 28.188c-.001 15.542-12.645 28.188-28.188 28.188z" opacity=".394"/><path d="M34.621 62.928c-15.534 0-28.173-12.639-28.173-28.172 0-15.534 12.639-28.172 28.173-28.172s28.171 12.638 28.171 28.172c0 15.533-12.637 28.172-28.171 28.172z" opacity=".408"/><path d="M34.582 62.893c-15.525 0-28.156-12.631-28.156-28.155 0-15.525 12.631-28.156 28.156-28.156s28.155 12.631 28.155 28.156c0 15.524-12.63 28.155-28.155 28.155z" opacity=".422"/><path d="M34.543 62.859c-15.517 0-28.14-12.623-28.14-28.139S19.026 6.581 34.543 6.581 62.681 19.204 62.681 34.72c0 15.515-12.622 28.139-28.138 28.139z" opacity=".437"/><ellipse transform="rotate(-45.001 34.503 34.702)" cx="34.504" cy="34.702" rx="28.123" ry="28.123" opacity=".451"/><path d="M34.466 62.79c-15.499 0-28.107-12.609-28.107-28.106 0-15.498 12.608-28.107 28.107-28.107 15.498 0 28.105 12.609 28.105 28.107 0 15.497-12.607 28.106-28.105 28.106z" opacity=".465"/><path d="M34.427 62.756c-15.49 0-28.091-12.602-28.091-28.09 0-15.489 12.601-28.09 28.091-28.09 15.489 0 28.09 12.601 28.09 28.09-.001 15.488-12.601 28.09-28.09 28.09z" opacity=".479"/><path d="M34.388 62.722c-15.481 0-28.074-12.595-28.074-28.074 0-15.48 12.594-28.074 28.074-28.074 15.48 0 28.073 12.594 28.073 28.074 0 15.479-12.593 28.074-28.073 28.074z" opacity=".493"/><path d="M34.348 62.687C18.877 62.687 6.29 50.1 6.29 34.63c0-15.472 12.587-28.058 28.059-28.058 15.471 0 28.058 12.586 28.058 28.058-.001 15.47-12.588 28.057-28.059 28.057z" opacity=".507"/><path d="M34.309 62.653c-15.462 0-28.042-12.58-28.042-28.041 0-15.462 12.58-28.042 28.042-28.042 15.462 0 28.041 12.58 28.041 28.042 0 15.461-12.579 28.041-28.041 28.041z" opacity=".521"/><path d="M34.27 62.619c-15.453 0-28.025-12.573-28.025-28.025 0-15.454 12.572-28.025 28.025-28.025s28.025 12.572 28.025 28.025c.001 15.452-12.572 28.025-28.025 28.025z" opacity=".535"/><path d="M34.232 62.584c-15.445 0-28.01-12.565-28.01-28.008 0-15.444 12.564-28.009 28.01-28.009 15.443 0 28.008 12.565 28.008 28.009 0 15.443-12.564 28.008-28.008 28.008z" opacity=".549"/><path d="M34.193 62.55C18.758 62.55 6.2 49.992 6.2 34.558c0-15.435 12.558-27.993 27.993-27.993 15.435 0 27.992 12.558 27.992 27.993 0 15.434-12.557 27.992-27.992 27.992z" opacity=".563"/><path d="M34.154 62.516c-15.427 0-27.977-12.551-27.977-27.976 0-15.427 12.55-27.977 27.977-27.977 15.426 0 27.976 12.55 27.976 27.977 0 15.425-12.55 27.976-27.976 27.976z" opacity=".578"/><path d="M34.115 62.481c-15.418 0-27.96-12.543-27.96-27.959 0-15.417 12.542-27.96 27.96-27.96 15.417 0 27.96 12.543 27.96 27.96 0 15.416-12.543 27.959-27.96 27.959z" opacity=".592"/><ellipse transform="rotate(-87.897 34.079 34.504)" cx="34.076" cy="34.503" rx="27.944" ry="27.943" opacity=".606"/><path d="M34.037 62.413c-15.399 0-27.928-12.529-27.928-27.927 0-15.399 12.528-27.928 27.928-27.928s27.927 12.528 27.927 27.928c0 15.398-12.528 27.927-27.927 27.927z" opacity=".62"/><path d="M33.999 62.378c-15.392 0-27.912-12.521-27.912-27.911 0-15.391 12.521-27.911 27.912-27.911 15.39 0 27.91 12.521 27.91 27.911s-12.521 27.911-27.91 27.911z" opacity=".634"/><path d="M33.96 62.344c-15.382 0-27.896-12.514-27.896-27.895S18.578 6.554 33.96 6.554c15.381 0 27.894 12.514 27.894 27.895-.001 15.381-12.513 27.895-27.894 27.895z" opacity=".648"/><path d="M33.921 62.309c-15.373 0-27.879-12.506-27.879-27.878 0-15.373 12.506-27.878 27.879-27.878 15.372 0 27.878 12.506 27.878 27.878S49.293 62.309 33.921 62.309z" opacity=".662"/><path d="M33.882 62.275c-15.363 0-27.862-12.5-27.862-27.862 0-15.363 12.499-27.862 27.862-27.862S61.743 19.05 61.743 34.413c0 15.362-12.498 27.862-27.861 27.862z" opacity=".676"/><path d="M33.843 62.241c-15.355 0-27.846-12.492-27.846-27.846S18.488 6.549 33.843 6.549c15.354 0 27.846 12.492 27.846 27.846-.001 15.354-12.492 27.846-27.846 27.846z" opacity=".69"/><path d="M33.804 62.206c-15.346 0-27.829-12.484-27.829-27.829s12.483-27.83 27.829-27.83 27.829 12.484 27.829 27.83c0 15.345-12.484 27.829-27.829 27.829z" opacity=".704"/><path d="M33.765 62.172c-15.337 0-27.813-12.478-27.813-27.813 0-15.336 12.477-27.813 27.813-27.813 15.336 0 27.813 12.477 27.813 27.813 0 15.335-12.477 27.813-27.813 27.813z" opacity=".718"/><path d="M33.726 62.138c-15.328 0-27.798-12.47-27.798-27.797 0-15.328 12.47-27.797 27.798-27.797 15.327 0 27.796 12.469 27.796 27.797 0 15.326-12.468 27.797-27.796 27.797z" opacity=".732"/><path d="M33.687 62.103c-15.319 0-27.781-12.462-27.781-27.78 0-15.318 12.462-27.781 27.781-27.781 15.318 0 27.78 12.462 27.78 27.781.001 15.318-12.461 27.78-27.78 27.78z" opacity=".747"/><path d="M33.648 62.069c-15.31 0-27.765-12.456-27.765-27.764 0-15.31 12.455-27.764 27.765-27.764s27.764 12.455 27.764 27.764c0 15.308-12.454 27.764-27.764 27.764z" opacity=".761"/><ellipse transform="rotate(-76.556 33.609 34.286)" cx="33.609" cy="34.287" rx="27.748" ry="27.748" opacity=".775"/><path d="M33.57 62C18.279 62 5.839 49.559 5.839 34.269c0-15.292 12.441-27.732 27.731-27.732 15.292 0 27.731 12.441 27.731 27.732C61.302 49.559 48.862 62 33.57 62z" opacity=".789"/><path d="M33.532 61.966c-15.283 0-27.716-12.434-27.716-27.715 0-15.282 12.433-27.715 27.716-27.715 15.282 0 27.714 12.433 27.714 27.715 0 15.281-12.432 27.715-27.714 27.715z" opacity=".803"/><path d="M33.493 61.932c-15.274 0-27.699-12.426-27.699-27.699 0-15.273 12.425-27.699 27.699-27.699 15.273 0 27.698 12.426 27.698 27.699 0 15.272-12.425 27.699-27.698 27.699z" opacity=".817"/><path d="M33.454 61.897c-15.265 0-27.683-12.419-27.683-27.683S18.189 6.531 33.454 6.531s27.682 12.418 27.682 27.683c0 15.264-12.417 27.683-27.682 27.683z" opacity=".831"/><path d="M33.415 61.863c-15.256 0-27.667-12.412-27.667-27.666 0-15.256 12.411-27.667 27.667-27.667 15.255 0 27.666 12.411 27.666 27.667 0 15.254-12.411 27.666-27.666 27.666z" opacity=".845"/><path d="M33.376 61.829c-15.247 0-27.65-12.404-27.65-27.65 0-15.247 12.403-27.65 27.65-27.65 15.246 0 27.649 12.403 27.649 27.65 0 15.245-12.403 27.65-27.649 27.65z" opacity=".859"/><path d="M33.337 61.794c-15.237 0-27.634-12.397-27.634-27.633 0-15.238 12.396-27.634 27.634-27.634s27.634 12.396 27.634 27.634c0 15.236-12.397 27.633-27.634 27.633z" opacity=".873"/><path d="M33.299 61.76c-15.23 0-27.619-12.39-27.619-27.617 0-15.229 12.389-27.618 27.618-27.618 15.228 0 27.616 12.389 27.616 27.618.001 15.227-12.388 27.617-27.615 27.617z" opacity=".887"/><path d="M33.26 61.725c-15.221 0-27.601-12.382-27.601-27.601 0-15.22 12.381-27.602 27.601-27.602 15.219 0 27.601 12.382 27.601 27.602-.001 15.219-12.383 27.601-27.601 27.601z" opacity=".901"/><path d="M33.221 61.691c-15.211 0-27.585-12.375-27.585-27.584 0-15.211 12.374-27.585 27.585-27.585 15.21 0 27.584 12.375 27.584 27.585 0 15.209-12.375 27.584-27.584 27.584z" opacity=".915"/><path d="M33.181 61.657c-15.202 0-27.568-12.368-27.568-27.568 0-15.202 12.366-27.569 27.568-27.569 15.201 0 27.568 12.367 27.568 27.569.001 15.2-12.366 27.568-27.568 27.568z" opacity=".93"/><path d="M33.142 61.622C17.95 61.622 5.59 49.262 5.59 34.07c0-15.193 12.359-27.553 27.552-27.553 15.192 0 27.552 12.36 27.552 27.553 0 15.192-12.359 27.552-27.552 27.552z" opacity=".944"/><path d="M33.103 61.588c-15.184 0-27.536-12.353-27.536-27.536 0-15.184 12.352-27.536 27.536-27.536 15.184 0 27.536 12.353 27.536 27.536 0 15.183-12.352 27.536-27.536 27.536z" opacity=".958"/><path d="M33.065 61.554c-15.176 0-27.521-12.346-27.521-27.52 0-15.175 12.345-27.52 27.521-27.52 15.174 0 27.519 12.345 27.519 27.52 0 15.174-12.345 27.52-27.519 27.52z" opacity=".972"/><path d="M33.026 61.519c-15.166 0-27.504-12.338-27.504-27.503 0-15.166 12.338-27.503 27.504-27.503 15.165 0 27.503 12.338 27.503 27.503 0 15.165-12.338 27.503-27.503 27.503z" opacity=".986"/><path d="M32.987 61.485C17.83 61.485 5.5 49.154 5.5 33.998c0-15.157 12.33-27.487 27.487-27.487 15.156 0 27.486 12.33 27.486 27.487 0 15.156-12.33 27.487-27.486 27.487z"/></g><linearGradient id="SVGID_43_" gradientUnits="userSpaceOnUse" x1="13.718" y1="14.729" x2="52.573" y2="53.584"><stop offset="0" stop-color="#c3c4c3"/><stop offset=".217" stop-color="#dadada"/><stop offset=".484" stop-color="#eeefee"/><stop offset=".747" stop-color="#fbfbfb"/><stop offset="1" stop-color="#fff"/></linearGradient><path d="M32.987 61.485C17.83 61.485 5.5 49.154 5.5 33.998c0-15.157 12.33-27.487 27.487-27.487 15.156 0 27.486 12.33 27.486 27.487 0 15.156-12.33 27.487-27.486 27.487z" fill="url(#SVGID_43_)" stroke="#fff" stroke-width=".74" stroke-miterlimit="10"/><path id="g4780_1_" class="st44" d="M42.845 41.029c1.087.871 2.456 1.6 1.807 3.43-.67 1.904-3.005 3.825-4.997 3.804-.279-.076-.834-.162-1.334-.376-8.746-3.768-15.101-9.939-18.713-18.805-1.211-2.973.053-5.481 3.103-6.508.548-.184 1.084-.195 1.623.002 1.302.479 4.598 5.014 4.672 6.372.057 1.039-.652 1.603-1.353 2.079-1.325.901-1.333 2.045-.766 3.316 1.279 2.879 3.468 4.858 6.299 6.143 1.027.467 2.011.418 2.712-.643 1.251-1.893 2.784-1.801 4.458-.625.84.59 1.695 1.168 2.489 1.811zm-9.807-17.894c6.395.983 9.345 4.024 10.16 10.468.075.595-.147 1.489.701 1.508.887.016.674-.867.682-1.463.074-6.066-5.214-11.691-11.359-11.897-.462.067-1.421-.319-1.481.718-.041.702.768.586 1.297.666zm1.25 1.767c-.615-.074-1.426-.364-1.57.49-.15.895.756.806 1.338.935 3.95.882 5.325 2.319 5.974 6.239.098.571-.092 1.46.879 1.312.718-.108.46-.87.519-1.316.032-3.762-3.193-7.186-7.14-7.66zm.363 3.077c-.41.011-.814.054-.965.492-.227.655.252.812.736.89 1.62.262 2.474 1.217 2.635 2.832.042.439.322.793.746.744.588-.071.639-.594.621-1.089.03-1.815-2.021-3.912-3.773-3.869z"/></svg>