<!-- Generator: Adobe Illustrator 22.0.1, SVG Export Plug-In  -->
<svg version="1.1"
	 xmlns="http://www.w3.org/2000/svg" xmlns:xlink="http://www.w3.org/1999/xlink" xmlns:a="http://ns.adobe.com/AdobeSVGViewerExtensions/3.0/"
	 x="0px" y="0px" width="66.225px" height="70.529px" viewBox="0 0 66.225 70.529"
	 style="enable-background:new 0 0 66.225 70.529;" xml:space="preserve">
<style type="text/css">
	.st0{fill:url(#g4780_5_);}
	.st1{opacity:0.3;}
	.st2{opacity:0;fill:url(#SVGID_1_);}
	.st3{opacity:0.0244;fill:url(#SVGID_2_);}
	.st4{opacity:0.0488;fill:url(#SVGID_3_);}
	.st5{opacity:0.0732;fill:url(#SVGID_4_);}
	.st6{opacity:0.0976;fill:url(#SVGID_5_);}
	.st7{opacity:0.122;fill:url(#SVGID_6_);}
	.st8{opacity:0.1463;fill:url(#SVGID_7_);}
	.st9{opacity:0.1707;fill:url(#SVGID_8_);}
	.st10{opacity:0.1951;fill:url(#SVGID_9_);}
	.st11{opacity:0.2195;fill:url(#SVGID_10_);}
	.st12{opacity:0.2439;fill:url(#SVGID_11_);}
	.st13{opacity:0.2683;fill:url(#SVGID_12_);}
	.st14{opacity:0.2927;fill:url(#SVGID_13_);}
	.st15{opacity:0.3171;fill:url(#SVGID_14_);}
	.st16{opacity:0.3415;fill:url(#SVGID_15_);}
	.st17{opacity:0.3659;fill:url(#SVGID_16_);}
	.st18{opacity:0.3902;fill:url(#SVGID_17_);}
	.st19{opacity:0.4146;fill:url(#SVGID_18_);}
	.st20{opacity:0.439;fill:url(#SVGID_19_);}
	.st21{opacity:0.4634;fill:url(#SVGID_20_);}
	.st22{opacity:0.4878;fill:url(#SVGID_21_);}
	.st23{opacity:0.5122;fill:url(#SVGID_22_);}
	.st24{opacity:0.5366;fill:url(#SVGID_23_);}
	.st25{opacity:0.561;fill:url(#SVGID_24_);}
	.st26{opacity:0.5854;fill:url(#SVGID_25_);}
	.st27{opacity:0.6098;fill:url(#SVGID_26_);}
	.st28{opacity:0.6341;fill:url(#SVGID_27_);}
	.st29{opacity:0.6585;fill:url(#SVGID_28_);}
	.st30{opacity:0.6829;fill:url(#SVGID_29_);}
	.st31{opacity:0.7073;fill:url(#SVGID_30_);}
	.st32{opacity:0.7317;fill:url(#SVGID_31_);}
	.st33{opacity:0.7561;fill:url(#SVGID_32_);}
	.st34{opacity:0.7805;fill:url(#SVGID_33_);}
	.st35{opacity:0.8049;fill:url(#SVGID_34_);}
	.st36{opacity:0.8293;fill:url(#SVGID_35_);}
	.st37{opacity:0.8537;fill:url(#SVGID_36_);}
	.st38{opacity:0.878;fill:url(#SVGID_37_);}
	.st39{opacity:0.9024;fill:url(#SVGID_38_);}
	.st40{opacity:0.9268;fill:url(#SVGID_39_);}
	.st41{opacity:0.9512;fill:url(#SVGID_40_);}
	.st42{opacity:0.9756;fill:url(#SVGID_41_);}
	.st43{fill:url(#SVGID_42_);}
	.st44{fill:#00A651;}
	.st45{opacity:0.7;}
	.st46{opacity:0;}
	.st47{opacity:0.0141;}
	.st48{opacity:0.0282;}
	.st49{opacity:0.0423;}
	.st50{opacity:0.0563;}
	.st51{opacity:0.0704;}
	.st52{opacity:0.0845;}
	.st53{opacity:0.0986;}
	.st54{opacity:0.1127;}
	.st55{opacity:0.1268;}
	.st56{opacity:0.1408;}
	.st57{opacity:0.1549;}
	.st58{opacity:0.169;}
	.st59{opacity:0.1831;}
	.st60{opacity:0.1972;}
	.st61{opacity:0.2113;}
	.st62{opacity:0.2254;}
	.st63{opacity:0.2394;}
	.st64{opacity:0.2535;}
	.st65{opacity:0.2676;}
	.st66{opacity:0.2817;}
	.st67{opacity:0.2958;}
	.st68{opacity:0.3099;}
	.st69{opacity:0.3239;}
	.st70{opacity:0.338;}
	.st71{opacity:0.3521;}
	.st72{opacity:0.3662;}
	.st73{opacity:0.3803;}
	.st74{opacity:0.3944;}
	.st75{opacity:0.4085;}
	.st76{opacity:0.4225;}
	.st77{opacity:0.4366;}
	.st78{opacity:0.4507;}
	.st79{opacity:0.4648;}
	.st80{opacity:0.4789;}
	.st81{opacity:0.493;}
	.st82{opacity:0.507;}
	.st83{opacity:0.5211;}
	.st84{opacity:0.5352;}
	.st85{opacity:0.5493;}
	.st86{opacity:0.5634;}
	.st87{opacity:0.5775;}
	.st88{opacity:0.5915;}
	.st89{opacity:0.6056;}
	.st90{opacity:0.6197;}
	.st91{opacity:0.6338;}
	.st92{opacity:0.6479;}
	.st93{opacity:0.662;}
	.st94{opacity:0.6761;}
	.st95{opacity:0.6901;}
	.st96{opacity:0.7042;}
	.st97{opacity:0.7183;}
	.st98{opacity:0.7324;}
	.st99{opacity:0.7465;}
	.st100{opacity:0.7606;}
	.st101{opacity:0.7746;}
	.st102{opacity:0.7887;}
	.st103{opacity:0.8028;}
	.st104{opacity:0.8169;}
	.st105{opacity:0.831;}
	.st106{opacity:0.8451;}
	.st107{opacity:0.8592;}
	.st108{opacity:0.8732;}
	.st109{opacity:0.8873;}
	.st110{opacity:0.9014;}
	.st111{opacity:0.9155;}
	.st112{opacity:0.9296;}
	.st113{opacity:0.9437;}
	.st114{opacity:0.9577;}
	.st115{opacity:0.9718;}
	.st116{opacity:0.9859;}
	.st117{fill:url(#SVGID_43_);stroke:#FFFFFF;stroke-width:0.7398;stroke-miterlimit:10;}
	.st118{fill:url(#g4780_6_);}
	.st119{opacity:0;fill:url(#SVGID_44_);}
	.st120{opacity:0.0244;fill:url(#SVGID_45_);}
	.st121{opacity:0.0488;fill:url(#SVGID_46_);}
	.st122{opacity:0.0732;fill:url(#SVGID_47_);}
	.st123{opacity:0.0976;fill:url(#SVGID_48_);}
	.st124{opacity:0.122;fill:url(#SVGID_49_);}
	.st125{opacity:0.1463;fill:url(#SVGID_50_);}
	.st126{opacity:0.1707;fill:url(#SVGID_51_);}
	.st127{opacity:0.1951;fill:url(#SVGID_52_);}
	.st128{opacity:0.2195;fill:url(#SVGID_53_);}
	.st129{opacity:0.2439;fill:url(#SVGID_54_);}
	.st130{opacity:0.2683;fill:url(#SVGID_55_);}
	.st131{opacity:0.2927;fill:url(#SVGID_56_);}
	.st132{opacity:0.3171;fill:url(#SVGID_57_);}
	.st133{opacity:0.3415;fill:url(#SVGID_58_);}
	.st134{opacity:0.3659;fill:url(#SVGID_59_);}
	.st135{opacity:0.3902;fill:url(#SVGID_60_);}
	.st136{opacity:0.4146;fill:url(#SVGID_61_);}
	.st137{opacity:0.439;fill:url(#SVGID_62_);}
	.st138{opacity:0.4634;fill:url(#SVGID_63_);}
	.st139{opacity:0.4878;fill:url(#SVGID_64_);}
	.st140{opacity:0.5122;fill:url(#SVGID_65_);}
	.st141{opacity:0.5366;fill:url(#SVGID_66_);}
	.st142{opacity:0.561;fill:url(#SVGID_67_);}
	.st143{opacity:0.5854;fill:url(#SVGID_68_);}
	.st144{opacity:0.6098;fill:url(#SVGID_69_);}
	.st145{opacity:0.6341;fill:url(#SVGID_70_);}
	.st146{opacity:0.6585;fill:url(#SVGID_71_);}
	.st147{opacity:0.6829;fill:url(#SVGID_72_);}
	.st148{opacity:0.7073;fill:url(#SVGID_73_);}
	.st149{opacity:0.7317;fill:url(#SVGID_74_);}
	.st150{opacity:0.7561;fill:url(#SVGID_75_);}
	.st151{opacity:0.7805;fill:url(#SVGID_76_);}
	.st152{opacity:0.8049;fill:url(#SVGID_77_);}
	.st153{opacity:0.8293;fill:url(#SVGID_78_);}
	.st154{opacity:0.8537;fill:url(#SVGID_79_);}
	.st155{opacity:0.878;fill:url(#SVGID_80_);}
	.st156{opacity:0.9024;fill:url(#SVGID_81_);}
	.st157{opacity:0.9268;fill:url(#SVGID_82_);}
	.st158{opacity:0.9512;fill:url(#SVGID_83_);}
	.st159{opacity:0.9756;fill:url(#SVGID_84_);}
	.st160{fill:url(#SVGID_85_);}
	.st161{fill:url(#SVGID_86_);stroke:#FFFFFF;stroke-width:0.7398;stroke-miterlimit:10;}
</style>
<defs>
</defs>
<g>
	<linearGradient id="g4780_5_" gradientUnits="userSpaceOnUse" x1="20.1531" y1="33.9978" x2="45.8201" y2="33.9978">
		<stop  offset="0" style="stop-color:#3C274D"/>
		<stop  offset="1" style="stop-color:#8658AB"/>
	</linearGradient>
	<path id="g4780_4_" class="st0" d="M43.845,40.029c1.087,0.871,2.456,1.6,1.807,3.43c-0.67,1.904-3.005,3.825-4.997,3.804
		c-0.279-0.076-0.834-0.162-1.334-0.376c-8.746-3.768-15.101-9.939-18.713-18.805c-1.211-2.973,0.053-5.481,3.103-6.508
		c0.548-0.184,1.084-0.195,1.623,0.002c1.302,0.479,4.598,5.014,4.672,6.372c0.057,1.039-0.652,1.603-1.353,2.079
		c-1.325,0.901-1.333,2.045-0.766,3.316c1.279,2.879,3.468,4.858,6.299,6.143c1.027,0.467,2.011,0.418,2.712-0.643
		c1.251-1.893,2.784-1.801,4.458-0.625C42.196,38.808,43.051,39.386,43.845,40.029L43.845,40.029z M34.038,22.135
		c6.395,0.983,9.345,4.024,10.16,10.468c0.075,0.595-0.147,1.489,0.701,1.508c0.887,0.016,0.674-0.867,0.682-1.463
		c0.074-6.066-5.214-11.691-11.359-11.897c-0.462,0.067-1.421-0.319-1.481,0.718C32.7,22.171,33.509,22.055,34.038,22.135
		L34.038,22.135z M35.288,23.902c-0.615-0.074-1.426-0.364-1.57,0.49c-0.15,0.895,0.756,0.806,1.338,0.935
		c3.95,0.882,5.325,2.319,5.974,6.239c0.098,0.571-0.092,1.46,0.879,1.311c0.718-0.108,0.46-0.87,0.519-1.316
		C42.46,27.8,39.235,24.376,35.288,23.902L35.288,23.902z M35.651,26.979c-0.41,0.011-0.814,0.054-0.965,0.492
		c-0.227,0.655,0.252,0.812,0.736,0.89c1.62,0.262,2.474,1.217,2.635,2.832c0.042,0.44,0.322,0.793,0.746,0.744
		c0.588-0.071,0.639-0.594,0.621-1.089C39.454,29.033,37.403,26.936,35.651,26.979L35.651,26.979z"/>
	<g class="st1">
		
			<radialGradient id="SVGID_1_" cx="-245.8231" cy="-370.5241" r="4.9234" gradientTransform="matrix(7.1054 0 0 0.3658 1781.6667 204.039)" gradientUnits="userSpaceOnUse">
			<stop  offset="0" style="stop-color:#000000"/>
			<stop  offset="1" style="stop-color:#000000"/>
		</radialGradient>
		<path class="st2" d="M64.937,68.501c0,1.119-13.405,2.028-29.941,2.028c-16.537,0-29.942-0.909-29.942-2.028
			c0-1.12,13.405-2.027,29.942-2.027C51.532,66.474,64.937,67.381,64.937,68.501z"/>
		
			<radialGradient id="SVGID_2_" cx="-244.62" cy="-388.2232" r="4.9405" gradientTransform="matrix(6.9057 0 0 0.3561 1724.2678 206.7475)" gradientUnits="userSpaceOnUse">
			<stop  offset="0" style="stop-color:#000000"/>
			<stop  offset="1" style="stop-color:#000000"/>
		</radialGradient>
		<path class="st3" d="M5.759,68.501c0-1.093,13.09-1.979,29.237-1.979c16.146,0,29.236,0.886,29.236,1.979
			c0,1.092-13.09,1.979-29.236,1.979C18.848,70.48,5.759,69.593,5.759,68.501z"/>
		
			<radialGradient id="SVGID_3_" cx="-243.3418" cy="-406.9114" r="4.9582" gradientTransform="matrix(6.706 0 0 0.3464 1666.8456 209.4551)" gradientUnits="userSpaceOnUse">
			<stop  offset="0" style="stop-color:#000000"/>
			<stop  offset="1" style="stop-color:#000000"/>
		</radialGradient>
		<path class="st4" d="M6.464,68.501c0-1.066,12.774-1.931,28.532-1.931c15.757,0,28.531,0.864,28.531,1.931
			c0,1.065-12.774,1.931-28.531,1.931C19.238,70.432,6.464,69.566,6.464,68.501z"/>
		
			<radialGradient id="SVGID_4_" cx="-241.9851" cy="-426.6749" r="4.9767" gradientTransform="matrix(6.5063 0 0 0.3367 1609.4233 212.1627)" gradientUnits="userSpaceOnUse">
			<stop  offset="0" style="stop-color:#000000"/>
			<stop  offset="1" style="stop-color:#000000"/>
		</radialGradient>
		<path class="st5" d="M7.17,68.501c0-1.04,12.457-1.882,27.826-1.882c15.368,0,27.825,0.842,27.825,1.882
			c0,1.039-12.457,1.882-27.825,1.882C19.627,70.383,7.17,69.54,7.17,68.501z"/>
		
			<radialGradient id="SVGID_5_" cx="-240.5426" cy="-447.6101" r="4.997" gradientTransform="matrix(6.3066 0 0 0.327 1552.0011 214.8697)" gradientUnits="userSpaceOnUse">
			<stop  offset="0" style="stop-color:#000000"/>
			<stop  offset="1" style="stop-color:#000000"/>
		</radialGradient>
		<path class="st6" d="M7.875,68.501c0-1.013,12.142-1.833,27.121-1.833c14.979,0,27.12,0.82,27.12,1.833
			c0,1.012-12.142,1.834-27.12,1.834C20.016,70.335,7.875,69.513,7.875,68.501z"/>
		
			<radialGradient id="SVGID_6_" cx="-239.0056" cy="-469.8292" r="5.0182" gradientTransform="matrix(6.1069 0 0 0.3173 1494.5789 217.5778)" gradientUnits="userSpaceOnUse">
			<stop  offset="0" style="stop-color:#000000"/>
			<stop  offset="1" style="stop-color:#000000"/>
		</radialGradient>
		<path class="st7" d="M8.58,68.501c0-0.986,11.826-1.785,26.416-1.785c14.589,0,26.415,0.799,26.415,1.785
			c0,0.985-11.826,1.785-26.415,1.785C20.406,70.286,8.58,69.486,8.58,68.501z"/>
		
			<radialGradient id="SVGID_7_" cx="-237.3648" cy="-491.0514" r="5.0421" gradientTransform="matrix(5.9072 0 0 0.3075 1437.1566 219.4993)" gradientUnits="userSpaceOnUse">
			<stop  offset="0" style="stop-color:#000000"/>
			<stop  offset="1" style="stop-color:#000000"/>
		</radialGradient>
		<path class="st8" d="M9.285,68.501c0-0.96,11.511-1.737,25.711-1.737c14.199,0,25.71,0.777,25.71,1.737
			c0,0.959-11.511,1.737-25.71,1.737C20.796,70.238,9.285,69.46,9.285,68.501z"/>
		
			<radialGradient id="SVGID_8_" cx="-235.6091" cy="-516.1379" r="5.0667" gradientTransform="matrix(5.7075 0 0 0.2978 1379.7344 222.2069)" gradientUnits="userSpaceOnUse">
			<stop  offset="0" style="stop-color:#000000"/>
			<stop  offset="1" style="stop-color:#000000"/>
		</radialGradient>
		<path class="st9" d="M9.99,68.501c0-0.933,11.195-1.688,25.006-1.688c13.81,0,25.005,0.755,25.005,1.688
			c0,0.932-11.195,1.688-25.005,1.688C21.185,70.189,9.99,69.433,9.99,68.501z"/>
		
			<radialGradient id="SVGID_9_" cx="-233.7261" cy="-542.9138" r="5.092" gradientTransform="matrix(5.5078 0 0 0.2881 1322.3121 224.9144)" gradientUnits="userSpaceOnUse">
			<stop  offset="0" style="stop-color:#000000"/>
			<stop  offset="1" style="stop-color:#000000"/>
		</radialGradient>
		<path class="st10" d="M10.695,68.501c0-0.906,10.88-1.64,24.301-1.64s24.3,0.733,24.3,1.64c0,0.905-10.879,1.64-24.3,1.64
			S10.695,69.406,10.695,68.501z"/>
		
			<radialGradient id="SVGID_10_" cx="-231.7014" cy="-571.5535" r="5.12" gradientTransform="matrix(5.3081 0 0 0.2784 1264.8898 227.6215)" gradientUnits="userSpaceOnUse">
			<stop  offset="0" style="stop-color:#000000"/>
			<stop  offset="1" style="stop-color:#000000"/>
		</radialGradient>
		<path class="st11" d="M11.401,68.501c0-0.879,10.563-1.591,23.595-1.591c13.031,0,23.594,0.712,23.594,1.591
			c0,0.878-10.563,1.591-23.594,1.591C21.964,70.092,11.401,69.379,11.401,68.501z"/>
		
			<radialGradient id="SVGID_11_" cx="-229.5185" cy="-602.2629" r="5.1504" gradientTransform="matrix(5.1084 0 0 0.2687 1207.4675 230.3291)" gradientUnits="userSpaceOnUse">
			<stop  offset="0" style="stop-color:#000000"/>
			<stop  offset="1" style="stop-color:#000000"/>
		</radialGradient>
		<path class="st12" d="M12.106,68.501c0-0.853,10.247-1.543,22.89-1.543c12.642,0,22.889,0.69,22.889,1.543
			c0,0.852-10.247,1.543-22.889,1.543C22.353,70.044,12.106,69.353,12.106,68.501z"/>
		
			<radialGradient id="SVGID_12_" cx="-227.1579" cy="-635.2726" r="5.1829" gradientTransform="matrix(4.9087 0 0 0.259 1150.0453 233.0366)" gradientUnits="userSpaceOnUse">
			<stop  offset="0" style="stop-color:#000000"/>
			<stop  offset="1" style="stop-color:#000000"/>
		</radialGradient>
		<path class="st13" d="M12.811,68.501c0-0.826,9.932-1.495,22.185-1.495c12.252,0,22.184,0.669,22.184,1.495
			c0,0.825-9.932,1.495-22.184,1.495C22.743,69.996,12.811,69.326,12.811,68.501z"/>
		
			<radialGradient id="SVGID_13_" cx="-224.5971" cy="-670.8521" r="5.2178" gradientTransform="matrix(4.709 0 0 0.2493 1092.6232 235.7442)" gradientUnits="userSpaceOnUse">
			<stop  offset="0" style="stop-color:#000000"/>
			<stop  offset="1" style="stop-color:#000000"/>
		</radialGradient>
		<path class="st14" d="M13.516,68.501c0-0.799,9.616-1.446,21.479-1.446c11.862,0,21.479,0.647,21.479,1.446
			c0,0.798-9.616,1.446-21.479,1.446C23.133,69.947,13.516,69.299,13.516,68.501z"/>
		
			<radialGradient id="SVGID_14_" cx="-221.8095" cy="-709.3103" r="5.2556" gradientTransform="matrix(4.5093 0 0 0.2396 1035.2008 238.4518)" gradientUnits="userSpaceOnUse">
			<stop  offset="0" style="stop-color:#000000"/>
			<stop  offset="1" style="stop-color:#000000"/>
		</radialGradient>
		<path class="st15" d="M14.222,68.501c0-0.772,9.301-1.397,20.774-1.397c11.474,0,20.773,0.625,20.773,1.397
			c0,0.771-9.3,1.397-20.773,1.397C23.522,69.898,14.222,69.272,14.222,68.501z"/>
		
			<radialGradient id="SVGID_15_" cx="-218.7635" cy="-751.0127" r="5.2972" gradientTransform="matrix(4.3096 0 0 0.2299 977.7786 241.1588)" gradientUnits="userSpaceOnUse">
			<stop  offset="0" style="stop-color:#000000"/>
			<stop  offset="1" style="stop-color:#000000"/>
		</radialGradient>
		<path class="st16" d="M14.927,68.501c0-0.746,8.985-1.349,20.069-1.349s20.068,0.604,20.068,1.349
			c0,0.745-8.984,1.349-20.068,1.349S14.927,69.246,14.927,68.501z"/>
		
			<radialGradient id="SVGID_16_" cx="-215.4215" cy="-796.3948" r="5.3423" gradientTransform="matrix(4.1099 0 0 0.2202 920.3563 243.8669)" gradientUnits="userSpaceOnUse">
			<stop  offset="0" style="stop-color:#000000"/>
			<stop  offset="1" style="stop-color:#000000"/>
		</radialGradient>
		<path class="st17" d="M15.633,68.501c0-0.719,8.668-1.301,19.363-1.301c10.694,0,19.362,0.582,19.362,1.301
			c0,0.718-8.668,1.3-19.362,1.3C24.301,69.801,15.633,69.219,15.633,68.501z"/>
		
			<radialGradient id="SVGID_17_" cx="-211.7382" cy="-842.6218" r="5.3938" gradientTransform="matrix(3.9102 0 0 0.2104 862.9341 245.7884)" gradientUnits="userSpaceOnUse">
			<stop  offset="0" style="stop-color:#000000"/>
			<stop  offset="1" style="stop-color:#000000"/>
		</radialGradient>
		<path class="st18" d="M16.338,68.501c0-0.692,8.353-1.252,18.658-1.252c10.305,0,18.657,0.56,18.657,1.252
			c0,0.691-8.353,1.252-18.657,1.252C24.69,69.753,16.338,69.192,16.338,68.501z"/>
		
			<radialGradient id="SVGID_18_" cx="-207.6584" cy="-896.837" r="5.4492" gradientTransform="matrix(3.7105 0 0 0.2007 805.5118 248.4959)" gradientUnits="userSpaceOnUse">
			<stop  offset="0" style="stop-color:#000000"/>
			<stop  offset="1" style="stop-color:#000000"/>
		</radialGradient>
		<path class="st19" d="M17.043,68.501c0-0.665,8.037-1.204,17.953-1.204c9.915,0,17.952,0.539,17.952,1.204
			c0,0.664-8.037,1.204-17.952,1.204C25.08,69.705,17.043,69.165,17.043,68.501z"/>
		
			<radialGradient id="SVGID_19_" cx="-203.1144" cy="-956.5594" r="5.5093" gradientTransform="matrix(3.5108 0 0 0.191 748.0895 251.2036)" gradientUnits="userSpaceOnUse">
			<stop  offset="0" style="stop-color:#000000"/>
			<stop  offset="1" style="stop-color:#000000"/>
		</radialGradient>
		<path class="st20" d="M17.748,68.501c0-0.639,7.722-1.155,17.248-1.155c9.526,0,17.247,0.517,17.247,1.155
			c0,0.638-7.721,1.155-17.247,1.155C25.47,69.656,17.748,69.139,17.748,68.501z"/>
		
			<radialGradient id="SVGID_20_" cx="-198.0224" cy="-1022.6691" r="5.5776" gradientTransform="matrix(3.3111 0 0 0.1813 690.6672 253.9107)" gradientUnits="userSpaceOnUse">
			<stop  offset="0" style="stop-color:#000000"/>
			<stop  offset="1" style="stop-color:#000000"/>
		</radialGradient>
		<path class="st21" d="M18.453,68.501c0-0.612,7.406-1.107,16.543-1.107s16.542,0.495,16.542,1.107
			c0,0.611-7.405,1.106-16.542,1.106S18.453,69.112,18.453,68.501z"/>
		
			<radialGradient id="SVGID_21_" cx="-192.2767" cy="-1096.2557" r="5.6546" gradientTransform="matrix(3.1114 0 0 0.1716 633.2451 256.6182)" gradientUnits="userSpaceOnUse">
			<stop  offset="0" style="stop-color:#000000"/>
			<stop  offset="1" style="stop-color:#000000"/>
		</radialGradient>
		<path class="st22" d="M19.158,68.501c0-0.585,7.091-1.059,15.838-1.059c8.747,0,15.837,0.474,15.837,1.059
			c0,0.584-7.09,1.058-15.837,1.058C26.249,69.559,19.158,69.085,19.158,68.501z"/>
		
			<radialGradient id="SVGID_22_" cx="-185.7429" cy="-1178.6615" r="5.7406" gradientTransform="matrix(2.9117 0 0 0.1619 575.8228 259.3258)" gradientUnits="userSpaceOnUse">
			<stop  offset="0" style="stop-color:#000000"/>
			<stop  offset="1" style="stop-color:#000000"/>
		</radialGradient>
		<path class="st23" d="M19.864,68.501c0-0.559,6.774-1.01,15.131-1.01c8.358,0,15.132,0.452,15.132,1.01
			c0,0.558-6.773,1.009-15.132,1.009C26.638,69.51,19.864,69.059,19.864,68.501z"/>
		
			<radialGradient id="SVGID_23_" cx="-178.2464" cy="-1271.5726" r="5.8394" gradientTransform="matrix(2.712 0 0 0.1522 518.3995 262.0338)" gradientUnits="userSpaceOnUse">
			<stop  offset="0" style="stop-color:#000000"/>
			<stop  offset="1" style="stop-color:#000000"/>
		</radialGradient>
		<path class="st24" d="M20.569,68.501c0-0.532,6.458-0.962,14.426-0.962c7.969,0,14.427,0.43,14.427,0.962
			c0,0.531-6.458,0.961-14.427,0.961C27.027,69.462,20.569,69.032,20.569,68.501z"/>
		
			<radialGradient id="SVGID_24_" cx="-169.5578" cy="-1377.1223" r="5.9535" gradientTransform="matrix(2.5123 0 0 0.1425 460.9754 264.7404)" gradientUnits="userSpaceOnUse">
			<stop  offset="0" style="stop-color:#000000"/>
			<stop  offset="1" style="stop-color:#000000"/>
		</radialGradient>
		<path class="st25" d="M21.274,68.501c0-0.505,6.143-0.914,13.721-0.914c7.579,0,13.722,0.409,13.722,0.914
			c0,0.504-6.143,0.913-13.722,0.913C27.417,69.414,21.274,69.005,21.274,68.501z"/>
		
			<radialGradient id="SVGID_25_" cx="-159.3685" cy="-1498.0985" r="6.0842" gradientTransform="matrix(2.3126 0 0 0.1328 403.5511 267.448)" gradientUnits="userSpaceOnUse">
			<stop  offset="0" style="stop-color:#000000"/>
			<stop  offset="1" style="stop-color:#000000"/>
		</radialGradient>
		<path class="st26" d="M21.979,68.501c0-0.478,5.827-0.865,13.016-0.865c7.19,0,13.017,0.387,13.017,0.865
			c0,0.477-5.826,0.864-13.017,0.864C27.806,69.365,21.979,68.978,21.979,68.501z"/>
		
			<radialGradient id="SVGID_26_" cx="-147.2533" cy="-1638.1361" r="6.2402" gradientTransform="matrix(2.1129 0 0 0.1231 346.127 270.1551)" gradientUnits="userSpaceOnUse">
			<stop  offset="0" style="stop-color:#000000"/>
			<stop  offset="1" style="stop-color:#000000"/>
		</radialGradient>
		<path class="st27" d="M22.684,68.501c0-0.451,5.512-0.816,12.311-0.816c6.801,0,12.312,0.365,12.312,0.816
			c0,0.45-5.511,0.815-12.312,0.815C28.196,69.316,22.684,68.951,22.684,68.501z"/>
		
			<radialGradient id="SVGID_27_" cx="-132.6089" cy="-1796.7921" r="6.4304" gradientTransform="matrix(1.9132 0 0 0.1133 288.7027 272.0771)" gradientUnits="userSpaceOnUse">
			<stop  offset="0" style="stop-color:#000000"/>
			<stop  offset="1" style="stop-color:#000000"/>
		</radialGradient>
		<path class="st28" d="M23.389,68.501c0-0.425,5.196-0.768,11.605-0.768c6.411,0,11.606,0.343,11.606,0.768
			c0,0.424-5.195,0.767-11.606,0.767C28.586,69.268,23.389,68.925,23.389,68.501z"/>
		
			<radialGradient id="SVGID_28_" cx="-114.551" cy="-1991.1661" r="6.657" gradientTransform="matrix(1.7135 0 0 0.1036 231.2785 274.7851)" gradientUnits="userSpaceOnUse">
			<stop  offset="0" style="stop-color:#000000"/>
			<stop  offset="1" style="stop-color:#000000"/>
		</radialGradient>
		<path class="st29" d="M24.096,68.501c0-0.398,4.879-0.72,10.899-0.72c6.021,0,10.9,0.322,10.9,0.72
			c0,0.397-4.879,0.718-10.9,0.718C28.974,69.219,24.096,68.898,24.096,68.501z"/>
		
			<radialGradient id="SVGID_29_" cx="-91.7287" cy="-2225.6807" r="6.9414" gradientTransform="matrix(1.5138 0 0 0.0939 173.8544 277.4917)" gradientUnits="userSpaceOnUse">
			<stop  offset="0" style="stop-color:#000000"/>
			<stop  offset="1" style="stop-color:#000000"/>
		</radialGradient>
		<path class="st30" d="M24.801,68.501c0-0.371,4.563-0.671,10.194-0.671c5.632,0,10.195,0.3,10.195,0.671
			c0,0.37-4.563,0.67-10.195,0.67C29.364,69.171,24.801,68.871,24.801,68.501z"/>
		
			<radialGradient id="SVGID_30_" cx="-61.97" cy="-2514.2368" r="7.3054" gradientTransform="matrix(1.3141 0 0 0.0842 116.4301 280.1992)" gradientUnits="userSpaceOnUse">
			<stop  offset="0" style="stop-color:#000000"/>
			<stop  offset="1" style="stop-color:#000000"/>
		</radialGradient>
		<path class="st31" d="M25.506,68.501c0-0.344,4.248-0.623,9.489-0.623c5.243,0,9.49,0.278,9.49,0.623
			c0,0.343-4.247,0.622-9.49,0.622C29.754,69.123,25.506,68.844,25.506,68.501z"/>
		
			<radialGradient id="SVGID_31_" cx="-21.5459" cy="-2877.9336" r="7.7907" gradientTransform="matrix(1.1144 0 0 0.0745 59.0061 282.9063)" gradientUnits="userSpaceOnUse">
			<stop  offset="0" style="stop-color:#000000"/>
			<stop  offset="1" style="stop-color:#000000"/>
		</radialGradient>
		<path class="st32" d="M26.211,68.501c0-0.318,3.933-0.574,8.784-0.574c4.854,0,8.785,0.256,8.785,0.574
			c0,0.317-3.932,0.573-8.785,0.573C30.143,69.074,26.211,68.818,26.211,68.501z"/>
		
			<radialGradient id="SVGID_32_" cx="36.5294" cy="-3350.5203" r="8.4765" gradientTransform="matrix(0.9147 0 0 0.0648 1.5819 285.614)" gradientUnits="userSpaceOnUse">
			<stop  offset="0" style="stop-color:#000000"/>
			<stop  offset="1" style="stop-color:#000000"/>
		</radialGradient>
		<path class="st33" d="M26.916,68.501c0-0.291,3.617-0.526,8.079-0.526c4.464,0,8.08,0.235,8.08,0.526
			c0,0.29-3.616,0.524-8.08,0.524C30.533,69.025,26.916,68.791,26.916,68.501z"/>
		
			<radialGradient id="SVGID_33_" cx="127.0458" cy="-3989.4961" r="9.5199" gradientTransform="matrix(0.715 0 0 0.0551 -55.8423 288.3215)" gradientUnits="userSpaceOnUse">
			<stop  offset="0" style="stop-color:#000000"/>
			<stop  offset="1" style="stop-color:#000000"/>
		</radialGradient>
		<path class="st34" d="M27.621,68.501c0-0.264,3.302-0.478,7.374-0.478c4.074,0,7.375,0.213,7.375,0.478
			c0,0.263-3.301,0.476-7.375,0.476C30.923,68.977,27.621,68.764,27.621,68.501z"/>
		
			<radialGradient id="SVGID_34_" cx="287.7189" cy="-4901.5054" r="11.3254" gradientTransform="matrix(0.5153 0 0 0.0454 -113.2662 291.0286)" gradientUnits="userSpaceOnUse">
			<stop  offset="0" style="stop-color:#000000"/>
			<stop  offset="1" style="stop-color:#000000"/>
		</radialGradient>
		<path class="st35" d="M28.327,68.501c0-0.237,2.984-0.429,6.668-0.429c3.685,0,6.669,0.192,6.669,0.429
			c0,0.236-2.984,0.428-6.669,0.428C31.311,68.929,28.327,68.737,28.327,68.501z"/>
		
			<radialGradient id="SVGID_35_" cx="651.728" cy="-6309.1431" r="15.3318" gradientTransform="matrix(0.3156 0 0 0.0357 -170.6899 293.7367)" gradientUnits="userSpaceOnUse">
			<stop  offset="0" style="stop-color:#000000"/>
			<stop  offset="1" style="stop-color:#000000"/>
		</radialGradient>
		<path class="st36" d="M29.032,68.501c0-0.211,2.669-0.38,5.963-0.38c3.296,0,5.964,0.17,5.964,0.38
			c0,0.21-2.668,0.379-5.964,0.379C31.701,68.88,29.032,68.711,29.032,68.501z"/>
		
			<radialGradient id="SVGID_36_" cx="2270.1467" cy="-8767.0352" r="33.3222" gradientTransform="matrix(0.1159 0 0 0.026 -228.1146 296.4432)" gradientUnits="userSpaceOnUse">
			<stop  offset="0" style="stop-color:#000000"/>
			<stop  offset="1" style="stop-color:#000000"/>
		</radialGradient>
		<path class="st37" d="M29.737,68.501c0-0.184,2.353-0.332,5.258-0.332c2.906,0,5.259,0.148,5.259,0.332
			c0,0.183-2.353,0.331-5.259,0.331C32.091,68.832,29.737,68.684,29.737,68.501z"/>
		
			<radialGradient id="SVGID_37_" cx="-3824.9856" cy="-14189.1953" r="40.3563" gradientTransform="matrix(-0.0838 0 0 0.0162 -285.5384 298.3652)" gradientUnits="userSpaceOnUse">
			<stop  offset="0" style="stop-color:#000000"/>
			<stop  offset="1" style="stop-color:#000000"/>
		</radialGradient>
		<path class="st38" d="M30.442,68.501c0-0.157,2.038-0.284,4.553-0.284c2.517,0,4.554,0.127,4.554,0.284
			c0,0.156-2.037,0.282-4.554,0.282C32.48,68.783,30.442,68.657,30.442,68.501z"/>
		
			<radialGradient id="SVGID_38_" cx="-1333.1848" cy="-35780.4297" r="27.2459" gradientTransform="matrix(-0.2835 0 0 0.0065 -342.9626 301.0728)" gradientUnits="userSpaceOnUse">
			<stop  offset="0" style="stop-color:#000000"/>
			<stop  offset="1" style="stop-color:#000000"/>
		</radialGradient>
		<path class="st39" d="M31.147,68.501c0-0.13,1.723-0.235,3.848-0.235c2.127,0,3.849,0.105,3.849,0.235
			c0,0.129-1.722,0.233-3.849,0.233C32.87,68.734,31.147,68.63,31.147,68.501z"/>
		
			<radialGradient id="SVGID_39_" cx="-901.0392" cy="73524.9375" r="41.3681" gradientTransform="matrix(-0.4832 0 0 -0.0032 -400.3868 303.7798)" gradientUnits="userSpaceOnUse">
			<stop  offset="0" style="stop-color:#000000"/>
			<stop  offset="1" style="stop-color:#000000"/>
		</radialGradient>
		<path class="st40" d="M31.852,68.501c0-0.104,1.407-0.187,3.143-0.187c1.737,0,3.144,0.083,3.144,0.187
			c0,0.103-1.406,0.185-3.144,0.185C33.26,68.686,31.852,68.604,31.852,68.501z"/>
		
			<radialGradient id="SVGID_40_" cx="-721.6377" cy="18448.5781" r="7.9456" gradientTransform="matrix(-0.6829 0 0 -0.0129 -457.811 306.4869)" gradientUnits="userSpaceOnUse">
			<stop  offset="0" style="stop-color:#000000"/>
			<stop  offset="1" style="stop-color:#000000"/>
		</radialGradient>
		<path class="st41" d="M32.558,68.501c0-0.077,1.09-0.138,2.437-0.138c1.349,0,2.438,0.061,2.438,0.138
			c0,0.076-1.089,0.137-2.438,0.137C33.648,68.638,32.558,68.577,32.558,68.501z"/>
		
			<radialGradient id="SVGID_41_" cx="-623.42" cy="10650.1963" r="3.107" gradientTransform="matrix(-0.8826 0 0 -0.0226 -515.2352 309.1945)" gradientUnits="userSpaceOnUse">
			<stop  offset="0" style="stop-color:#000000"/>
			<stop  offset="1" style="stop-color:#000000"/>
		</radialGradient>
		<path class="st42" d="M33.263,68.501c0-0.05,0.774-0.09,1.731-0.09c0.959,0,1.732,0.039,1.732,0.09
			c0,0.049-0.773,0.088-1.732,0.088C34.038,68.589,33.263,68.55,33.263,68.501z"/>
		
			<radialGradient id="SVGID_42_" cx="-561.4476" cy="7535.667" r="1.1118" gradientTransform="matrix(-1.0823 0 0 -0.0323 -572.6594 311.902)" gradientUnits="userSpaceOnUse">
			<stop  offset="0" style="stop-color:#000000"/>
			<stop  offset="1" style="stop-color:#000000"/>
		</radialGradient>
		<path class="st43" d="M33.969,68.501c0-0.023,0.459-0.041,1.026-0.041c0.569,0,1.027,0.018,1.027,0.041
			c0,0.022-0.458,0.039-1.027,0.039C34.428,68.54,33.969,68.523,33.969,68.501z"/>
	</g>
	<path class="st44" d="M66.225,33.361C66.225,14.936,51.289,0,32.864,0H0.138c6.852,10.307,3.01,21.959,0.757,29.951
		c-1.286,4.561-1.186,9.412,0.305,13.91c4.398,13.28,16.91,22.862,31.665,22.862C51.289,66.723,66.225,51.786,66.225,33.361z"/>
	<g class="st45">
		<path class="st46" d="M35.749,63.924c-15.795,0-28.645-12.851-28.645-28.645c0-15.795,12.851-28.645,28.645-28.645
			s28.645,12.85,28.645,28.645C64.393,51.073,51.544,63.924,35.749,63.924z"/>
		<path class="st47" d="M35.71,63.89c-15.786,0-28.629-12.843-28.629-28.629c0-15.786,12.843-28.629,28.629-28.629
			c15.786,0,28.628,12.843,28.628,28.629C64.338,51.046,51.496,63.89,35.71,63.89z"/>
		<path class="st48" d="M35.671,63.855c-15.776,0-28.612-12.836-28.612-28.612c0-15.777,12.836-28.612,28.612-28.612
			c15.777,0,28.612,12.835,28.612,28.612C64.283,51.019,51.448,63.855,35.671,63.855z"/>
		<path class="st49" d="M35.633,63.821c-15.769,0-28.597-12.829-28.597-28.596c0-15.768,12.828-28.596,28.597-28.596
			c15.768,0,28.595,12.828,28.595,28.596C64.227,50.992,51.4,63.821,35.633,63.821z"/>
		<path class="st50" d="M35.594,63.787c-15.76,0-28.581-12.821-28.581-28.58c0-15.759,12.821-28.58,28.581-28.58
			c15.759,0,28.579,12.821,28.579,28.58C64.173,50.965,51.352,63.787,35.594,63.787z"/>
		<path class="st51" d="M35.555,63.752c-15.75,0-28.564-12.814-28.564-28.563c0-15.75,12.814-28.563,28.564-28.563
			s28.562,12.813,28.562,28.563C64.117,50.938,51.305,63.752,35.555,63.752z"/>
		<path class="st52" d="M35.515,63.718c-15.741,0-28.548-12.807-28.548-28.547c0-15.741,12.807-28.547,28.548-28.547
			S64.062,19.43,64.062,35.171C64.062,50.911,51.257,63.718,35.515,63.718z"/>
		<path class="st53" d="M35.476,63.684c-15.731,0-28.531-12.8-28.531-28.531c0-15.732,12.8-28.531,28.531-28.531
			c15.732,0,28.53,12.799,28.53,28.531C64.007,50.884,51.209,63.684,35.476,63.684z"/>
		<path class="st54" d="M35.437,63.649c-15.723,0-28.515-12.792-28.515-28.514c0-15.723,12.792-28.515,28.515-28.515
			c15.724,0,28.515,12.792,28.515,28.515C63.952,50.857,51.161,63.649,35.437,63.649z"/>
		<path class="st55" d="M35.399,63.615C19.684,63.615,6.9,50.83,6.9,35.117c0-15.714,12.784-28.498,28.499-28.498
			c15.714,0,28.497,12.784,28.497,28.498C63.896,50.83,51.113,63.615,35.399,63.615z"/>
		<path class="st56" d="M35.36,63.58c-15.705,0-28.482-12.777-28.482-28.481c0-15.705,12.777-28.482,28.482-28.482
			c15.705,0,28.481,12.777,28.481,28.482C63.842,50.803,51.065,63.58,35.36,63.58z"/>
		<path class="st57" d="M35.321,63.546c-15.696,0-28.466-12.77-28.466-28.465c0-15.696,12.77-28.465,28.466-28.465
			s28.465,12.769,28.465,28.465C63.786,50.776,51.017,63.546,35.321,63.546z"/>
		<path class="st58" d="M35.282,63.512c-15.688,0-28.45-12.763-28.45-28.449c0-15.688,12.763-28.45,28.45-28.45
			c15.686,0,28.449,12.762,28.449,28.45C63.731,50.749,50.969,63.512,35.282,63.512z"/>
		<path class="st59" d="M35.243,63.477c-15.678,0-28.434-12.755-28.434-28.432c0-15.678,12.756-28.433,28.434-28.433
			c15.678,0,28.433,12.755,28.433,28.433C63.676,50.722,50.921,63.477,35.243,63.477z"/>
		<path class="st60" d="M35.204,63.443c-15.669,0-28.417-12.748-28.417-28.416c0-15.67,12.748-28.417,28.417-28.417
			c15.669,0,28.417,12.748,28.417,28.417C63.621,50.695,50.873,63.443,35.204,63.443z"/>
		<path class="st61" d="M35.166,63.409c-15.661,0-28.401-12.741-28.401-28.4c0-15.66,12.74-28.4,28.401-28.4
			c15.659,0,28.399,12.74,28.399,28.4C63.565,50.668,50.825,63.409,35.166,63.409z"/>
		<path class="st62" d="M35.127,63.374c-15.651,0-28.385-12.733-28.385-28.383c0-15.651,12.733-28.384,28.385-28.384
			c15.65,0,28.383,12.733,28.383,28.384C63.51,50.641,50.777,63.374,35.127,63.374z"/>
		<path class="st63" d="M35.088,63.34C19.445,63.34,6.72,50.614,6.72,34.973c0-15.642,12.726-28.368,28.368-28.368
			c15.642,0,28.367,12.726,28.367,28.368C63.455,50.614,50.729,63.34,35.088,63.34z"/>
		<path class="st64" d="M35.049,63.306c-15.633,0-28.352-12.719-28.352-28.351c0-15.633,12.719-28.352,28.352-28.352
			s28.351,12.718,28.351,28.352C63.399,50.586,50.681,63.306,35.049,63.306z"/>
		<path class="st65" d="M35.01,63.271c-15.624,0-28.335-12.711-28.335-28.334c0-15.624,12.711-28.335,28.335-28.335
			c15.624,0,28.335,12.711,28.335,28.335C63.345,50.56,50.634,63.271,35.01,63.271z"/>
		<path class="st66" d="M34.971,63.237c-15.615,0-28.319-12.704-28.319-28.318C6.651,19.303,19.355,6.6,34.971,6.6
			c15.615,0,28.318,12.704,28.318,28.319C63.289,50.533,50.586,63.237,34.971,63.237z"/>
		<path class="st67" d="M34.932,63.203c-15.606,0-28.304-12.697-28.304-28.302c0-15.606,12.697-28.303,28.304-28.303
			c15.605,0,28.302,12.696,28.302,28.303C63.234,50.505,50.538,63.203,34.932,63.203z"/>
		<path class="st68" d="M34.893,63.168c-15.598,0-28.287-12.689-28.287-28.286c0-15.597,12.689-28.286,28.287-28.286
			c15.597,0,28.285,12.689,28.285,28.286C63.179,50.479,50.49,63.168,34.893,63.168z"/>
		<path class="st69" d="M34.854,63.134c-15.589,0-28.271-12.682-28.271-28.27c0-15.588,12.682-28.27,28.271-28.27
			c15.588,0,28.269,12.682,28.269,28.27C63.124,50.452,50.442,63.134,34.854,63.134z"/>
		<path class="st70" d="M34.815,63.1c-15.579,0-28.254-12.675-28.254-28.253c0-15.579,12.675-28.254,28.254-28.254
			s28.253,12.675,28.253,28.254C63.068,50.424,50.394,63.1,34.815,63.1z"/>
		<circle class="st71" cx="34.776" cy="34.828" r="28.237"/>
		<path class="st72" d="M34.737,63.031c-15.561,0-28.221-12.661-28.221-28.221c0-15.561,12.66-28.221,28.221-28.221
			c15.562,0,28.221,12.66,28.221,28.221C62.958,50.37,50.299,63.031,34.737,63.031z"/>
		<path class="st73" d="M34.699,62.996c-15.553,0-28.205-12.653-28.205-28.204c0-15.552,12.652-28.205,28.205-28.205
			c15.552,0,28.204,12.652,28.204,28.205C62.903,50.343,50.251,62.996,34.699,62.996z"/>
		<path class="st74" d="M34.66,62.962c-15.544,0-28.189-12.646-28.189-28.188c0-15.543,12.646-28.188,28.189-28.188
			c15.543,0,28.188,12.646,28.188,28.188C62.847,50.316,50.203,62.962,34.66,62.962z"/>
		<path class="st75" d="M34.621,62.928c-15.534,0-28.173-12.639-28.173-28.172c0-15.534,12.639-28.172,28.173-28.172
			s28.171,12.638,28.171,28.172C62.792,50.289,50.155,62.928,34.621,62.928z"/>
		<path class="st76" d="M34.582,62.893c-15.525,0-28.156-12.631-28.156-28.155c0-15.525,12.631-28.156,28.156-28.156
			s28.155,12.631,28.155,28.156C62.737,50.262,50.107,62.893,34.582,62.893z"/>
		<path class="st77" d="M34.543,62.859c-15.517,0-28.14-12.623-28.14-28.139c0-15.516,12.623-28.139,28.14-28.139
			S62.681,19.204,62.681,34.72C62.681,50.235,50.059,62.859,34.543,62.859z"/>
		
			<ellipse transform="matrix(0.7071 -0.7071 0.7071 0.7071 -14.4319 34.5617)" class="st78" cx="34.504" cy="34.702" rx="28.123" ry="28.123"/>
		<path class="st79" d="M34.466,62.79c-15.499,0-28.107-12.609-28.107-28.106c0-15.498,12.608-28.107,28.107-28.107
			c15.498,0,28.105,12.609,28.105,28.107C62.571,50.181,49.964,62.79,34.466,62.79z"/>
		<path class="st80" d="M34.427,62.756c-15.49,0-28.091-12.602-28.091-28.09c0-15.489,12.601-28.09,28.091-28.09
			c15.489,0,28.09,12.601,28.09,28.09C62.516,50.154,49.916,62.756,34.427,62.756z"/>
		<path class="st81" d="M34.388,62.722c-15.481,0-28.074-12.595-28.074-28.074c0-15.48,12.594-28.074,28.074-28.074
			c15.48,0,28.073,12.594,28.073,28.074C62.461,50.127,49.868,62.722,34.388,62.722z"/>
		<path class="st82" d="M34.348,62.687C18.877,62.687,6.29,50.1,6.29,34.63c0-15.472,12.587-28.058,28.059-28.058
			c15.471,0,28.058,12.586,28.058,28.058C62.406,50.1,49.819,62.687,34.348,62.687z"/>
		<path class="st83" d="M34.309,62.653c-15.462,0-28.042-12.58-28.042-28.041c0-15.462,12.58-28.042,28.042-28.042
			c15.462,0,28.041,12.58,28.041,28.042C62.35,50.073,49.771,62.653,34.309,62.653z"/>
		<path class="st84" d="M34.27,62.619c-15.453,0-28.025-12.573-28.025-28.025c0-15.454,12.572-28.025,28.025-28.025
			c15.453,0,28.025,12.572,28.025,28.025C62.296,50.046,49.723,62.619,34.27,62.619z"/>
		<path class="st85" d="M34.232,62.584c-15.445,0-28.01-12.565-28.01-28.008c0-15.444,12.564-28.009,28.01-28.009
			c15.443,0,28.008,12.565,28.008,28.009C62.24,50.019,49.676,62.584,34.232,62.584z"/>
		<path class="st86" d="M34.193,62.55C18.758,62.55,6.2,49.992,6.2,34.558c0-15.435,12.558-27.993,27.993-27.993
			c15.435,0,27.992,12.558,27.992,27.993C62.185,49.992,49.628,62.55,34.193,62.55z"/>
		<path class="st87" d="M34.154,62.516c-15.427,0-27.977-12.551-27.977-27.976c0-15.427,12.55-27.977,27.977-27.977
			c15.426,0,27.976,12.55,27.976,27.977C62.13,49.965,49.58,62.516,34.154,62.516z"/>
		<path class="st88" d="M34.115,62.481c-15.418,0-27.96-12.543-27.96-27.959c0-15.417,12.542-27.96,27.96-27.96
			c15.417,0,27.96,12.543,27.96,27.96C62.075,49.938,49.532,62.481,34.115,62.481z"/>
		
			<ellipse transform="matrix(0.0367 -0.9993 0.9993 0.0367 -1.6531 67.2918)" class="st89" cx="34.076" cy="34.503" rx="27.944" ry="27.943"/>
		<path class="st90" d="M34.037,62.413c-15.399,0-27.928-12.529-27.928-27.927c0-15.399,12.528-27.928,27.928-27.928
			s27.927,12.528,27.927,27.928C61.964,49.884,49.436,62.413,34.037,62.413z"/>
		<path class="st91" d="M33.999,62.378c-15.392,0-27.912-12.521-27.912-27.911c0-15.391,12.521-27.911,27.912-27.911
			c15.39,0,27.91,12.521,27.91,27.911C61.909,49.857,49.388,62.378,33.999,62.378z"/>
		<path class="st92" d="M33.96,62.344c-15.382,0-27.896-12.514-27.896-27.895c0-15.381,12.514-27.895,27.896-27.895
			c15.381,0,27.894,12.514,27.894,27.895C61.853,49.83,49.341,62.344,33.96,62.344z"/>
		<path class="st93" d="M33.921,62.309c-15.373,0-27.879-12.506-27.879-27.878c0-15.373,12.506-27.878,27.879-27.878
			c15.372,0,27.878,12.506,27.878,27.878C61.799,49.803,49.293,62.309,33.921,62.309z"/>
		<path class="st94" d="M33.882,62.275c-15.363,0-27.862-12.5-27.862-27.862c0-15.363,12.499-27.862,27.862-27.862
			S61.743,19.05,61.743,34.413C61.743,49.775,49.245,62.275,33.882,62.275z"/>
		<path class="st95" d="M33.843,62.241c-15.355,0-27.846-12.492-27.846-27.846c0-15.354,12.491-27.846,27.846-27.846
			c15.354,0,27.846,12.492,27.846,27.846C61.688,49.749,49.197,62.241,33.843,62.241z"/>
		<path class="st96" d="M33.804,62.206c-15.346,0-27.829-12.484-27.829-27.829c0-15.345,12.483-27.83,27.829-27.83
			s27.829,12.484,27.829,27.83C61.633,49.722,49.149,62.206,33.804,62.206z"/>
		<path class="st97" d="M33.765,62.172c-15.337,0-27.813-12.478-27.813-27.813c0-15.336,12.477-27.813,27.813-27.813
			c15.336,0,27.813,12.477,27.813,27.813C61.578,49.694,49.101,62.172,33.765,62.172z"/>
		<path class="st98" d="M33.726,62.138c-15.328,0-27.798-12.47-27.798-27.797c0-15.328,12.47-27.797,27.798-27.797
			c15.327,0,27.796,12.469,27.796,27.797C61.522,49.667,49.054,62.138,33.726,62.138z"/>
		<path class="st99" d="M33.687,62.103c-15.319,0-27.781-12.462-27.781-27.78c0-15.318,12.462-27.781,27.781-27.781
			c15.318,0,27.78,12.462,27.78,27.781C61.468,49.641,49.006,62.103,33.687,62.103z"/>
		<path class="st100" d="M33.648,62.069c-15.31,0-27.765-12.456-27.765-27.764c0-15.31,12.455-27.764,27.765-27.764
			s27.764,12.455,27.764,27.764C61.412,49.613,48.958,62.069,33.648,62.069z"/>
		
			<ellipse transform="matrix(0.2325 -0.9726 0.9726 0.2325 -7.5523 59.0027)" class="st101" cx="33.609" cy="34.287" rx="27.748" ry="27.748"/>
		<path class="st102" d="M33.57,62C18.279,62,5.839,49.559,5.839,34.269c0-15.292,12.441-27.732,27.731-27.732
			c15.292,0,27.731,12.441,27.731,27.732C61.302,49.559,48.862,62,33.57,62z"/>
		<path class="st103" d="M33.532,61.966c-15.283,0-27.716-12.434-27.716-27.715c0-15.282,12.433-27.715,27.716-27.715
			c15.282,0,27.714,12.433,27.714,27.715C61.246,49.532,48.814,61.966,33.532,61.966z"/>
		<path class="st104" d="M33.493,61.932c-15.274,0-27.699-12.426-27.699-27.699c0-15.273,12.425-27.699,27.699-27.699
			c15.273,0,27.698,12.426,27.698,27.699C61.191,49.505,48.766,61.932,33.493,61.932z"/>
		<path class="st105" d="M33.454,61.897c-15.265,0-27.683-12.419-27.683-27.683c0-15.264,12.418-27.683,27.683-27.683
			c15.265,0,27.682,12.418,27.682,27.683C61.136,49.478,48.719,61.897,33.454,61.897z"/>
		<path class="st106" d="M33.415,61.863c-15.256,0-27.667-12.412-27.667-27.666c0-15.256,12.411-27.667,27.667-27.667
			c15.255,0,27.666,12.411,27.666,27.667C61.081,49.451,48.67,61.863,33.415,61.863z"/>
		<path class="st107" d="M33.376,61.829c-15.247,0-27.65-12.404-27.65-27.65c0-15.247,12.403-27.65,27.65-27.65
			c15.246,0,27.649,12.403,27.649,27.65C61.025,49.424,48.622,61.829,33.376,61.829z"/>
		<path class="st108" d="M33.337,61.794c-15.237,0-27.634-12.397-27.634-27.633c0-15.238,12.396-27.634,27.634-27.634
			s27.634,12.396,27.634,27.634C60.971,49.397,48.574,61.794,33.337,61.794z"/>
		<path class="st109" d="M33.299,61.76C18.069,61.76,5.68,49.37,5.68,34.143c0-15.229,12.389-27.618,27.618-27.618
			c15.228,0,27.616,12.389,27.616,27.618C60.915,49.37,48.526,61.76,33.299,61.76z"/>
		<path class="st110" d="M33.26,61.725c-15.221,0-27.601-12.382-27.601-27.601c0-15.22,12.381-27.602,27.601-27.602
			c15.219,0,27.601,12.382,27.601,27.602C60.86,49.343,48.478,61.725,33.26,61.725z"/>
		<path class="st111" d="M33.221,61.691c-15.211,0-27.585-12.375-27.585-27.584c0-15.211,12.374-27.585,27.585-27.585
			c15.21,0,27.584,12.375,27.584,27.585C60.805,49.316,48.43,61.691,33.221,61.691z"/>
		<path class="st112" d="M33.181,61.657c-15.202,0-27.568-12.368-27.568-27.568c0-15.202,12.366-27.569,27.568-27.569
			c15.201,0,27.568,12.367,27.568,27.569C60.75,49.289,48.383,61.657,33.181,61.657z"/>
		<path class="st113" d="M33.142,61.622c-15.192,0-27.552-12.36-27.552-27.552c0-15.193,12.359-27.553,27.552-27.553
			c15.192,0,27.552,12.36,27.552,27.553C60.694,49.262,48.335,61.622,33.142,61.622z"/>
		<path class="st114" d="M33.103,61.588c-15.184,0-27.536-12.353-27.536-27.536c0-15.184,12.352-27.536,27.536-27.536
			c15.184,0,27.536,12.353,27.536,27.536C60.639,49.235,48.287,61.588,33.103,61.588z"/>
		<path class="st115" d="M33.065,61.554c-15.176,0-27.521-12.346-27.521-27.52c0-15.175,12.345-27.52,27.521-27.52
			c15.174,0,27.519,12.345,27.519,27.52C60.584,49.208,48.239,61.554,33.065,61.554z"/>
		<path class="st116" d="M33.026,61.519c-15.166,0-27.504-12.338-27.504-27.503c0-15.166,12.338-27.503,27.504-27.503
			c15.165,0,27.503,12.338,27.503,27.503C60.529,49.181,48.191,61.519,33.026,61.519z"/>
		<path d="M32.987,61.485C17.83,61.485,5.5,49.154,5.5,33.998c0-15.157,12.33-27.487,27.487-27.487
			c15.156,0,27.486,12.33,27.486,27.487C60.473,49.154,48.143,61.485,32.987,61.485z"/>
	</g>
	<linearGradient id="SVGID_43_" gradientUnits="userSpaceOnUse" x1="13.7184" y1="14.7295" x2="52.5727" y2="53.5838">
		<stop  offset="0" style="stop-color:#C3C4C3"/>
		<stop  offset="0.2166" style="stop-color:#DADADA"/>
		<stop  offset="0.4838" style="stop-color:#EEEFEE"/>
		<stop  offset="0.7471" style="stop-color:#FBFBFB"/>
		<stop  offset="1" style="stop-color:#FFFFFF"/>
	</linearGradient>
	<path class="st117" d="M32.987,61.485C17.83,61.485,5.5,49.154,5.5,33.998c0-15.157,12.33-27.487,27.487-27.487
		c15.156,0,27.486,12.33,27.486,27.487C60.473,49.154,48.143,61.485,32.987,61.485z"/>
	<path id="g4780_1_" class="st44" d="M42.845,41.029c1.087,0.871,2.456,1.6,1.807,3.43c-0.67,1.904-3.005,3.825-4.997,3.804
		c-0.279-0.076-0.834-0.162-1.334-0.376c-8.746-3.768-15.101-9.939-18.713-18.805c-1.211-2.973,0.053-5.481,3.103-6.508
		c0.548-0.184,1.084-0.195,1.623,0.002c1.302,0.479,4.598,5.014,4.672,6.372c0.057,1.039-0.652,1.603-1.353,2.079
		c-1.325,0.901-1.333,2.045-0.766,3.316c1.279,2.879,3.468,4.858,6.299,6.143c1.027,0.467,2.011,0.418,2.712-0.643
		c1.251-1.893,2.784-1.801,4.458-0.625C41.196,39.808,42.051,40.386,42.845,41.029L42.845,41.029z M33.038,23.135
		c6.395,0.983,9.345,4.024,10.16,10.468c0.075,0.595-0.147,1.489,0.701,1.508c0.887,0.016,0.674-0.867,0.682-1.463
		c0.074-6.066-5.214-11.691-11.359-11.897c-0.462,0.067-1.421-0.319-1.481,0.718C31.7,23.171,32.509,23.055,33.038,23.135
		L33.038,23.135z M34.288,24.902c-0.615-0.074-1.426-0.364-1.57,0.49c-0.15,0.895,0.756,0.806,1.338,0.935
		c3.95,0.882,5.325,2.319,5.974,6.239c0.098,0.571-0.092,1.46,0.879,1.312c0.718-0.108,0.46-0.87,0.519-1.316
		C41.46,28.8,38.235,25.376,34.288,24.902L34.288,24.902z M34.651,27.979c-0.41,0.011-0.814,0.054-0.965,0.492
		c-0.227,0.655,0.252,0.812,0.736,0.89c1.62,0.262,2.474,1.217,2.635,2.832c0.042,0.439,0.322,0.793,0.746,0.744
		c0.588-0.071,0.639-0.594,0.621-1.089C38.454,30.033,36.403,27.936,34.651,27.979L34.651,27.979z"/>
</g>
</svg>