<!-- Generator: Adobe Illustrator 22.0.1, SVG Export Plug-In  -->
<svg version="1.1"
	 xmlns="http://www.w3.org/2000/svg" xmlns:xlink="http://www.w3.org/1999/xlink" xmlns:a="http://ns.adobe.com/AdobeSVGViewerExtensions/3.0/"
	 x="0px" y="0px" width="66.723px" height="70.28px" viewBox="0 0 66.723 70.28" style="enable-background:new 0 0 66.723 70.28;"
	 xml:space="preserve">
<style type="text/css">
	.st0{opacity:0.3;}
	.st1{opacity:0;fill:url(#SVGID_1_);}
	.st2{opacity:0.0244;fill:url(#SVGID_2_);}
	.st3{opacity:0.0488;fill:url(#SVGID_3_);}
	.st4{opacity:0.0732;fill:url(#SVGID_4_);}
	.st5{opacity:0.0976;fill:url(#SVGID_5_);}
	.st6{opacity:0.122;fill:url(#SVGID_6_);}
	.st7{opacity:0.1463;fill:url(#SVGID_7_);}
	.st8{opacity:0.1707;fill:url(#SVGID_8_);}
	.st9{opacity:0.1951;fill:url(#SVGID_9_);}
	.st10{opacity:0.2195;fill:url(#SVGID_10_);}
	.st11{opacity:0.2439;fill:url(#SVGID_11_);}
	.st12{opacity:0.2683;fill:url(#SVGID_12_);}
	.st13{opacity:0.2927;fill:url(#SVGID_13_);}
	.st14{opacity:0.3171;fill:url(#SVGID_14_);}
	.st15{opacity:0.3415;fill:url(#SVGID_15_);}
	.st16{opacity:0.3659;fill:url(#SVGID_16_);}
	.st17{opacity:0.3902;fill:url(#SVGID_17_);}
	.st18{opacity:0.4146;fill:url(#SVGID_18_);}
	.st19{opacity:0.439;fill:url(#SVGID_19_);}
	.st20{opacity:0.4634;fill:url(#SVGID_20_);}
	.st21{opacity:0.4878;fill:url(#SVGID_21_);}
	.st22{opacity:0.5122;fill:url(#SVGID_22_);}
	.st23{opacity:0.5366;fill:url(#SVGID_23_);}
	.st24{opacity:0.561;fill:url(#SVGID_24_);}
	.st25{opacity:0.5854;fill:url(#SVGID_25_);}
	.st26{opacity:0.6098;fill:url(#SVGID_26_);}
	.st27{opacity:0.6341;fill:url(#SVGID_27_);}
	.st28{opacity:0.6585;fill:url(#SVGID_28_);}
	.st29{opacity:0.6829;fill:url(#SVGID_29_);}
	.st30{opacity:0.7073;fill:url(#SVGID_30_);}
	.st31{opacity:0.7317;fill:url(#SVGID_31_);}
	.st32{opacity:0.7561;fill:url(#SVGID_32_);}
	.st33{opacity:0.7805;fill:url(#SVGID_33_);}
	.st34{opacity:0.8049;fill:url(#SVGID_34_);}
	.st35{opacity:0.8293;fill:url(#SVGID_35_);}
	.st36{opacity:0.8537;fill:url(#SVGID_36_);}
	.st37{opacity:0.878;fill:url(#SVGID_37_);}
	.st38{opacity:0.9024;fill:url(#SVGID_38_);}
	.st39{opacity:0.9268;fill:url(#SVGID_39_);}
	.st40{opacity:0.9512;fill:url(#SVGID_40_);}
	.st41{opacity:0.9756;fill:url(#SVGID_41_);}
	.st42{fill:url(#SVGID_42_);}
	.st43{fill:url(#SVGID_43_);}
	.st44{opacity:0.7;}
	.st45{opacity:0;}
	.st46{opacity:0.0141;}
	.st47{opacity:0.0282;}
	.st48{opacity:0.0423;}
	.st49{opacity:0.0563;}
	.st50{opacity:0.0704;}
	.st51{opacity:0.0845;}
	.st52{opacity:0.0986;}
	.st53{opacity:0.1127;}
	.st54{opacity:0.1268;}
	.st55{opacity:0.1408;}
	.st56{opacity:0.1549;}
	.st57{opacity:0.169;}
	.st58{opacity:0.1831;}
	.st59{opacity:0.1972;}
	.st60{opacity:0.2113;}
	.st61{opacity:0.2254;}
	.st62{opacity:0.2394;}
	.st63{opacity:0.2535;}
	.st64{opacity:0.2676;}
	.st65{opacity:0.2817;}
	.st66{opacity:0.2958;}
	.st67{opacity:0.3099;}
	.st68{opacity:0.3239;}
	.st69{opacity:0.338;}
	.st70{opacity:0.3521;}
	.st71{opacity:0.3662;}
	.st72{opacity:0.3803;}
	.st73{opacity:0.3944;}
	.st74{opacity:0.4085;}
	.st75{opacity:0.4225;}
	.st76{opacity:0.4366;}
	.st77{opacity:0.4507;}
	.st78{opacity:0.4648;}
	.st79{opacity:0.4789;}
	.st80{opacity:0.493;}
	.st81{opacity:0.507;}
	.st82{opacity:0.5211;}
	.st83{opacity:0.5352;}
	.st84{opacity:0.5493;}
	.st85{opacity:0.5634;}
	.st86{opacity:0.5775;}
	.st87{opacity:0.5915;}
	.st88{opacity:0.6056;}
	.st89{opacity:0.6197;}
	.st90{opacity:0.6338;}
	.st91{opacity:0.6479;}
	.st92{opacity:0.662;}
	.st93{opacity:0.6761;}
	.st94{opacity:0.6901;}
	.st95{opacity:0.7042;}
	.st96{opacity:0.7183;}
	.st97{opacity:0.7324;}
	.st98{opacity:0.7465;}
	.st99{opacity:0.7606;}
	.st100{opacity:0.7746;}
	.st101{opacity:0.7887;}
	.st102{opacity:0.8028;}
	.st103{opacity:0.8169;}
	.st104{opacity:0.831;}
	.st105{opacity:0.8451;}
	.st106{opacity:0.8592;}
	.st107{opacity:0.8732;}
	.st108{opacity:0.8873;}
	.st109{opacity:0.9014;}
	.st110{opacity:0.9155;}
	.st111{opacity:0.9296;}
	.st112{opacity:0.9437;}
	.st113{opacity:0.9577;}
	.st114{opacity:0.9718;}
	.st115{opacity:0.9859;}
	.st116{fill:url(#SVGID_44_);stroke:#FFFFFF;stroke-width:0.7398;stroke-miterlimit:10;}
	.st117{fill:url(#SVGID_45_);}
	.st118{opacity:0;fill:url(#SVGID_46_);}
	.st119{opacity:0.0244;fill:url(#SVGID_47_);}
	.st120{opacity:0.0488;fill:url(#SVGID_48_);}
	.st121{opacity:0.0732;fill:url(#SVGID_49_);}
	.st122{opacity:0.0976;fill:url(#SVGID_50_);}
	.st123{opacity:0.122;fill:url(#SVGID_51_);}
	.st124{opacity:0.1463;fill:url(#SVGID_52_);}
	.st125{opacity:0.1707;fill:url(#SVGID_53_);}
	.st126{opacity:0.1951;fill:url(#SVGID_54_);}
	.st127{opacity:0.2195;fill:url(#SVGID_55_);}
	.st128{opacity:0.2439;fill:url(#SVGID_56_);}
	.st129{opacity:0.2683;fill:url(#SVGID_57_);}
	.st130{opacity:0.2927;fill:url(#SVGID_58_);}
	.st131{opacity:0.3171;fill:url(#SVGID_59_);}
	.st132{opacity:0.3415;fill:url(#SVGID_60_);}
	.st133{opacity:0.3659;fill:url(#SVGID_61_);}
	.st134{opacity:0.3902;fill:url(#SVGID_62_);}
	.st135{opacity:0.4146;fill:url(#SVGID_63_);}
	.st136{opacity:0.439;fill:url(#SVGID_64_);}
	.st137{opacity:0.4634;fill:url(#SVGID_65_);}
	.st138{opacity:0.4878;fill:url(#SVGID_66_);}
	.st139{opacity:0.5122;fill:url(#SVGID_67_);}
	.st140{opacity:0.5366;fill:url(#SVGID_68_);}
	.st141{opacity:0.561;fill:url(#SVGID_69_);}
	.st142{opacity:0.5854;fill:url(#SVGID_70_);}
	.st143{opacity:0.6098;fill:url(#SVGID_71_);}
	.st144{opacity:0.6341;fill:url(#SVGID_72_);}
	.st145{opacity:0.6585;fill:url(#SVGID_73_);}
	.st146{opacity:0.6829;fill:url(#SVGID_74_);}
	.st147{opacity:0.7073;fill:url(#SVGID_75_);}
	.st148{opacity:0.7317;fill:url(#SVGID_76_);}
	.st149{opacity:0.7561;fill:url(#SVGID_77_);}
	.st150{opacity:0.7805;fill:url(#SVGID_78_);}
	.st151{opacity:0.8049;fill:url(#SVGID_79_);}
	.st152{opacity:0.8293;fill:url(#SVGID_80_);}
	.st153{opacity:0.8537;fill:url(#SVGID_81_);}
	.st154{opacity:0.878;fill:url(#SVGID_82_);}
	.st155{opacity:0.9024;fill:url(#SVGID_83_);}
	.st156{opacity:0.9268;fill:url(#SVGID_84_);}
	.st157{opacity:0.9512;fill:url(#SVGID_85_);}
	.st158{opacity:0.9756;fill:url(#SVGID_86_);}
	.st159{fill:url(#SVGID_87_);}
	.st160{fill:url(#SVGID_88_);}
	.st161{fill:url(#SVGID_89_);stroke:#FFFFFF;stroke-width:0.7398;stroke-miterlimit:10;}
	.st162{fill:url(#SVGID_90_);}
</style>
<defs>
</defs>
<g>
	<g class="st0">
		
			<radialGradient id="SVGID_1_" cx="-474.0569" cy="-286.4754" r="4.9234" gradientTransform="matrix(7.1054 0 0 0.3658 3403.6077 173.0453)" gradientUnits="userSpaceOnUse">
			<stop  offset="0" style="stop-color:#000000"/>
			<stop  offset="1" style="stop-color:#000000"/>
		</radialGradient>
		<path class="st1" d="M65.187,68.252c0,1.119-13.405,2.028-29.942,2.028c-16.537,0-29.942-0.909-29.942-2.028
			c0-1.12,13.405-2.027,29.942-2.027C51.781,66.225,65.187,67.132,65.187,68.252z"/>
		
			<radialGradient id="SVGID_2_" cx="-471.7716" cy="-300.5538" r="4.9405" gradientTransform="matrix(6.9057 0 0 0.3561 3293.157 175.2799)" gradientUnits="userSpaceOnUse">
			<stop  offset="0" style="stop-color:#000000"/>
			<stop  offset="1" style="stop-color:#000000"/>
		</radialGradient>
		<path class="st2" d="M6.007,68.252c0-1.093,13.09-1.979,29.237-1.979c16.147,0,29.237,0.886,29.237,1.979
			c0,1.092-13.09,1.979-29.237,1.979C19.097,70.232,6.007,69.345,6.007,68.252z"/>
		
			<radialGradient id="SVGID_3_" cx="-469.3467" cy="-315.4185" r="4.9582" gradientTransform="matrix(6.706 0 0 0.3464 3182.6831 177.5134)" gradientUnits="userSpaceOnUse">
			<stop  offset="0" style="stop-color:#000000"/>
			<stop  offset="1" style="stop-color:#000000"/>
		</radialGradient>
		<ellipse class="st3" cx="35.244" cy="68.252" rx="28.532" ry="1.931"/>
		
			<radialGradient id="SVGID_4_" cx="-466.773" cy="-331.1383" r="4.9767" gradientTransform="matrix(6.5063 0 0 0.3367 3072.2092 179.7469)" gradientUnits="userSpaceOnUse">
			<stop  offset="0" style="stop-color:#000000"/>
			<stop  offset="1" style="stop-color:#000000"/>
		</radialGradient>
		<path class="st4" d="M7.418,68.252c0-1.04,12.457-1.882,27.826-1.882c15.369,0,27.826,0.842,27.826,1.882
			c0,1.039-12.457,1.882-27.826,1.882C19.875,70.135,7.418,69.291,7.418,68.252z"/>
		
			<radialGradient id="SVGID_5_" cx="-464.0363" cy="-347.7899" r="4.9971" gradientTransform="matrix(6.3066 0 0 0.327 2961.7354 181.9799)" gradientUnits="userSpaceOnUse">
			<stop  offset="0" style="stop-color:#000000"/>
			<stop  offset="1" style="stop-color:#000000"/>
		</radialGradient>
		<path class="st5" d="M8.123,68.252c0-1.013,12.142-1.834,27.121-1.834c14.979,0,27.121,0.82,27.121,1.834
			c0,1.012-12.142,1.834-27.121,1.834C20.265,70.086,8.123,69.265,8.123,68.252z"/>
		
			<radialGradient id="SVGID_6_" cx="-461.1206" cy="-365.4634" r="5.0182" gradientTransform="matrix(6.1069 0 0 0.3173 2851.2615 184.2139)" gradientUnits="userSpaceOnUse">
			<stop  offset="0" style="stop-color:#000000"/>
			<stop  offset="1" style="stop-color:#000000"/>
		</radialGradient>
		<ellipse class="st6" cx="35.244" cy="68.252" rx="26.416" ry="1.785"/>
		
			<radialGradient id="SVGID_7_" cx="-458.0078" cy="-381.802" r="5.0421" gradientTransform="matrix(5.9072 0 0 0.3075 2740.7876 185.6565)" gradientUnits="userSpaceOnUse">
			<stop  offset="0" style="stop-color:#000000"/>
			<stop  offset="1" style="stop-color:#000000"/>
		</radialGradient>
		<ellipse class="st7" cx="35.244" cy="68.252" rx="25.711" ry="1.737"/>
		
			<radialGradient id="SVGID_8_" cx="-454.6771" cy="-401.7382" r="5.0667" gradientTransform="matrix(5.7075 0 0 0.2978 2630.3137 187.89)" gradientUnits="userSpaceOnUse">
			<stop  offset="0" style="stop-color:#000000"/>
			<stop  offset="1" style="stop-color:#000000"/>
		</radialGradient>
		<ellipse class="st8" cx="35.244" cy="68.252" rx="25.006" ry="1.689"/>
		
			<radialGradient id="SVGID_9_" cx="-451.1049" cy="-423.017" r="5.092" gradientTransform="matrix(5.5078 0 0 0.2881 2519.8396 190.1236)" gradientUnits="userSpaceOnUse">
			<stop  offset="0" style="stop-color:#000000"/>
			<stop  offset="1" style="stop-color:#000000"/>
		</radialGradient>
		<path class="st9" d="M10.943,68.252c0-0.906,10.88-1.64,24.301-1.64s24.301,0.733,24.301,1.64c0,0.905-10.88,1.64-24.301,1.64
			S10.943,69.158,10.943,68.252z"/>
		
			<radialGradient id="SVGID_10_" cx="-447.2639" cy="-445.7765" r="5.12" gradientTransform="matrix(5.3081 0 0 0.2784 2409.3657 192.3566)" gradientUnits="userSpaceOnUse">
			<stop  offset="0" style="stop-color:#000000"/>
			<stop  offset="1" style="stop-color:#000000"/>
		</radialGradient>
		<ellipse class="st10" cx="35.244" cy="68.252" rx="23.595" ry="1.591"/>
		
			<radialGradient id="SVGID_11_" cx="-443.1227" cy="-470.1812" r="5.1504" gradientTransform="matrix(5.1084 0 0 0.2687 2298.8918 194.5901)" gradientUnits="userSpaceOnUse">
			<stop  offset="0" style="stop-color:#000000"/>
			<stop  offset="1" style="stop-color:#000000"/>
		</radialGradient>
		<ellipse class="st11" cx="35.244" cy="68.252" rx="22.89" ry="1.543"/>
		
			<radialGradient id="SVGID_12_" cx="-438.6444" cy="-496.414" r="5.1829" gradientTransform="matrix(4.9087 0 0 0.259 2188.418 196.8236)" gradientUnits="userSpaceOnUse">
			<stop  offset="0" style="stop-color:#000000"/>
			<stop  offset="1" style="stop-color:#000000"/>
		</radialGradient>
		<ellipse class="st12" cx="35.244" cy="68.252" rx="22.185" ry="1.495"/>
		
			<radialGradient id="SVGID_13_" cx="-433.7863" cy="-524.6891" r="5.2178" gradientTransform="matrix(4.709 0 0 0.2493 2077.9441 199.0571)" gradientUnits="userSpaceOnUse">
			<stop  offset="0" style="stop-color:#000000"/>
			<stop  offset="1" style="stop-color:#000000"/>
		</radialGradient>
		<path class="st13" d="M13.765,68.252c0-0.799,9.616-1.446,21.479-1.446c11.863,0,21.479,0.647,21.479,1.446
			c0,0.798-9.616,1.446-21.479,1.446C23.381,69.698,13.765,69.051,13.765,68.252z"/>
		
			<radialGradient id="SVGID_14_" cx="-428.498" cy="-555.2515" r="5.2557" gradientTransform="matrix(4.5093 0 0 0.2396 1967.4702 201.2907)" gradientUnits="userSpaceOnUse">
			<stop  offset="0" style="stop-color:#000000"/>
			<stop  offset="1" style="stop-color:#000000"/>
		</radialGradient>
		<ellipse class="st14" cx="35.244" cy="68.252" rx="20.774" ry="1.398"/>
		
			<radialGradient id="SVGID_15_" cx="-422.7195" cy="-588.3918" r="5.2973" gradientTransform="matrix(4.3096 0 0 0.2299 1856.9962 203.5237)" gradientUnits="userSpaceOnUse">
			<stop  offset="0" style="stop-color:#000000"/>
			<stop  offset="1" style="stop-color:#000000"/>
		</radialGradient>
		<ellipse class="st15" cx="35.244" cy="68.252" rx="20.069" ry="1.349"/>
		
			<radialGradient id="SVGID_16_" cx="-416.3795" cy="-624.4575" r="5.3423" gradientTransform="matrix(4.1099 0 0 0.2202 1746.5223 205.7577)" gradientUnits="userSpaceOnUse">
			<stop  offset="0" style="stop-color:#000000"/>
			<stop  offset="1" style="stop-color:#000000"/>
		</radialGradient>
		<path class="st16" d="M15.881,68.252c0-0.719,8.668-1.301,19.363-1.301c10.695,0,19.363,0.582,19.363,1.301
			c0,0.718-8.668,1.3-19.363,1.3C24.549,69.553,15.881,68.97,15.881,68.252z"/>
		
			<radialGradient id="SVGID_17_" cx="-409.3919" cy="-660.3998" r="5.3938" gradientTransform="matrix(3.9102 0 0 0.2104 1636.0485 207.2003)" gradientUnits="userSpaceOnUse">
			<stop  offset="0" style="stop-color:#000000"/>
			<stop  offset="1" style="stop-color:#000000"/>
		</radialGradient>
		<path class="st17" d="M16.586,68.252c0-0.692,8.353-1.252,18.658-1.252c10.306,0,18.658,0.56,18.658,1.252
			c0,0.691-8.353,1.252-18.658,1.252C24.938,69.504,16.586,68.944,16.586,68.252z"/>
		
			<radialGradient id="SVGID_18_" cx="-401.6522" cy="-703.4461" r="5.4493" gradientTransform="matrix(3.7105 0 0 0.2007 1525.5745 209.4338)" gradientUnits="userSpaceOnUse">
			<stop  offset="0" style="stop-color:#000000"/>
			<stop  offset="1" style="stop-color:#000000"/>
		</radialGradient>
		<path class="st18" d="M17.291,68.252c0-0.666,8.037-1.204,17.953-1.204c9.916,0,17.953,0.539,17.953,1.204
			c0,0.664-8.037,1.204-17.953,1.204C25.328,69.456,17.291,68.917,17.291,68.252z"/>
		
			<radialGradient id="SVGID_19_" cx="-393.0319" cy="-750.8652" r="5.5094" gradientTransform="matrix(3.5108 0 0 0.191 1415.1006 211.6674)" gradientUnits="userSpaceOnUse">
			<stop  offset="0" style="stop-color:#000000"/>
			<stop  offset="1" style="stop-color:#000000"/>
		</radialGradient>
		<path class="st19" d="M17.996,68.252c0-0.639,7.722-1.155,17.248-1.155c9.526,0,17.248,0.517,17.248,1.155
			c0,0.638-7.722,1.155-17.248,1.155C25.718,69.407,17.996,68.89,17.996,68.252z"/>
		
			<radialGradient id="SVGID_20_" cx="-383.3718" cy="-803.3551" r="5.5777" gradientTransform="matrix(3.3111 0 0 0.1813 1304.6266 213.9004)" gradientUnits="userSpaceOnUse">
			<stop  offset="0" style="stop-color:#000000"/>
			<stop  offset="1" style="stop-color:#000000"/>
		</radialGradient>
		<path class="st20" d="M18.701,68.252c0-0.612,7.406-1.107,16.543-1.107c9.137,0,16.543,0.495,16.543,1.107
			c0,0.611-7.406,1.106-16.543,1.106C26.107,69.359,18.701,68.863,18.701,68.252z"/>
		
			<radialGradient id="SVGID_21_" cx="-372.4718" cy="-861.782" r="5.6546" gradientTransform="matrix(3.1114 0 0 0.1716 1194.1528 216.1339)" gradientUnits="userSpaceOnUse">
			<stop  offset="0" style="stop-color:#000000"/>
			<stop  offset="1" style="stop-color:#000000"/>
		</radialGradient>
		<path class="st21" d="M19.406,68.252c0-0.585,7.091-1.059,15.838-1.059c8.747,0,15.838,0.474,15.838,1.059
			c0,0.584-7.091,1.058-15.838,1.058C26.497,69.311,19.406,68.836,19.406,68.252z"/>
		
			<radialGradient id="SVGID_22_" cx="-360.0765" cy="-927.2117" r="5.7407" gradientTransform="matrix(2.9117 0 0 0.1619 1083.6788 218.3675)" gradientUnits="userSpaceOnUse">
			<stop  offset="0" style="stop-color:#000000"/>
			<stop  offset="1" style="stop-color:#000000"/>
		</radialGradient>
		<path class="st22" d="M20.112,68.252c0-0.559,6.773-1.01,15.131-1.01c8.359,0,15.133,0.452,15.133,1.01
			c0,0.558-6.774,1.009-15.133,1.009C26.886,69.262,20.112,68.81,20.112,68.252z"/>
		
			<radialGradient id="SVGID_23_" cx="-345.8554" cy="-1000.9828" r="5.8395" gradientTransform="matrix(2.712 0 0 0.1522 973.204 220.6015)" gradientUnits="userSpaceOnUse">
			<stop  offset="0" style="stop-color:#000000"/>
			<stop  offset="1" style="stop-color:#000000"/>
		</radialGradient>
		<path class="st23" d="M20.817,68.252c0-0.532,6.458-0.962,14.426-0.962c7.97,0,14.428,0.43,14.428,0.962
			c0,0.531-6.458,0.961-14.428,0.961C27.275,69.213,20.817,68.783,20.817,68.252z"/>
		
			<radialGradient id="SVGID_24_" cx="-329.3731" cy="-1084.7867" r="5.9536" gradientTransform="matrix(2.5123 0 0 0.1425 862.7281 222.834)" gradientUnits="userSpaceOnUse">
			<stop  offset="0" style="stop-color:#000000"/>
			<stop  offset="1" style="stop-color:#000000"/>
		</radialGradient>
		<path class="st24" d="M21.522,68.252c0-0.505,6.142-0.914,13.721-0.914c7.58,0,13.723,0.409,13.723,0.914
			c0,0.504-6.143,0.913-13.723,0.913C27.665,69.165,21.522,68.756,21.522,68.252z"/>
		
			<radialGradient id="SVGID_25_" cx="-310.0442" cy="-1180.8406" r="6.0843" gradientTransform="matrix(2.3126 0 0 0.1328 752.2522 225.0675)" gradientUnits="userSpaceOnUse">
			<stop  offset="0" style="stop-color:#000000"/>
			<stop  offset="1" style="stop-color:#000000"/>
		</radialGradient>
		<path class="st25" d="M22.227,68.252c0-0.478,5.827-0.865,13.016-0.865c7.19,0,13.018,0.387,13.018,0.865
			c0,0.477-5.827,0.864-13.018,0.864C28.055,69.116,22.227,68.729,22.227,68.252z"/>
		
			<radialGradient id="SVGID_26_" cx="-287.0615" cy="-1292.0281" r="6.2403" gradientTransform="matrix(2.1129 0 0 0.1231 641.7764 227.3006)" gradientUnits="userSpaceOnUse">
			<stop  offset="0" style="stop-color:#000000"/>
			<stop  offset="1" style="stop-color:#000000"/>
		</radialGradient>
		<path class="st26" d="M22.933,68.252c0-0.451,5.512-0.816,12.311-0.816c6.801,0,12.313,0.365,12.313,0.816
			c0,0.45-5.512,0.815-12.313,0.815C28.444,69.068,22.933,68.703,22.933,68.252z"/>
		
			<radialGradient id="SVGID_27_" cx="-259.2809" cy="-1416.52" r="6.4305" gradientTransform="matrix(1.9132 0 0 0.1133 531.3005 228.7436)" gradientUnits="userSpaceOnUse">
			<stop  offset="0" style="stop-color:#000000"/>
			<stop  offset="1" style="stop-color:#000000"/>
		</radialGradient>
		<path class="st27" d="M23.638,68.252c0-0.425,5.196-0.768,11.605-0.768c6.411,0,11.607,0.343,11.607,0.768
			c0,0.424-5.196,0.767-11.607,0.767C28.834,69.02,23.638,68.676,23.638,68.252z"/>
		
			<radialGradient id="SVGID_28_" cx="-225.0251" cy="-1570.7136" r="6.6571" gradientTransform="matrix(1.7135 0 0 0.1036 420.8246 230.9776)" gradientUnits="userSpaceOnUse">
			<stop  offset="0" style="stop-color:#000000"/>
			<stop  offset="1" style="stop-color:#000000"/>
		</radialGradient>
		<path class="st28" d="M24.344,68.252c0-0.398,4.879-0.72,10.899-0.72c6.022,0,10.901,0.322,10.901,0.72
			c0,0.397-4.879,0.718-10.901,0.718C29.223,68.971,24.344,68.649,24.344,68.252z"/>
		
			<radialGradient id="SVGID_29_" cx="-181.7312" cy="-1756.7466" r="6.9415" gradientTransform="matrix(1.5138 0 0 0.0939 310.3488 233.2102)" gradientUnits="userSpaceOnUse">
			<stop  offset="0" style="stop-color:#000000"/>
			<stop  offset="1" style="stop-color:#000000"/>
		</radialGradient>
		<path class="st29" d="M25.049,68.252c0-0.371,4.563-0.671,10.194-0.671c5.633,0,10.196,0.3,10.196,0.671
			c0,0.37-4.563,0.67-10.196,0.67C29.612,68.922,25.049,68.622,25.049,68.252z"/>
		
			<radialGradient id="SVGID_30_" cx="-125.2787" cy="-1985.6506" r="7.3056" gradientTransform="matrix(1.3141 0 0 0.0842 199.8729 235.4437)" gradientUnits="userSpaceOnUse">
			<stop  offset="0" style="stop-color:#000000"/>
			<stop  offset="1" style="stop-color:#000000"/>
		</radialGradient>
		<path class="st30" d="M25.754,68.252c0-0.344,4.248-0.623,9.489-0.623c5.243,0,9.491,0.278,9.491,0.623
			c0,0.343-4.248,0.622-9.491,0.622C30.002,68.874,25.754,68.596,25.754,68.252z"/>
		
			<radialGradient id="SVGID_31_" cx="-48.594" cy="-2274.1619" r="7.7909" gradientTransform="matrix(1.1144 0 0 0.0745 89.3973 237.6767)" gradientUnits="userSpaceOnUse">
			<stop  offset="0" style="stop-color:#000000"/>
			<stop  offset="1" style="stop-color:#000000"/>
		</radialGradient>
		<path class="st31" d="M26.459,68.252c0-0.318,3.933-0.574,8.784-0.574c4.854,0,8.786,0.256,8.786,0.574
			c0,0.317-3.933,0.573-8.786,0.573C30.392,68.825,26.459,68.569,26.459,68.252z"/>
		
			<radialGradient id="SVGID_32_" cx="61.5751" cy="-2649.0535" r="8.4767" gradientTransform="matrix(0.9147 0 0 0.0648 -21.0786 239.9103)" gradientUnits="userSpaceOnUse">
			<stop  offset="0" style="stop-color:#000000"/>
			<stop  offset="1" style="stop-color:#000000"/>
		</radialGradient>
		<path class="st32" d="M27.164,68.252c0-0.291,3.617-0.526,8.079-0.526c4.464,0,8.081,0.235,8.081,0.526
			c0,0.29-3.617,0.524-8.081,0.524C30.781,68.777,27.164,68.542,27.164,68.252z"/>
		
			<radialGradient id="SVGID_33_" cx="233.2847" cy="-3155.9373" r="9.5203" gradientTransform="matrix(0.715 0 0 0.0551 -131.5545 242.1438)" gradientUnits="userSpaceOnUse">
			<stop  offset="0" style="stop-color:#000000"/>
			<stop  offset="1" style="stop-color:#000000"/>
		</radialGradient>
		<path class="st33" d="M27.869,68.252c0-0.264,3.302-0.478,7.374-0.478c4.074,0,7.376,0.213,7.376,0.478
			c0,0.263-3.302,0.476-7.376,0.476C31.171,68.729,27.869,68.516,27.869,68.252z"/>
		
			<radialGradient id="SVGID_34_" cx="538.083" cy="-3879.4099" r="11.3259" gradientTransform="matrix(0.5153 0 0 0.0454 -242.03 244.3769)" gradientUnits="userSpaceOnUse">
			<stop  offset="0" style="stop-color:#000000"/>
			<stop  offset="1" style="stop-color:#000000"/>
		</radialGradient>
		<path class="st34" d="M28.575,68.252c0-0.237,2.984-0.429,6.668-0.429c3.686,0,6.67,0.192,6.67,0.429
			c0,0.236-2.984,0.428-6.67,0.428C31.56,68.68,28.575,68.489,28.575,68.252z"/>
		
			<radialGradient id="SVGID_35_" cx="1228.6108" cy="-4996.0571" r="15.3327" gradientTransform="matrix(0.3156 0 0 0.0357 -352.5054 246.6109)" gradientUnits="userSpaceOnUse">
			<stop  offset="0" style="stop-color:#000000"/>
			<stop  offset="1" style="stop-color:#000000"/>
		</radialGradient>
		<path class="st35" d="M29.28,68.252c0-0.211,2.669-0.38,5.963-0.38c3.296,0,5.965,0.17,5.965,0.38
			c0,0.209-2.669,0.379-5.965,0.379C31.949,68.631,29.28,68.462,29.28,68.252z"/>
		
			<radialGradient id="SVGID_36_" cx="4298.7568" cy="-6945.835" r="33.3248" gradientTransform="matrix(0.1159 0 0 0.026 -462.9818 248.8434)" gradientUnits="userSpaceOnUse">
			<stop  offset="0" style="stop-color:#000000"/>
			<stop  offset="1" style="stop-color:#000000"/>
		</radialGradient>
		<path class="st36" d="M29.985,68.252c0-0.184,2.353-0.332,5.258-0.332c2.906,0,5.26,0.148,5.26,0.332
			c0,0.183-2.353,0.331-5.26,0.331C32.339,68.583,29.985,68.436,29.985,68.252z"/>
		
			<radialGradient id="SVGID_37_" cx="-7263.7393" cy="-11236.7168" r="40.3607" gradientTransform="matrix(-0.0838 0 0 0.0162 -573.4572 250.2865)" gradientUnits="userSpaceOnUse">
			<stop  offset="0" style="stop-color:#000000"/>
			<stop  offset="1" style="stop-color:#000000"/>
		</radialGradient>
		<path class="st37" d="M30.69,68.252c0-0.157,2.038-0.284,4.553-0.284c2.517,0,4.555,0.127,4.555,0.284
			c0,0.156-2.038,0.282-4.555,0.282C32.729,68.535,30.69,68.409,30.69,68.252z"/>
		
			<radialGradient id="SVGID_38_" cx="-2536.78" cy="-28349.0137" r="27.2464" gradientTransform="matrix(-0.2835 0 0 0.0065 -683.933 252.52)" gradientUnits="userSpaceOnUse">
			<stop  offset="0" style="stop-color:#000000"/>
			<stop  offset="1" style="stop-color:#000000"/>
		</radialGradient>
		<path class="st38" d="M31.395,68.252c0-0.13,1.723-0.235,3.848-0.235c2.127,0,3.85,0.105,3.85,0.235
			c0,0.129-1.723,0.233-3.85,0.233C33.118,68.486,31.395,68.382,31.395,68.252z"/>
		
			<radialGradient id="SVGID_39_" cx="-1716.9973" cy="58281.7383" r="41.3682" gradientTransform="matrix(-0.4832 0 0 -0.0032 -794.4089 254.753)" gradientUnits="userSpaceOnUse">
			<stop  offset="0" style="stop-color:#000000"/>
			<stop  offset="1" style="stop-color:#000000"/>
		</radialGradient>
		<path class="st39" d="M32.101,68.252c0-0.104,1.407-0.187,3.143-0.187c1.737,0,3.145,0.084,3.145,0.187
			c0,0.102-1.407,0.185-3.145,0.185C33.508,68.438,32.101,68.355,32.101,68.252z"/>
		
			<radialGradient id="SVGID_40_" cx="-1376.6714" cy="14630.5723" r="7.9458" gradientTransform="matrix(-0.6829 0 0 -0.0129 -904.8848 256.986)" gradientUnits="userSpaceOnUse">
			<stop  offset="0" style="stop-color:#000000"/>
			<stop  offset="1" style="stop-color:#000000"/>
		</radialGradient>
		<path class="st40" d="M32.807,68.252c0-0.077,1.09-0.138,2.437-0.138c1.349,0,2.438,0.061,2.438,0.138
			c0,0.076-1.09,0.137-2.438,0.137C33.896,68.389,32.807,68.329,32.807,68.252z"/>
		
			<radialGradient id="SVGID_41_" cx="-1190.3521" cy="8449.916" r="3.1072" gradientTransform="matrix(-0.8826 0 0 -0.0226 -1015.3606 259.2195)" gradientUnits="userSpaceOnUse">
			<stop  offset="0" style="stop-color:#000000"/>
			<stop  offset="1" style="stop-color:#000000"/>
		</radialGradient>
		<path class="st41" d="M33.512,68.252c0-0.05,0.774-0.09,1.731-0.09c0.959,0,1.733,0.04,1.733,0.09
			c0,0.049-0.774,0.088-1.733,0.088C34.286,68.34,33.512,68.302,33.512,68.252z"/>
		
			<radialGradient id="SVGID_42_" cx="-1072.79" cy="5981.4761" r="1.112" gradientTransform="matrix(-1.0823 0 0 -0.0323 -1125.8365 261.4531)" gradientUnits="userSpaceOnUse">
			<stop  offset="0" style="stop-color:#000000"/>
			<stop  offset="1" style="stop-color:#000000"/>
		</radialGradient>
		<path class="st42" d="M34.217,68.252c0-0.023,0.459-0.042,1.026-0.042c0.569,0,1.028,0.018,1.028,0.042
			c0,0.022-0.459,0.039-1.028,0.039C34.676,68.292,34.217,68.275,34.217,68.252z"/>
	</g>
	<linearGradient id="SVGID_43_" gradientUnits="userSpaceOnUse" x1="0" y1="33.1126" x2="66.7227" y2="33.1126">
		<stop  offset="0" style="stop-color:#F7941E"/>
		<stop  offset="1" style="stop-color:#4C216B"/>
	</linearGradient>
	<path class="st43" d="M33.361,0c18.425,0,33.361,14.936,33.361,33.361v32.726c-10.307-6.853-21.959-3.009-29.95-0.757
		c-4.562,1.286-9.412,1.185-13.91-0.305C9.582,60.628,0,48.117,0,33.361C0,14.936,14.936,0,33.361,0z"/>
	<g class="st44">
		<path class="st45" d="M35.997,63.675c-15.795,0-28.646-12.851-28.646-28.645c0-15.795,12.851-28.645,28.646-28.645
			s28.646,12.85,28.646,28.645C64.643,50.825,51.792,63.675,35.997,63.675z"/>
		<circle class="st46" cx="35.958" cy="35.013" r="28.629"/>
		<path class="st47" d="M35.919,63.606c-15.776,0-28.612-12.836-28.612-28.612c0-15.777,12.836-28.612,28.612-28.612
			c15.777,0,28.613,12.835,28.613,28.612C64.532,50.771,51.696,63.606,35.919,63.606z"/>
		<path class="st48" d="M35.881,63.572c-15.769,0-28.597-12.829-28.597-28.596c0-15.768,12.828-28.596,28.597-28.596
			c15.768,0,28.596,12.828,28.596,28.596C64.477,50.744,51.648,63.572,35.881,63.572z"/>
		<circle class="st49" cx="35.842" cy="34.958" r="28.58"/>
		<path class="st50" d="M35.803,63.503c-15.75,0-28.564-12.814-28.564-28.563c0-15.75,12.814-28.563,28.564-28.563
			S64.366,19.19,64.366,34.94C64.366,50.689,51.553,63.503,35.803,63.503z"/>
		
			<ellipse transform="matrix(0.0128 -0.9999 0.9999 0.0128 0.3855 70.2351)" class="st51" cx="35.764" cy="34.922" rx="28.547" ry="28.548"/>
		
			<ellipse transform="matrix(0.9996 -0.0297 0.0297 0.9996 -1.0197 1.0751)" class="st52" cx="35.725" cy="34.904" rx="28.531" ry="28.531"/>
		<path class="st53" d="M35.685,63.4c-15.723,0-28.515-12.792-28.515-28.514c0-15.723,12.792-28.515,28.515-28.515
			c15.724,0,28.516,12.792,28.516,28.515C64.201,50.608,51.409,63.4,35.685,63.4z"/>
		<path class="st54" d="M35.647,63.366c-15.715,0-28.499-12.785-28.499-28.498c0-15.714,12.784-28.498,28.499-28.498
			c15.714,0,28.498,12.784,28.498,28.498C64.146,50.582,51.361,63.366,35.647,63.366z"/>
		<path class="st55" d="M35.608,63.332c-15.705,0-28.482-12.777-28.482-28.481c0-15.705,12.777-28.482,28.482-28.482
			S64.091,19.146,64.091,34.85C64.091,50.554,51.313,63.332,35.608,63.332z"/>
		
			<ellipse transform="matrix(0.9997 -0.0238 0.0238 0.9997 -0.8197 0.8572)" class="st56" cx="35.569" cy="34.832" rx="28.466" ry="28.465"/>
		<path class="st57" d="M35.53,63.263c-15.687,0-28.449-12.763-28.449-28.449c0-15.688,12.763-28.45,28.449-28.45
			s28.449,12.762,28.449,28.45C63.979,50.5,51.217,63.263,35.53,63.263z"/>
		<path class="st58" d="M35.491,63.229c-15.678,0-28.433-12.755-28.433-28.432c0-15.678,12.755-28.433,28.433-28.433
			s28.434,12.755,28.434,28.433C63.925,50.473,51.169,63.229,35.491,63.229z"/>
		<path class="st59" d="M35.452,63.194c-15.669,0-28.417-12.748-28.417-28.416c0-15.67,12.748-28.417,28.417-28.417
			c15.669,0,28.417,12.748,28.417,28.417C63.869,50.446,51.121,63.194,35.452,63.194z"/>
		<path class="st60" d="M35.414,63.16c-15.66,0-28.401-12.741-28.401-28.4c0-15.66,12.741-28.4,28.401-28.4
			c15.659,0,28.4,12.74,28.4,28.4C63.814,50.419,51.073,63.16,35.414,63.16z"/>
		<path class="st61" d="M35.375,63.125c-15.651,0-28.385-12.733-28.385-28.383c0-15.651,12.733-28.384,28.385-28.384
			c15.65,0,28.384,12.733,28.384,28.384C63.759,50.392,51.025,63.125,35.375,63.125z"/>
		<path class="st62" d="M35.336,63.091c-15.642,0-28.368-12.726-28.368-28.367c0-15.642,12.726-28.368,28.368-28.368
			c15.642,0,28.368,12.726,28.368,28.368C63.704,50.365,50.977,63.091,35.336,63.091z"/>
		<path class="st63" d="M35.297,63.057c-15.633,0-28.352-12.719-28.352-28.351c0-15.633,12.719-28.352,28.352-28.352
			s28.352,12.718,28.352,28.352C63.648,50.338,50.93,63.057,35.297,63.057z"/>
		<path class="st64" d="M35.258,63.022c-15.624,0-28.335-12.711-28.335-28.334c0-15.624,12.711-28.335,28.335-28.335
			s28.336,12.711,28.336,28.335C63.594,50.311,50.882,63.022,35.258,63.022z"/>
		<path class="st65" d="M35.219,62.988C19.604,62.988,6.9,50.284,6.9,34.67c0-15.615,12.704-28.319,28.318-28.319
			c15.615,0,28.319,12.704,28.319,28.319C63.538,50.284,50.834,62.988,35.219,62.988z"/>
		<path class="st66" d="M35.181,62.954c-15.606,0-28.303-12.697-28.303-28.302c0-15.606,12.696-28.303,28.303-28.303
			c15.605,0,28.302,12.696,28.302,28.303C63.482,50.257,50.786,62.954,35.181,62.954z"/>
		<circle class="st67" cx="35.142" cy="34.634" r="28.286"/>
		<path class="st68" d="M35.103,62.885c-15.588,0-28.271-12.682-28.271-28.27c0-15.588,12.683-28.27,28.271-28.27
			c15.588,0,28.27,12.682,28.27,28.27C63.372,50.203,50.69,62.885,35.103,62.885z"/>
		<path class="st69" d="M35.063,62.851c-15.579,0-28.254-12.675-28.254-28.253c0-15.579,12.675-28.254,28.254-28.254
			s28.254,12.675,28.254,28.254C63.317,50.176,50.643,62.851,35.063,62.851z"/>
		
			<ellipse transform="matrix(0.0157 -0.9999 0.9999 0.0157 -0.1009 69.0563)" class="st70" cx="35.024" cy="34.579" rx="28.237" ry="28.237"/>
		<path class="st71" d="M34.985,62.782c-15.561,0-28.221-12.661-28.221-28.221C6.765,19,19.425,6.34,34.985,6.34
			c15.561,0,28.222,12.66,28.222,28.221C63.207,50.121,50.547,62.782,34.985,62.782z"/>
		<path class="st72" d="M34.947,62.748c-15.553,0-28.205-12.653-28.205-28.204c0-15.552,12.652-28.205,28.205-28.205
			c15.552,0,28.204,12.652,28.204,28.205C63.151,50.095,50.499,62.748,34.947,62.748z"/>
		<circle class="st73" cx="34.908" cy="34.525" r="28.188"/>
		
			<ellipse transform="matrix(0.1588 -0.9873 0.9873 0.1588 -4.7372 63.4546)" class="st74" cx="34.869" cy="34.507" rx="28.172" ry="28.172"/>
		<path class="st75" d="M34.83,62.645c-15.525,0-28.155-12.631-28.155-28.155c0-15.525,12.63-28.156,28.155-28.156
			s28.156,12.631,28.156,28.156C62.986,50.014,50.355,62.645,34.83,62.645z"/>
		<path class="st76" d="M34.791,62.61c-15.516,0-28.139-12.623-28.139-28.139c0-15.516,12.623-28.139,28.139-28.139
			c15.517,0,28.14,12.623,28.14,28.139C62.931,49.987,50.308,62.61,34.791,62.61z"/>
		
			<ellipse transform="matrix(0.7071 -0.7071 0.7071 0.7071 -14.1834 34.6644)" class="st77" cx="34.752" cy="34.453" rx="28.123" ry="28.123"/>
		<path class="st78" d="M34.714,62.542c-15.498,0-28.107-12.609-28.107-28.106c0-15.498,12.609-28.107,28.107-28.107
			c15.498,0,28.106,12.609,28.106,28.107C62.82,49.933,50.212,62.542,34.714,62.542z"/>
		<path class="st79" d="M34.675,62.507c-15.489,0-28.091-12.602-28.091-28.09c0-15.489,12.601-28.09,28.091-28.09
			s28.09,12.601,28.09,28.09C62.765,49.906,50.164,62.507,34.675,62.507z"/>
		
			<ellipse transform="matrix(0.9211 -0.3893 0.3893 0.9211 -10.6595 16.1984)" class="st80" cx="34.636" cy="34.399" rx="28.074" ry="28.074"/>
		<path class="st81" d="M34.597,62.438c-15.471,0-28.058-12.587-28.058-28.057c0-15.472,12.587-28.058,28.058-28.058
			S62.654,18.91,62.654,34.381C62.654,49.852,50.067,62.438,34.597,62.438z"/>
		<path class="st82" d="M34.558,62.404c-15.462,0-28.041-12.58-28.041-28.041c0-15.462,12.579-28.042,28.041-28.042
			S62.6,18.901,62.6,34.363C62.6,49.824,50.019,62.404,34.558,62.404z"/>
		<path class="st83" d="M34.519,62.37c-15.453,0-28.025-12.573-28.025-28.025c0-15.454,12.571-28.025,28.025-28.025
			c15.453,0,28.025,12.572,28.025,28.025C62.544,49.797,49.972,62.37,34.519,62.37z"/>
		<path class="st84" d="M34.48,62.335c-15.444,0-28.009-12.565-28.009-28.008c0-15.444,12.564-28.009,28.009-28.009
			c15.443,0,28.009,12.565,28.009,28.009C62.489,49.771,49.924,62.335,34.48,62.335z"/>
		<path class="st85" d="M34.441,62.301c-15.436,0-27.993-12.558-27.993-27.992c0-15.435,12.558-27.993,27.993-27.993
			c15.435,0,27.992,12.558,27.992,27.993C62.434,49.743,49.876,62.301,34.441,62.301z"/>
		<path class="st86" d="M34.402,62.267c-15.426,0-27.976-12.551-27.976-27.976c0-15.427,12.551-27.977,27.976-27.977
			c15.426,0,27.976,12.55,27.976,27.977C62.378,49.716,49.828,62.267,34.402,62.267z"/>
		<path class="st87" d="M34.363,62.232c-15.417,0-27.96-12.543-27.96-27.959c0-15.417,12.543-27.96,27.96-27.96
			s27.96,12.543,27.96,27.96C62.323,49.689,49.78,62.232,34.363,62.232z"/>
		
			<ellipse transform="matrix(0.0332 -0.9994 0.9994 0.0332 -1.0517 67.4222)" class="st88" cx="34.324" cy="34.255" rx="27.944" ry="27.943"/>
		<path class="st89" d="M34.285,62.164c-15.398,0-27.927-12.529-27.927-27.927c0-15.399,12.528-27.928,27.927-27.928
			c15.399,0,27.928,12.528,27.928,27.928C62.213,49.635,49.685,62.164,34.285,62.164z"/>
		<path class="st90" d="M34.247,62.129c-15.391,0-27.911-12.521-27.911-27.911c0-15.391,12.521-27.911,27.911-27.911
			c15.39,0,27.91,12.521,27.91,27.911C62.157,49.608,49.637,62.129,34.247,62.129z"/>
		<circle class="st91" cx="34.208" cy="34.201" r="27.895"/>
		<path class="st92" d="M34.169,62.061c-15.372,0-27.878-12.506-27.878-27.878c0-15.373,12.506-27.878,27.878-27.878
			c15.372,0,27.878,12.506,27.878,27.878C62.047,49.554,49.541,62.061,34.169,62.061z"/>
		<path class="st93" d="M34.13,62.026c-15.363,0-27.861-12.5-27.861-27.862c0-15.363,12.498-27.862,27.861-27.862
			s27.862,12.499,27.862,27.862C61.992,49.527,49.493,62.026,34.13,62.026z"/>
		<path class="st94" d="M34.091,61.992c-15.353,0-27.846-12.492-27.846-27.846C6.245,18.792,18.737,6.3,34.091,6.3
			c15.354,0,27.846,12.492,27.846,27.846C61.936,49.5,49.445,61.992,34.091,61.992z"/>
		<path class="st95" d="M34.052,61.958c-15.345,0-27.829-12.484-27.829-27.829c0-15.345,12.484-27.83,27.829-27.83
			c15.346,0,27.83,12.484,27.83,27.83C61.882,49.473,49.397,61.958,34.052,61.958z"/>
		<path class="st96" d="M34.014,61.923C18.677,61.923,6.2,49.446,6.2,34.11c0-15.336,12.477-27.813,27.813-27.813
			c15.336,0,27.813,12.477,27.813,27.813C61.826,49.446,49.35,61.923,34.014,61.923z"/>
		<path class="st97" d="M33.975,61.889c-15.327,0-27.797-12.47-27.797-27.797c0-15.328,12.47-27.797,27.797-27.797
			c15.327,0,27.796,12.469,27.796,27.797C61.771,49.419,49.302,61.889,33.975,61.889z"/>
		<path class="st98" d="M33.935,61.854c-15.318,0-27.78-12.462-27.78-27.78c0-15.318,12.462-27.781,27.78-27.781
			c15.318,0,27.78,12.462,27.78,27.781C61.716,49.392,49.254,61.854,33.935,61.854z"/>
		<circle class="st99" cx="33.896" cy="34.056" r="27.764"/>
		<path class="st100" d="M33.857,61.786c-15.3,0-27.747-12.448-27.747-27.748c0-15.3,12.447-27.748,27.747-27.748
			c15.301,0,27.748,12.448,27.748,27.748C61.605,49.338,49.158,61.786,33.857,61.786z"/>
		<path class="st101" d="M33.818,61.751c-15.291,0-27.731-12.441-27.731-27.731c0-15.292,12.439-27.732,27.731-27.732
			c15.292,0,27.731,12.441,27.731,27.732C61.55,49.311,49.11,61.751,33.818,61.751z"/>
		
			<ellipse transform="matrix(0.9996 -0.0274 0.0274 0.9996 -0.9183 0.9376)" class="st102" cx="33.78" cy="34.002" rx="27.715" ry="27.715"/>
		<path class="st103" d="M33.741,61.683c-15.273,0-27.699-12.426-27.699-27.699c0-15.273,12.426-27.699,27.699-27.699
			c15.273,0,27.698,12.426,27.698,27.699C61.439,49.257,49.015,61.683,33.741,61.683z"/>
		
			<ellipse transform="matrix(0.1616 -0.9869 0.9869 0.1616 -5.2627 61.7371)" class="st104" cx="33.702" cy="33.966" rx="27.683" ry="27.683"/>
		<path class="st105" d="M33.663,61.614c-15.255,0-27.666-12.412-27.666-27.666c0-15.256,12.411-27.667,27.666-27.667
			s27.666,12.411,27.666,27.667C61.329,49.203,48.918,61.614,33.663,61.614z"/>
		<path class="st106" d="M33.624,61.58c-15.246,0-27.649-12.404-27.649-27.65c0-15.247,12.403-27.65,27.649-27.65
			s27.649,12.403,27.649,27.65C61.273,49.176,48.87,61.58,33.624,61.58z"/>
		<path class="st107" d="M33.585,61.545c-15.236,0-27.633-12.397-27.633-27.633c0-15.238,12.396-27.634,27.633-27.634
			c15.237,0,27.634,12.396,27.634,27.634C61.219,49.148,48.822,61.545,33.585,61.545z"/>
		<path class="st108" d="M33.547,61.511c-15.228,0-27.617-12.39-27.617-27.617c0-15.229,12.389-27.618,27.617-27.618
			c15.228,0,27.616,12.389,27.616,27.618C61.163,49.121,48.774,61.511,33.547,61.511z"/>
		<path class="st109" d="M33.508,61.477c-15.22,0-27.601-12.382-27.601-27.601c0-15.22,12.381-27.601,27.601-27.601
			c15.219,0,27.601,12.382,27.601,27.601C61.108,49.095,48.727,61.477,33.508,61.477z"/>
		<path class="st110" d="M33.469,61.442c-15.21,0-27.584-12.375-27.584-27.584c0-15.211,12.374-27.585,27.584-27.585
			c15.21,0,27.584,12.375,27.584,27.585C61.053,49.067,48.679,61.442,33.469,61.442z"/>
		<path class="st111" d="M33.43,61.408c-15.201,0-27.567-12.368-27.567-27.568c0-15.202,12.366-27.569,27.567-27.569
			S60.998,18.638,60.998,33.84C60.998,49.041,48.631,61.408,33.43,61.408z"/>
		<path class="st112" d="M33.391,61.374c-15.192,0-27.552-12.36-27.552-27.552c0-15.193,12.359-27.553,27.552-27.553
			s27.552,12.36,27.552,27.553C60.942,49.013,48.583,61.374,33.391,61.374z"/>
		<path class="st113" d="M33.352,61.339c-15.183,0-27.535-12.353-27.535-27.536c0-15.184,12.352-27.536,27.535-27.536
			c15.184,0,27.536,12.353,27.536,27.536C60.888,48.986,48.535,61.339,33.352,61.339z"/>
		<path class="st114" d="M33.313,61.305c-15.175,0-27.52-12.346-27.52-27.52c0-15.175,12.345-27.52,27.52-27.52
			c15.174,0,27.518,12.345,27.518,27.52C60.832,48.959,48.487,61.305,33.313,61.305z"/>
		<ellipse transform="matrix(1 -0.004 0.004 1 -0.1356 0.1342)" class="st115" cx="33.274" cy="33.767" rx="27.503" ry="27.503"/>
		<path d="M33.235,61.236c-15.156,0-27.486-12.331-27.486-27.487c0-15.157,12.33-27.487,27.486-27.487
			c15.156,0,27.486,12.33,27.486,27.487C60.722,48.905,48.392,61.236,33.235,61.236z"/>
	</g>
	<linearGradient id="SVGID_44_" gradientUnits="userSpaceOnUse" x1="13.9673" y1="14.4811" x2="52.8212" y2="53.335">
		<stop  offset="0" style="stop-color:#C3C4C3"/>
		<stop  offset="0.2166" style="stop-color:#DADADA"/>
		<stop  offset="0.4838" style="stop-color:#EEEFEE"/>
		<stop  offset="0.7471" style="stop-color:#FBFBFB"/>
		<stop  offset="1" style="stop-color:#FFFFFF"/>
	</linearGradient>
	<path class="st116" d="M33.235,61.236c-15.156,0-27.486-12.331-27.486-27.487c0-15.157,12.33-27.487,27.486-27.487
		c15.156,0,27.486,12.33,27.486,27.487C60.722,48.905,48.392,61.236,33.235,61.236z"/>
	<linearGradient id="SVGID_45_" gradientUnits="userSpaceOnUse" x1="18.582" y1="33.7492" x2="43.9072" y2="33.7492">
		<stop  offset="0" style="stop-color:#4C216B"/>
		<stop  offset="1" style="stop-color:#F7941E"/>
	</linearGradient>
	<path class="st117" d="M38.173,46.412H24.315c-3.16,0-5.733-2.572-5.733-5.734V26.822c0-3.162,2.573-5.735,5.733-5.735h13.857
		c3.16,0,5.734,2.573,5.734,5.735v13.855C43.907,43.84,41.333,46.412,38.173,46.412z M24.315,23.61
		c-1.772,0-3.213,1.441-3.213,3.212v13.855c0,1.774,1.441,3.215,3.213,3.215h13.857c1.771,0,3.212-1.441,3.212-3.215V26.822
		c0-1.771-1.441-3.212-3.212-3.212H24.315z M31.245,40.37c-3.609,0-6.545-2.936-6.545-6.545c0-3.61,2.936-6.545,6.545-6.545
		c3.608,0,6.545,2.935,6.545,6.545C37.79,37.433,34.854,40.37,31.245,40.37z M31.245,29.8c-2.221,0-4.025,1.807-4.025,4.025
		c0,2.221,1.805,4.024,4.025,4.024c2.221,0,4.024-1.804,4.024-4.024C35.27,31.606,33.466,29.8,31.245,29.8z M38.04,25.669
		c-0.919,0-1.66,0.742-1.66,1.663c0,0.914,0.741,1.66,1.66,1.66c0.917,0,1.663-0.746,1.663-1.66
		C39.703,26.412,38.957,25.669,38.04,25.669z"/>
</g>
</svg>