<svg xmlns="http://www.w3.org/2000/svg" width="66.723" height="70.28"><style></style><g opacity=".3"><radialGradient id="SVGID_1_" cx="-474.057" cy="-286.475" r="4.923" gradientTransform="matrix(7.1054 0 0 .3658 3403.608 173.045)" gradientUnits="userSpaceOnUse"><stop offset="0"/><stop offset="1"/></radialGradient><radialGradient id="SVGID_2_" cx="-471.772" cy="-300.554" r="4.941" gradientTransform="matrix(6.9057 0 0 .3561 3293.157 175.28)" gradientUnits="userSpaceOnUse"><stop offset="0"/><stop offset="1"/></radialGradient><path d="M6.007 68.252c0-1.093 13.09-1.979 29.237-1.979s29.237.886 29.237 1.979c0 1.092-13.09 1.979-29.237 1.979-16.147.001-29.237-.886-29.237-1.979z" opacity=".024" fill="url(#SVGID_2_)"/><radialGradient id="SVGID_3_" cx="-469.347" cy="-315.418" r="4.958" gradientTransform="matrix(6.706 0 0 .3464 3182.683 177.513)" gradientUnits="userSpaceOnUse"><stop offset="0"/><stop offset="1"/></radialGradient><ellipse cx="35.244" cy="68.252" rx="28.532" ry="1.931" opacity=".049" fill="url(#SVGID_3_)"/><radialGradient id="SVGID_4_" cx="-466.773" cy="-331.138" r="4.977" gradientTransform="matrix(6.5063 0 0 .3367 3072.21 179.747)" gradientUnits="userSpaceOnUse"><stop offset="0"/><stop offset="1"/></radialGradient><path d="M7.418 68.252c0-1.04 12.457-1.882 27.826-1.882s27.826.842 27.826 1.882c0 1.039-12.457 1.882-27.826 1.882-15.369.001-27.826-.843-27.826-1.882z" opacity=".073" fill="url(#SVGID_4_)"/><radialGradient id="SVGID_5_" cx="-464.036" cy="-347.79" r="4.997" gradientTransform="matrix(6.3066 0 0 .327 2961.735 181.98)" gradientUnits="userSpaceOnUse"><stop offset="0"/><stop offset="1"/></radialGradient><path d="M8.123 68.252c0-1.013 12.142-1.834 27.121-1.834s27.121.82 27.121 1.834c0 1.012-12.142 1.834-27.121 1.834s-27.121-.821-27.121-1.834z" opacity=".098" fill="url(#SVGID_5_)"/><radialGradient id="SVGID_6_" cx="-461.121" cy="-365.463" r="5.018" gradientTransform="matrix(6.1069 0 0 .3173 2851.262 184.214)" gradientUnits="userSpaceOnUse"><stop offset="0"/><stop offset="1"/></radialGradient><ellipse cx="35.244" cy="68.252" rx="26.416" ry="1.785" opacity=".122" fill="url(#SVGID_6_)"/><radialGradient id="SVGID_7_" cx="-458.008" cy="-381.802" r="5.042" gradientTransform="matrix(5.9072 0 0 .3075 2740.788 185.656)" gradientUnits="userSpaceOnUse"><stop offset="0"/><stop offset="1"/></radialGradient><ellipse cx="35.244" cy="68.252" rx="25.711" ry="1.737" opacity=".146" fill="url(#SVGID_7_)"/><radialGradient id="SVGID_8_" cx="-454.677" cy="-401.738" r="5.067" gradientTransform="matrix(5.7075 0 0 .2978 2630.314 187.89)" gradientUnits="userSpaceOnUse"><stop offset="0"/><stop offset="1"/></radialGradient><ellipse cx="35.244" cy="68.252" rx="25.006" ry="1.689" opacity=".171" fill="url(#SVGID_8_)"/><radialGradient id="SVGID_9_" cx="-451.105" cy="-423.017" r="5.092" gradientTransform="matrix(5.5078 0 0 .2881 2519.84 190.124)" gradientUnits="userSpaceOnUse"><stop offset="0"/><stop offset="1"/></radialGradient><path d="M10.943 68.252c0-.906 10.88-1.64 24.301-1.64s24.301.733 24.301 1.64c0 .905-10.88 1.64-24.301 1.64s-24.301-.734-24.301-1.64z" opacity=".195" fill="url(#SVGID_9_)"/><radialGradient id="SVGID_10_" cx="-447.264" cy="-445.776" r="5.12" gradientTransform="matrix(5.3081 0 0 .2784 2409.366 192.357)" gradientUnits="userSpaceOnUse"><stop offset="0"/><stop offset="1"/></radialGradient><ellipse cx="35.244" cy="68.252" rx="23.595" ry="1.591" opacity=".22" fill="url(#SVGID_10_)"/><radialGradient id="SVGID_11_" cx="-443.123" cy="-470.181" r="5.15" gradientTransform="matrix(5.1084 0 0 .2687 2298.892 194.59)" gradientUnits="userSpaceOnUse"><stop offset="0"/><stop offset="1"/></radialGradient><ellipse cx="35.244" cy="68.252" rx="22.89" ry="1.543" opacity=".244" fill="url(#SVGID_11_)"/><radialGradient id="SVGID_12_" cx="-438.644" cy="-496.414" r="5.183" gradientTransform="matrix(4.9087 0 0 .259 2188.418 196.824)" gradientUnits="userSpaceOnUse"><stop offset="0"/><stop offset="1"/></radialGradient><ellipse cx="35.244" cy="68.252" rx="22.185" ry="1.495" opacity=".268" fill="url(#SVGID_12_)"/><radialGradient id="SVGID_13_" cx="-433.786" cy="-524.689" r="5.218" gradientTransform="matrix(4.709 0 0 .2493 2077.944 199.057)" gradientUnits="userSpaceOnUse"><stop offset="0"/><stop offset="1"/></radialGradient><path d="M13.765 68.252c0-.799 9.616-1.446 21.479-1.446s21.479.647 21.479 1.446c0 .798-9.616 1.446-21.479 1.446s-21.479-.647-21.479-1.446z" opacity=".293" fill="url(#SVGID_13_)"/><radialGradient id="SVGID_14_" cx="-428.498" cy="-555.251" r="5.256" gradientTransform="matrix(4.5093 0 0 .2396 1967.47 201.29)" gradientUnits="userSpaceOnUse"><stop offset="0"/><stop offset="1"/></radialGradient><ellipse cx="35.244" cy="68.252" rx="20.774" ry="1.398" opacity=".317" fill="url(#SVGID_14_)"/><radialGradient id="SVGID_15_" cx="-422.719" cy="-588.392" r="5.297" gradientTransform="matrix(4.3096 0 0 .2299 1856.996 203.524)" gradientUnits="userSpaceOnUse"><stop offset="0"/><stop offset="1"/></radialGradient><ellipse cx="35.244" cy="68.252" rx="20.069" ry="1.349" opacity=".342" fill="url(#SVGID_15_)"/><radialGradient id="SVGID_16_" cx="-416.38" cy="-624.457" r="5.342" gradientTransform="matrix(4.1099 0 0 .2202 1746.522 205.758)" gradientUnits="userSpaceOnUse"><stop offset="0"/><stop offset="1"/></radialGradient><path d="M15.881 68.252c0-.719 8.668-1.301 19.363-1.301s19.363.582 19.363 1.301c0 .718-8.668 1.3-19.363 1.3-10.695.001-19.363-.582-19.363-1.3z" opacity=".366" fill="url(#SVGID_16_)"/><radialGradient id="SVGID_17_" cx="-409.392" cy="-660.4" r="5.394" gradientTransform="matrix(3.9102 0 0 .2104 1636.049 207.2)" gradientUnits="userSpaceOnUse"><stop offset="0"/><stop offset="1"/></radialGradient><path d="M16.586 68.252c0-.692 8.353-1.252 18.658-1.252 10.306 0 18.658.56 18.658 1.252 0 .691-8.353 1.252-18.658 1.252-10.306 0-18.658-.56-18.658-1.252z" opacity=".39" fill="url(#SVGID_17_)"/><radialGradient id="SVGID_18_" cx="-401.652" cy="-703.446" r="5.449" gradientTransform="matrix(3.7105 0 0 .2007 1525.574 209.434)" gradientUnits="userSpaceOnUse"><stop offset="0"/><stop offset="1"/></radialGradient><path d="M17.291 68.252c0-.666 8.037-1.204 17.953-1.204 9.916 0 17.953.539 17.953 1.204 0 .664-8.037 1.204-17.953 1.204-9.916 0-17.953-.539-17.953-1.204z" opacity=".415" fill="url(#SVGID_18_)"/><radialGradient id="SVGID_19_" cx="-393.032" cy="-750.865" r="5.509" gradientTransform="matrix(3.5108 0 0 .191 1415.1 211.667)" gradientUnits="userSpaceOnUse"><stop offset="0"/><stop offset="1"/></radialGradient><path d="M17.996 68.252c0-.639 7.722-1.155 17.248-1.155s17.248.517 17.248 1.155-7.722 1.155-17.248 1.155-17.248-.517-17.248-1.155z" opacity=".439" fill="url(#SVGID_19_)"/><radialGradient id="SVGID_20_" cx="-383.372" cy="-803.355" r="5.578" gradientTransform="matrix(3.3111 0 0 .1813 1304.627 213.9)" gradientUnits="userSpaceOnUse"><stop offset="0"/><stop offset="1"/></radialGradient><path d="M18.701 68.252c0-.612 7.406-1.107 16.543-1.107s16.543.495 16.543 1.107c0 .611-7.406 1.106-16.543 1.106-9.137.001-16.543-.495-16.543-1.106z" opacity=".463" fill="url(#SVGID_20_)"/><radialGradient id="SVGID_21_" cx="-372.472" cy="-861.782" r="5.655" gradientTransform="matrix(3.1114 0 0 .1716 1194.153 216.134)" gradientUnits="userSpaceOnUse"><stop offset="0"/><stop offset="1"/></radialGradient><path d="M19.406 68.252c0-.585 7.091-1.059 15.838-1.059s15.838.474 15.838 1.059c0 .584-7.091 1.058-15.838 1.058-8.747.001-15.838-.474-15.838-1.058z" opacity=".488" fill="url(#SVGID_21_)"/><radialGradient id="SVGID_22_" cx="-360.077" cy="-927.212" r="5.741" gradientTransform="matrix(2.9117 0 0 .1619 1083.679 218.368)" gradientUnits="userSpaceOnUse"><stop offset="0"/><stop offset="1"/></radialGradient><path d="M20.112 68.252c0-.559 6.773-1.01 15.131-1.01 8.359 0 15.133.452 15.133 1.01s-6.774 1.009-15.133 1.009c-8.357.001-15.131-.451-15.131-1.009z" opacity=".512" fill="url(#SVGID_22_)"/><radialGradient id="SVGID_23_" cx="-345.855" cy="-1000.983" r="5.84" gradientTransform="matrix(2.712 0 0 .1522 973.204 220.601)" gradientUnits="userSpaceOnUse"><stop offset="0"/><stop offset="1"/></radialGradient><path d="M20.817 68.252c0-.532 6.458-.962 14.426-.962 7.97 0 14.428.43 14.428.962 0 .531-6.458.961-14.428.961-7.968 0-14.426-.43-14.426-.961z" opacity=".537" fill="url(#SVGID_23_)"/><radialGradient id="SVGID_24_" cx="-329.373" cy="-1084.787" r="5.954" gradientTransform="matrix(2.5123 0 0 .1425 862.728 222.834)" gradientUnits="userSpaceOnUse"><stop offset="0"/><stop offset="1"/></radialGradient><path d="M21.522 68.252c0-.505 6.142-.914 13.721-.914 7.58 0 13.723.409 13.723.914 0 .504-6.143.913-13.723.913-7.578 0-13.721-.409-13.721-.913z" opacity=".561" fill="url(#SVGID_24_)"/><radialGradient id="SVGID_25_" cx="-310.044" cy="-1180.841" r="6.084" gradientTransform="matrix(2.3126 0 0 .1328 752.252 225.067)" gradientUnits="userSpaceOnUse"><stop offset="0"/><stop offset="1"/></radialGradient><path d="M22.227 68.252c0-.478 5.827-.865 13.016-.865 7.19 0 13.018.387 13.018.865 0 .477-5.827.864-13.018.864-7.188 0-13.016-.387-13.016-.864z" opacity=".585" fill="url(#SVGID_25_)"/><radialGradient id="SVGID_26_" cx="-287.062" cy="-1292.028" r="6.24" gradientTransform="matrix(2.1129 0 0 .1231 641.776 227.3)" gradientUnits="userSpaceOnUse"><stop offset="0"/><stop offset="1"/></radialGradient><path d="M22.933 68.252c0-.451 5.512-.816 12.311-.816 6.801 0 12.313.365 12.313.816 0 .45-5.512.815-12.313.815-6.8.001-12.311-.364-12.311-.815z" opacity=".61" fill="url(#SVGID_26_)"/><radialGradient id="SVGID_27_" cx="-259.281" cy="-1416.52" r="6.431" gradientTransform="matrix(1.9132 0 0 .1133 531.3 228.744)" gradientUnits="userSpaceOnUse"><stop offset="0"/><stop offset="1"/></radialGradient><path d="M23.638 68.252c0-.425 5.196-.768 11.605-.768 6.411 0 11.607.343 11.607.768 0 .424-5.196.767-11.607.767-6.409.001-11.605-.343-11.605-.767z" opacity=".634" fill="url(#SVGID_27_)"/><radialGradient id="SVGID_28_" cx="-225.025" cy="-1570.714" r="6.657" gradientTransform="matrix(1.7135 0 0 .1036 420.825 230.978)" gradientUnits="userSpaceOnUse"><stop offset="0"/><stop offset="1"/></radialGradient><path d="M24.344 68.252c0-.398 4.879-.72 10.899-.72 6.022 0 10.901.322 10.901.72 0 .397-4.879.718-10.901.718-6.02.001-10.899-.321-10.899-.718z" opacity=".658" fill="url(#SVGID_28_)"/><radialGradient id="SVGID_29_" cx="-181.731" cy="-1756.747" r="6.941" gradientTransform="matrix(1.5138 0 0 .0939 310.349 233.21)" gradientUnits="userSpaceOnUse"><stop offset="0"/><stop offset="1"/></radialGradient><path d="M25.049 68.252c0-.371 4.563-.671 10.194-.671 5.633 0 10.196.3 10.196.671 0 .37-4.563.67-10.196.67-5.631 0-10.194-.3-10.194-.67z" opacity=".683" fill="url(#SVGID_29_)"/><radialGradient id="SVGID_30_" cx="-125.279" cy="-1985.651" r="7.306" gradientTransform="matrix(1.3141 0 0 .0842 199.873 235.444)" gradientUnits="userSpaceOnUse"><stop offset="0"/><stop offset="1"/></radialGradient><path d="M25.754 68.252c0-.344 4.248-.623 9.489-.623 5.243 0 9.491.278 9.491.623 0 .343-4.248.622-9.491.622-5.241 0-9.489-.278-9.489-.622z" opacity=".707" fill="url(#SVGID_30_)"/><radialGradient id="SVGID_31_" cx="-48.594" cy="-2274.162" r="7.791" gradientTransform="matrix(1.1144 0 0 .0745 89.397 237.677)" gradientUnits="userSpaceOnUse"><stop offset="0"/><stop offset="1"/></radialGradient><path d="M26.459 68.252c0-.318 3.933-.574 8.784-.574 4.854 0 8.786.256 8.786.574 0 .317-3.933.573-8.786.573-4.851 0-8.784-.256-8.784-.573z" opacity=".732" fill="url(#SVGID_31_)"/><radialGradient id="SVGID_32_" cx="61.575" cy="-2649.053" r="8.477" gradientTransform="matrix(.9147 0 0 .0648 -21.079 239.91)" gradientUnits="userSpaceOnUse"><stop offset="0"/><stop offset="1"/></radialGradient><path d="M27.164 68.252c0-.291 3.617-.526 8.079-.526 4.464 0 8.081.235 8.081.526 0 .29-3.617.524-8.081.524-4.462.001-8.079-.234-8.079-.524z" opacity=".756" fill="url(#SVGID_32_)"/><radialGradient id="SVGID_33_" cx="233.285" cy="-3155.937" r="9.52" gradientTransform="matrix(.715 0 0 .0551 -131.554 242.144)" gradientUnits="userSpaceOnUse"><stop offset="0"/><stop offset="1"/></radialGradient><path d="M27.869 68.252c0-.264 3.302-.478 7.374-.478 4.074 0 7.376.213 7.376.478 0 .263-3.302.476-7.376.476-4.072.001-7.374-.212-7.374-.476z" opacity=".78" fill="url(#SVGID_33_)"/><radialGradient id="SVGID_34_" cx="538.083" cy="-3879.41" r="11.326" gradientTransform="matrix(.5153 0 0 .0454 -242.03 244.377)" gradientUnits="userSpaceOnUse"><stop offset="0"/><stop offset="1"/></radialGradient><path d="M28.575 68.252c0-.237 2.984-.429 6.668-.429 3.686 0 6.67.192 6.67.429 0 .236-2.984.428-6.67.428-3.683 0-6.668-.191-6.668-.428z" opacity=".805" fill="url(#SVGID_34_)"/><radialGradient id="SVGID_35_" cx="1228.611" cy="-4996.057" r="15.333" gradientTransform="matrix(.3156 0 0 .0357 -352.505 246.61)" gradientUnits="userSpaceOnUse"><stop offset="0"/><stop offset="1"/></radialGradient><path d="M29.28 68.252c0-.211 2.669-.38 5.963-.38 3.296 0 5.965.17 5.965.38 0 .209-2.669.379-5.965.379-3.294 0-5.963-.169-5.963-.379z" opacity=".829" fill="url(#SVGID_35_)"/><radialGradient id="SVGID_36_" cx="4298.757" cy="-6945.835" r="33.325" gradientTransform="matrix(.1159 0 0 .026 -462.982 248.843)" gradientUnits="userSpaceOnUse"><stop offset="0"/><stop offset="1"/></radialGradient><path d="M29.985 68.252c0-.184 2.353-.332 5.258-.332 2.906 0 5.26.148 5.26.332 0 .183-2.353.331-5.26.331-2.904 0-5.258-.147-5.258-.331z" opacity=".854" fill="url(#SVGID_36_)"/><radialGradient id="SVGID_37_" cx="-7263.739" cy="-11236.717" r="40.361" gradientTransform="matrix(-.0838 0 0 .0162 -573.457 250.286)" gradientUnits="userSpaceOnUse"><stop offset="0"/><stop offset="1"/></radialGradient><path d="M30.69 68.252c0-.157 2.038-.284 4.553-.284 2.517 0 4.555.127 4.555.284 0 .156-2.038.282-4.555.282-2.514.001-4.553-.125-4.553-.282z" opacity=".878" fill="url(#SVGID_37_)"/><radialGradient id="SVGID_38_" cx="-2536.78" cy="-28349.014" r="27.246" gradientTransform="matrix(-.2835 0 0 .0065 -683.933 252.52)" gradientUnits="userSpaceOnUse"><stop offset="0"/><stop offset="1"/></radialGradient><path d="M31.395 68.252c0-.13 1.723-.235 3.848-.235 2.127 0 3.85.105 3.85.235 0 .129-1.723.233-3.85.233-2.125.001-3.848-.103-3.848-.233z" opacity=".902" fill="url(#SVGID_38_)"/><radialGradient id="SVGID_39_" cx="-1716.997" cy="58281.738" r="41.368" gradientTransform="matrix(-.4832 0 0 -.0032 -794.409 254.753)" gradientUnits="userSpaceOnUse"><stop offset="0"/><stop offset="1"/></radialGradient><path d="M32.101 68.252c0-.104 1.407-.187 3.143-.187 1.737 0 3.145.084 3.145.187 0 .102-1.407.185-3.145.185-1.736.001-3.143-.082-3.143-.185z" opacity=".927" fill="url(#SVGID_39_)"/><radialGradient id="SVGID_40_" cx="-1376.671" cy="14630.572" r="7.946" gradientTransform="matrix(-.6829 0 0 -.0129 -904.885 256.986)" gradientUnits="userSpaceOnUse"><stop offset="0"/><stop offset="1"/></radialGradient><path d="M32.807 68.252c0-.077 1.09-.138 2.437-.138 1.349 0 2.438.061 2.438.138 0 .076-1.09.137-2.438.137s-2.437-.06-2.437-.137z" opacity=".951" fill="url(#SVGID_40_)"/><radialGradient id="SVGID_41_" cx="-1190.352" cy="8449.916" r="3.107" gradientTransform="matrix(-.8826 0 0 -.0226 -1015.36 259.22)" gradientUnits="userSpaceOnUse"><stop offset="0"/><stop offset="1"/></radialGradient><path d="M33.512 68.252c0-.05.774-.09 1.731-.09.959 0 1.733.04 1.733.09 0 .049-.774.088-1.733.088-.957 0-1.731-.038-1.731-.088z" opacity=".976" fill="url(#SVGID_41_)"/><radialGradient id="SVGID_42_" cx="-1072.79" cy="5981.476" r="1.112" gradientTransform="matrix(-1.0823 0 0 -.0323 -1125.836 261.453)" gradientUnits="userSpaceOnUse"><stop offset="0"/><stop offset="1"/></radialGradient><path d="M34.217 68.252c0-.023.459-.042 1.026-.042.569 0 1.028.018 1.028.042 0 .022-.459.039-1.028.039-.567.001-1.026-.016-1.026-.039z" fill="url(#SVGID_42_)"/></g><linearGradient id="SVGID_43_" gradientUnits="userSpaceOnUse" y1="33.113" x2="66.723" y2="33.113"><stop offset="0" stop-color="#f7941e"/><stop offset="1" stop-color="#4c216b"/></linearGradient><path d="M33.361 0c18.425 0 33.361 14.936 33.361 33.361v32.726c-10.307-6.853-21.959-3.009-29.95-.757a23.76 23.76 0 0 1-13.91-.305C9.582 60.628 0 48.117 0 33.361 0 14.936 14.936 0 33.361 0z" fill="url(#SVGID_43_)"/><g opacity=".7"><circle cx="35.958" cy="35.013" r="28.629" opacity=".014"/><path d="M35.919 63.606c-15.776 0-28.612-12.836-28.612-28.612 0-15.777 12.836-28.612 28.612-28.612 15.777 0 28.613 12.835 28.613 28.612 0 15.777-12.836 28.612-28.613 28.612z" opacity=".028"/><path d="M35.881 63.572c-15.769 0-28.597-12.829-28.597-28.596 0-15.768 12.828-28.596 28.597-28.596 15.768 0 28.596 12.828 28.596 28.596S51.648 63.572 35.881 63.572z" opacity=".042"/><circle cx="35.842" cy="34.958" r="28.58" opacity=".056"/><path d="M35.803 63.503c-15.75 0-28.564-12.814-28.564-28.563 0-15.75 12.814-28.563 28.564-28.563S64.366 19.19 64.366 34.94c0 15.749-12.813 28.563-28.563 28.563z" opacity=".07"/><ellipse transform="rotate(-89.267 35.763 34.923)" cx="35.764" cy="34.922" rx="28.547" ry="28.548" opacity=".085"/><ellipse transform="rotate(-1.702 35.68 34.863)" cx="35.725" cy="34.904" rx="28.531" ry="28.531" opacity=".099"/><path d="M35.685 63.4C19.962 63.4 7.17 50.608 7.17 34.886c0-15.723 12.792-28.515 28.515-28.515 15.724 0 28.516 12.792 28.516 28.515 0 15.722-12.792 28.514-28.516 28.514z" opacity=".113"/><path d="M35.647 63.366c-15.715 0-28.499-12.785-28.499-28.498 0-15.714 12.784-28.498 28.499-28.498 15.714 0 28.498 12.784 28.498 28.498.001 15.714-12.784 28.498-28.498 28.498z" opacity=".127"/><path d="M35.608 63.332c-15.705 0-28.482-12.777-28.482-28.481 0-15.705 12.777-28.482 28.482-28.482S64.091 19.146 64.091 34.85c0 15.704-12.778 28.482-28.483 28.482z" opacity=".141"/><ellipse transform="rotate(-1.403 35.577 34.89)" cx="35.569" cy="34.832" rx="28.466" ry="28.465" opacity=".155"/><path d="M35.53 63.263c-15.687 0-28.449-12.763-28.449-28.449 0-15.688 12.763-28.45 28.449-28.45s28.449 12.762 28.449 28.45c0 15.686-12.762 28.449-28.449 28.449z" opacity=".169"/><path d="M35.491 63.229c-15.678 0-28.433-12.755-28.433-28.432 0-15.678 12.755-28.433 28.433-28.433s28.434 12.755 28.434 28.433c0 15.676-12.756 28.432-28.434 28.432z" opacity=".183"/><path d="M35.452 63.194c-15.669 0-28.417-12.748-28.417-28.416 0-15.67 12.748-28.417 28.417-28.417 15.669 0 28.417 12.748 28.417 28.417 0 15.668-12.748 28.416-28.417 28.416z" opacity=".197"/><path d="M35.414 63.16c-15.66 0-28.401-12.741-28.401-28.4 0-15.66 12.741-28.4 28.401-28.4 15.659 0 28.4 12.74 28.4 28.4 0 15.659-12.741 28.4-28.4 28.4z" opacity=".211"/><path d="M35.375 63.125c-15.651 0-28.385-12.733-28.385-28.383 0-15.651 12.733-28.384 28.385-28.384 15.65 0 28.384 12.733 28.384 28.384 0 15.65-12.734 28.383-28.384 28.383z" opacity=".225"/><path d="M35.336 63.091c-15.642 0-28.368-12.726-28.368-28.367 0-15.642 12.726-28.368 28.368-28.368 15.642 0 28.368 12.726 28.368 28.368 0 15.641-12.727 28.367-28.368 28.367z" opacity=".239"/><path d="M35.297 63.057c-15.633 0-28.352-12.719-28.352-28.351 0-15.633 12.719-28.352 28.352-28.352s28.352 12.718 28.352 28.352c-.001 15.632-12.719 28.351-28.352 28.351z" opacity=".254"/><path d="M35.258 63.022c-15.624 0-28.335-12.711-28.335-28.334 0-15.624 12.711-28.335 28.335-28.335s28.336 12.711 28.336 28.335c0 15.623-12.712 28.334-28.336 28.334z" opacity=".268"/><path d="M35.219 62.988C19.604 62.988 6.9 50.284 6.9 34.67c0-15.615 12.704-28.319 28.318-28.319 15.615 0 28.319 12.704 28.319 28.319.001 15.614-12.703 28.318-28.318 28.318z" opacity=".282"/><path d="M35.181 62.954c-15.606 0-28.303-12.697-28.303-28.302 0-15.606 12.696-28.303 28.303-28.303 15.605 0 28.302 12.696 28.302 28.303-.001 15.605-12.697 28.302-28.302 28.302z" opacity=".296"/><circle cx="35.142" cy="34.634" r="28.286" opacity=".31"/><path d="M35.103 62.885c-15.588 0-28.271-12.682-28.271-28.27s12.683-28.27 28.271-28.27c15.588 0 28.27 12.682 28.27 28.27-.001 15.588-12.683 28.27-28.27 28.27z" opacity=".324"/><path d="M35.063 62.851c-15.579 0-28.254-12.675-28.254-28.253 0-15.579 12.675-28.254 28.254-28.254s28.254 12.675 28.254 28.254c0 15.578-12.674 28.253-28.254 28.253z" opacity=".338"/><ellipse transform="rotate(-89.1 35.024 34.579)" cx="35.024" cy="34.579" rx="28.237" ry="28.237" opacity=".352"/><path d="M34.985 62.782c-15.561 0-28.221-12.661-28.221-28.221C6.765 19 19.425 6.34 34.985 6.34c15.561 0 28.222 12.66 28.222 28.221 0 15.56-12.66 28.221-28.222 28.221z" opacity=".366"/><path d="M34.947 62.748c-15.553 0-28.205-12.653-28.205-28.204 0-15.552 12.652-28.205 28.205-28.205 15.552 0 28.204 12.652 28.204 28.205 0 15.551-12.652 28.204-28.204 28.204z" opacity=".38"/><circle cx="34.908" cy="34.525" r="28.188" opacity=".394"/><ellipse transform="rotate(-80.863 34.87 34.508)" cx="34.869" cy="34.507" rx="28.172" ry="28.172" opacity=".408"/><path d="M34.83 62.645c-15.525 0-28.155-12.631-28.155-28.155 0-15.525 12.63-28.156 28.155-28.156S62.986 18.965 62.986 34.49c0 15.524-12.631 28.155-28.156 28.155z" opacity=".422"/><path d="M34.791 62.61c-15.516 0-28.139-12.623-28.139-28.139S19.275 6.332 34.791 6.332c15.517 0 28.14 12.623 28.14 28.139S50.308 62.61 34.791 62.61z" opacity=".437"/><ellipse transform="rotate(-45.001 34.752 34.454)" cx="34.752" cy="34.453" rx="28.123" ry="28.123" opacity=".451"/><path d="M34.714 62.542c-15.498 0-28.107-12.609-28.107-28.106 0-15.498 12.609-28.107 28.107-28.107S62.82 18.938 62.82 34.436c0 15.497-12.608 28.106-28.106 28.106z" opacity=".465"/><path d="M34.675 62.507c-15.489 0-28.091-12.602-28.091-28.09 0-15.489 12.601-28.09 28.091-28.09s28.09 12.601 28.09 28.09c0 15.489-12.601 28.09-28.09 28.09z" opacity=".479"/><ellipse transform="rotate(-22.913 34.637 34.401)" cx="34.636" cy="34.399" rx="28.074" ry="28.074" opacity=".493"/><path d="M34.597 62.438c-15.471 0-28.058-12.587-28.058-28.057 0-15.472 12.587-28.058 28.058-28.058S62.654 18.91 62.654 34.381 50.067 62.438 34.597 62.438z" opacity=".507"/><path d="M34.558 62.404c-15.462 0-28.041-12.58-28.041-28.041 0-15.462 12.579-28.042 28.041-28.042S62.6 18.901 62.6 34.363c0 15.461-12.581 28.041-28.042 28.041z" opacity=".521"/><path d="M34.519 62.37c-15.453 0-28.025-12.573-28.025-28.025 0-15.454 12.571-28.025 28.025-28.025 15.453 0 28.025 12.572 28.025 28.025 0 15.452-12.572 28.025-28.025 28.025z" opacity=".535"/><path d="M34.48 62.335c-15.444 0-28.009-12.565-28.009-28.008 0-15.444 12.564-28.009 28.009-28.009 15.443 0 28.009 12.565 28.009 28.009S49.924 62.335 34.48 62.335z" opacity=".549"/><path d="M34.441 62.301c-15.436 0-27.993-12.558-27.993-27.992 0-15.435 12.558-27.993 27.993-27.993 15.435 0 27.992 12.558 27.992 27.993.001 15.434-12.557 27.992-27.992 27.992z" opacity=".563"/><path d="M34.402 62.267c-15.426 0-27.976-12.551-27.976-27.976 0-15.427 12.551-27.977 27.976-27.977 15.426 0 27.976 12.55 27.976 27.977 0 15.425-12.55 27.976-27.976 27.976z" opacity=".578"/><path d="M34.363 62.232c-15.417 0-27.96-12.543-27.96-27.959 0-15.417 12.543-27.96 27.96-27.96s27.96 12.543 27.96 27.96c0 15.416-12.543 27.959-27.96 27.959z" opacity=".592"/><ellipse transform="rotate(-88.097 34.325 34.256)" cx="34.324" cy="34.255" rx="27.944" ry="27.943" opacity=".606"/><path d="M34.285 62.164c-15.398 0-27.927-12.529-27.927-27.927 0-15.399 12.528-27.928 27.927-27.928s27.928 12.528 27.928 27.928c0 15.398-12.528 27.927-27.928 27.927z" opacity=".62"/><path d="M34.247 62.129c-15.391 0-27.911-12.521-27.911-27.911 0-15.391 12.521-27.911 27.911-27.911s27.91 12.521 27.91 27.911-12.52 27.911-27.91 27.911z" opacity=".634"/><circle cx="34.208" cy="34.201" r="27.895" opacity=".648"/><path d="M34.169 62.061c-15.372 0-27.878-12.506-27.878-27.878 0-15.373 12.506-27.878 27.878-27.878s27.878 12.506 27.878 27.878c0 15.371-12.506 27.878-27.878 27.878z" opacity=".662"/><path d="M34.13 62.026c-15.363 0-27.861-12.5-27.861-27.862 0-15.363 12.498-27.862 27.861-27.862s27.862 12.499 27.862 27.862c0 15.363-12.499 27.862-27.862 27.862z" opacity=".676"/><path d="M34.091 61.992c-15.353 0-27.846-12.492-27.846-27.846S18.737 6.3 34.091 6.3s27.846 12.492 27.846 27.846C61.936 49.5 49.445 61.992 34.091 61.992z" opacity=".69"/><path d="M34.052 61.958c-15.345 0-27.829-12.484-27.829-27.829s12.484-27.83 27.829-27.83c15.346 0 27.83 12.484 27.83 27.83 0 15.344-12.485 27.829-27.83 27.829z" opacity=".704"/><path d="M34.014 61.923C18.677 61.923 6.2 49.446 6.2 34.11c0-15.336 12.477-27.813 27.813-27.813 15.336 0 27.813 12.477 27.813 27.813 0 15.336-12.476 27.813-27.812 27.813z" opacity=".718"/><path d="M33.975 61.889c-15.327 0-27.797-12.47-27.797-27.797 0-15.328 12.47-27.797 27.797-27.797s27.796 12.469 27.796 27.797c0 15.327-12.469 27.797-27.796 27.797z" opacity=".732"/><path d="M33.935 61.854c-15.318 0-27.78-12.462-27.78-27.78 0-15.318 12.462-27.781 27.78-27.781 15.318 0 27.78 12.462 27.78 27.781.001 15.318-12.461 27.78-27.78 27.78z" opacity=".747"/><circle cx="33.896" cy="34.056" r="27.764" opacity=".761"/><path d="M33.857 61.786c-15.3 0-27.747-12.448-27.747-27.748S18.557 6.29 33.857 6.29c15.301 0 27.748 12.448 27.748 27.748S49.158 61.786 33.857 61.786z" opacity=".775"/><path d="M33.818 61.751c-15.291 0-27.731-12.441-27.731-27.731 0-15.292 12.439-27.732 27.731-27.732 15.292 0 27.731 12.441 27.731 27.732.001 15.291-12.439 27.731-27.731 27.731z" opacity=".789"/><ellipse transform="rotate(-1.621 33.723 34.007)" cx="33.78" cy="34.002" rx="27.715" ry="27.715" opacity=".803"/><path d="M33.741 61.683c-15.273 0-27.699-12.426-27.699-27.699 0-15.273 12.426-27.699 27.699-27.699 15.273 0 27.698 12.426 27.698 27.699 0 15.273-12.424 27.699-27.698 27.699z" opacity=".817"/><ellipse transform="rotate(-80.701 33.701 33.964)" cx="33.702" cy="33.966" rx="27.683" ry="27.683" opacity=".831"/><path d="M33.663 61.614c-15.255 0-27.666-12.412-27.666-27.666 0-15.256 12.411-27.667 27.666-27.667s27.666 12.411 27.666 27.667c0 15.255-12.411 27.666-27.666 27.666z" opacity=".845"/><path d="M33.624 61.58c-15.246 0-27.649-12.404-27.649-27.65 0-15.247 12.403-27.65 27.649-27.65s27.649 12.403 27.649 27.65c0 15.246-12.403 27.65-27.649 27.65z" opacity=".859"/><path d="M33.585 61.545c-15.236 0-27.633-12.397-27.633-27.633 0-15.238 12.396-27.634 27.633-27.634 15.237 0 27.634 12.396 27.634 27.634 0 15.236-12.397 27.633-27.634 27.633z" opacity=".873"/><path d="M33.547 61.511c-15.228 0-27.617-12.39-27.617-27.617 0-15.229 12.389-27.618 27.617-27.618 15.228 0 27.616 12.389 27.616 27.618 0 15.227-12.389 27.617-27.616 27.617z" opacity=".887"/><path d="M33.508 61.477c-15.22 0-27.601-12.382-27.601-27.601 0-15.22 12.381-27.601 27.601-27.601 15.219 0 27.601 12.382 27.601 27.601-.001 15.219-12.382 27.601-27.601 27.601z" opacity=".901"/><path d="M33.469 61.442c-15.21 0-27.584-12.375-27.584-27.584 0-15.211 12.374-27.585 27.584-27.585 15.21 0 27.584 12.375 27.584 27.585 0 15.209-12.374 27.584-27.584 27.584z" opacity=".915"/><path d="M33.43 61.408c-15.201 0-27.567-12.368-27.567-27.568 0-15.202 12.366-27.569 27.567-27.569S60.998 18.638 60.998 33.84c0 15.201-12.367 27.568-27.568 27.568z" opacity=".93"/><path d="M33.391 61.374c-15.192 0-27.552-12.36-27.552-27.552 0-15.193 12.359-27.553 27.552-27.553s27.552 12.36 27.552 27.553c-.001 15.191-12.36 27.552-27.552 27.552z" opacity=".944"/><path d="M33.352 61.339c-15.183 0-27.535-12.353-27.535-27.536 0-15.184 12.352-27.536 27.535-27.536 15.184 0 27.536 12.353 27.536 27.536 0 15.183-12.353 27.536-27.536 27.536z" opacity=".958"/><path d="M33.313 61.305c-15.175 0-27.52-12.346-27.52-27.52 0-15.175 12.345-27.52 27.52-27.52 15.174 0 27.518 12.345 27.518 27.52.001 15.174-12.344 27.52-27.518 27.52z" opacity=".972"/><ellipse transform="translate(-.136 .134)" cx="33.274" cy="33.767" rx="27.503" ry="27.503" opacity=".986"/><path d="M33.235 61.236c-15.156 0-27.486-12.331-27.486-27.487 0-15.157 12.33-27.487 27.486-27.487s27.486 12.33 27.486 27.487c.001 15.156-12.329 27.487-27.486 27.487z"/></g><linearGradient id="SVGID_44_" gradientUnits="userSpaceOnUse" x1="13.967" y1="14.481" x2="52.821" y2="53.335"><stop offset="0" stop-color="#c3c4c3"/><stop offset=".217" stop-color="#dadada"/><stop offset=".484" stop-color="#eeefee"/><stop offset=".747" stop-color="#fbfbfb"/><stop offset="1" stop-color="#fff"/></linearGradient><path d="M33.235 61.236c-15.156 0-27.486-12.331-27.486-27.487 0-15.157 12.33-27.487 27.486-27.487s27.486 12.33 27.486 27.487c.001 15.156-12.329 27.487-27.486 27.487z" fill="url(#SVGID_44_)" stroke="#fff" stroke-width=".74" stroke-miterlimit="10"/><linearGradient id="SVGID_45_" gradientUnits="userSpaceOnUse" x1="18.582" y1="33.749" x2="43.907" y2="33.749"><stop offset="0" stop-color="#4c216b"/><stop offset="1" stop-color="#f7941e"/></linearGradient><path d="M38.173 46.412H24.315a5.74 5.74 0 0 1-5.733-5.734V26.822a5.741 5.741 0 0 1 5.733-5.735h13.857a5.742 5.742 0 0 1 5.734 5.735v13.855a5.74 5.74 0 0 1-5.733 5.735zM24.315 23.61a3.216 3.216 0 0 0-3.213 3.212v13.855a3.217 3.217 0 0 0 3.213 3.215h13.857a3.216 3.216 0 0 0 3.212-3.215V26.822a3.216 3.216 0 0 0-3.212-3.212H24.315zm6.93 16.76a6.552 6.552 0 0 1-6.545-6.545 6.552 6.552 0 0 1 6.545-6.545 6.552 6.552 0 0 1 6.545 6.545 6.553 6.553 0 0 1-6.545 6.545zm0-10.57a4.03 4.03 0 0 0-4.025 4.025 4.027 4.027 0 0 0 4.025 4.024 4.026 4.026 0 0 0 4.024-4.024 4.027 4.027 0 0 0-4.024-4.025zm6.795-4.131c-.919 0-1.66.742-1.66 1.663a1.66 1.66 0 0 0 3.323 0c0-.92-.746-1.663-1.663-1.663z" fill="url(#SVGID_45_)"/></svg>