<svg xmlns="http://www.w3.org/2000/svg" xmlns:xlink="http://www.w3.org/1999/xlink" viewBox="0 0 66.22 70.53"><defs><style>.cls-44{fill:#ff9800}</style><radialGradient id="Безымянный_градиент_43" cx="-479.54" cy="-181.62" r="4.92" gradientTransform="matrix(7.11 0 0 -.37 3442.34 2.06)" gradientUnits="userSpaceOnUse"><stop offset="0"/><stop offset="1"/></radialGradient><radialGradient id="Безымянный_градиент_43-2" cx="-477.23" cy="-190.73" r="4.94" gradientTransform="matrix(6.91 0 0 -.36 3330.62 .58)" xlink:href="#Безымянный_градиент_43"/><radialGradient id="Безымянный_градиент_43-3" cx="-474.78" cy="-200.35" r="4.96" gradientTransform="matrix(6.71 0 0 -.35 3218.88 -.9)" xlink:href="#Безымянный_градиент_43"/><radialGradient id="Безымянный_градиент_43-4" cx="-472.18" cy="-210.53" r="4.98" gradientTransform="matrix(6.51 0 0 -.34 3107.14 -2.38)" xlink:href="#Безымянный_градиент_43"/><radialGradient id="Безымянный_градиент_43-5" cx="-469.41" cy="-221.31" r="5" gradientTransform="matrix(6.31 0 0 -.33 2995.4 -3.87)" xlink:href="#Безымянный_градиент_43"/><radialGradient id="Безымянный_градиент_43-6" cx="-466.47" cy="-232.74" r="5.02" gradientTransform="matrix(6.11 0 0 -.32 2883.66 -5.35)" xlink:href="#Безымянный_градиент_43"/><radialGradient id="Безымянный_градиент_43-7" cx="-463.32" cy="-247.68" r="5.04" gradientTransform="matrix(5.91 0 0 -.31 2771.92 -7.66)" xlink:href="#Безымянный_градиент_43"/><radialGradient id="Безымянный_градиент_43-8" cx="-459.95" cy="-260.73" r="5.07" gradientTransform="matrix(5.71 0 0 -.3 2660.18 -9.14)" xlink:href="#Безымянный_градиент_43"/><radialGradient id="Безымянный_градиент_43-9" cx="-456.34" cy="-274.65" r="5.09" gradientTransform="matrix(5.51 0 0 -.29 2548.44 -10.63)" xlink:href="#Безымянный_градиент_43"/><radialGradient id="Безымянный_градиент_43-10" cx="-452.46" cy="-289.55" r="5.12" gradientTransform="matrix(5.31 0 0 -.28 2436.7 -12.11)" xlink:href="#Безымянный_градиент_43"/><radialGradient id="Безымянный_градиент_43-11" cx="-448.27" cy="-305.52" r="5.15" gradientTransform="matrix(5.11 0 0 -.27 2324.95 -13.59)" xlink:href="#Безымянный_градиент_43"/><radialGradient id="Безымянный_градиент_43-12" cx="-443.75" cy="-322.69" r="5.18" gradientTransform="matrix(4.91 0 0 -.26 2213.21 -15.08)" xlink:href="#Безымянный_градиент_43"/><radialGradient id="Безымянный_градиент_43-13" cx="-438.84" cy="-341.19" r="5.22" gradientTransform="matrix(4.71 0 0 -.25 2101.47 -16.56)" xlink:href="#Безымянный_градиент_43"/><radialGradient id="Безымянный_градиент_43-14" cx="-433.49" cy="-361.19" r="5.25" gradientTransform="matrix(4.51 0 0 -.24 1989.73 -18.04)" xlink:href="#Безымянный_градиент_43"/><radialGradient id="Безымянный_градиент_43-15" cx="-427.65" cy="-382.89" r="5.3" gradientTransform="matrix(4.31 0 0 -.23 1877.99 -19.52)" xlink:href="#Безымянный_градиент_43"/><radialGradient id="Безымянный_градиент_43-16" cx="-421.24" cy="-406.48" r="5.34" gradientTransform="matrix(4.11 0 0 -.22 1766.25 -21.01)" xlink:href="#Безымянный_градиент_43"/><radialGradient id="Безымянный_градиент_43-17" cx="-414.18" cy="-436.41" r="5.39" gradientTransform="matrix(3.91 0 0 -.21 1654.51 -23.32)" xlink:href="#Безымянный_градиент_43"/><radialGradient id="Безымянный_градиент_43-18" cx="-406.35" cy="-464.89" r="5.45" gradientTransform="matrix(3.71 0 0 -.2 1542.77 -24.8)" xlink:href="#Безымянный_градиент_43"/><radialGradient id="Безымянный_градиент_43-19" cx="-397.64" cy="-496.26" r="5.51" gradientTransform="matrix(3.51 0 0 -.19 1431.03 -26.28)" xlink:href="#Безымянный_градиент_43"/><radialGradient id="Безымянный_градиент_43-20" cx="-387.87" cy="-530.99" r="5.58" gradientTransform="matrix(3.31 0 0 -.18 1319.29 -27.77)" xlink:href="#Безымянный_градиент_43"/><radialGradient id="Безымянный_градиент_43-21" cx="-376.86" cy="-569.65" r="5.66" gradientTransform="matrix(3.11 0 0 -.17 1207.55 -29.25)" xlink:href="#Безымянный_градиент_43"/><radialGradient id="Безымянный_градиент_43-22" cx="-364.33" cy="-612.93" r="5.74" gradientTransform="matrix(2.91 0 0 -.16 1095.81 -30.73)" xlink:href="#Безымянный_градиент_43"/><radialGradient id="Безымянный_градиент_43-23" cx="-349.95" cy="-661.74" r="5.84" gradientTransform="matrix(2.71 0 0 -.15 984.06 -32.22)" xlink:href="#Безымянный_градиент_43"/><radialGradient id="Безымянный_градиент_43-24" cx="-333.29" cy="-717.19" r="5.96" gradientTransform="matrix(2.51 0 0 -.14 872.32 -33.7)" xlink:href="#Безымянный_градиент_43"/><radialGradient id="Безымянный_градиент_43-25" cx="-313.75" cy="-780.74" r="6.09" gradientTransform="matrix(2.31 0 0 -.13 760.58 -35.18)" xlink:href="#Безымянный_градиент_43"/><radialGradient id="Безымянный_градиент_43-26" cx="-290.52" cy="-854.32" r="6.24" gradientTransform="matrix(2.11 0 0 -.12 648.84 -36.67)" xlink:href="#Безымянный_градиент_43"/><radialGradient id="Безымянный_градиент_43-27" cx="-262.44" cy="-948.61" r="6.43" gradientTransform="matrix(1.91 0 0 -.11 537.09 -38.98)" xlink:href="#Безымянный_градиент_43"/><radialGradient id="Безымянный_градиент_43-28" cx="-227.81" cy="-1051.73" r="6.66" gradientTransform="matrix(1.71 0 0 -.1 425.35 -40.46)" xlink:href="#Безымянный_градиент_43"/><radialGradient id="Безымянный_градиент_43-29" cx="-184.05" cy="-1176.19" r="6.94" gradientTransform="matrix(1.51 0 0 -.09 313.61 -41.94)" xlink:href="#Безымянный_градиент_43"/><radialGradient id="Безымянный_градиент_43-30" cx="-126.98" cy="-1329.3" r="7.31" gradientTransform="matrix(1.31 0 0 -.08 201.87 -43.43)" xlink:href="#Безымянный_градиент_43"/><radialGradient id="Безымянный_градиент_43-31" cx="-49.47" cy="-1522.28" r="7.79" gradientTransform="matrix(1.11 0 0 -.07 90.12 -44.91)" xlink:href="#Безымянный_градиент_43"/><radialGradient id="Безымянный_градиент_43-32" cx="61.89" cy="-1773.03" r="8.48" gradientTransform="matrix(.91 0 0 -.06 -21.62 -46.39)" xlink:href="#Безымянный_градиент_43"/><radialGradient id="Безымянный_градиент_43-33" cx="235.46" cy="-2112.07" r="9.52" gradientTransform="matrix(.71 0 0 -.06 -133.36 -47.88)" xlink:href="#Безымянный_градиент_43"/><radialGradient id="Безымянный_градиент_43-34" cx="543.57" cy="-2596.02" r="11.33" gradientTransform="matrix(.52 0 0 -.05 -245.1 -49.36)" xlink:href="#Безымянный_градиент_43"/><radialGradient id="Безымянный_градиент_43-35" cx="1241.58" cy="-3342.9" r="15.33" gradientTransform="matrix(.32 0 0 -.04 -356.85 -50.84)" xlink:href="#Безымянный_градиент_43"/><radialGradient id="Безымянный_градиент_43-36" cx="4345" cy="-4647.13" r="33.32" gradientTransform="matrix(.12 0 0 -.03 -468.59 -52.32)" xlink:href="#Безымянный_градиент_43"/><radialGradient id="Безымянный_градиент_43-37" cx="-7342.81" cy="-7601.01" r="40.36" gradientTransform="matrix(-.08 0 0 -.02 -580.33 -54.64)" xlink:href="#Безымянный_градиент_43"/><radialGradient id="Безымянный_градиент_43-38" cx="-2564.62" cy="-19172.18" r="27.24" gradientTransform="matrix(-.28 0 0 -.01 -692.08 -56.12)" xlink:href="#Безымянный_градиент_43"/><radialGradient id="Безымянный_градиент_43-39" cx="-1735.95" cy="39407.07" r="41.36" gradientTransform="matrix(-.48 0 0 0 -803.82 -57.6)" xlink:href="#Безымянный_градиент_43"/><radialGradient id="Безымянный_градиент_43-40" cx="-1391.94" cy="9890.42" r="7.93" gradientTransform="matrix(-.68 0 0 .01 -915.56 -59.09)" xlink:href="#Безымянный_градиент_43"/><radialGradient id="Безымянный_градиент_43-41" cx="-1203.6" cy="5711" r="3.11" gradientTransform="matrix(-.88 0 0 .02 -1027.3 -60.57)" xlink:href="#Безымянный_градиент_43"/><radialGradient id="Безымянный_градиент_43-42" cx="-1084.77" cy="4041.85" r="1.11" gradientTransform="matrix(-1.08 0 0 .03 -1139.05 -62.05)" xlink:href="#Безымянный_градиент_43"/><linearGradient id="Безымянный_градиент_44" x1="13.72" y1="57.27" x2="52.57" y2="18.42" gradientTransform="matrix(1 0 0 -1 0 72)" gradientUnits="userSpaceOnUse"><stop offset="0" stop-color="#c3c4c3"/><stop offset=".22" stop-color="#dadada"/><stop offset=".48" stop-color="#eeefee"/><stop offset=".75" stop-color="#fbfbfb"/><stop offset="1" stop-color="#fff"/></linearGradient></defs><g id="Слой_2" data-name="Слой 2"><g id="Слой_1-2" data-name="Слой 1"><g opacity=".3"><path d="M64.94 68.5c0 1.12-13.4 2-29.94 2s-29.94-.91-29.94-2 13.41-2 29.94-2 29.94.88 29.94 2z" fill="url(#Безымянный_градиент_43)" fill-opacity="0"/><path d="M5.76 68.5c0-1.09 13.09-2 29.24-2s29.24.89 29.24 2-13.09 2-29.24 2-29.24-.91-29.24-2z" style="isolation:isolate" opacity=".02" fill="url(#Безымянный_градиент_43-2)"/><path d="M6.46 68.5c0-1.07 12.77-1.93 28.53-1.93s28.53.86 28.53 1.93S50.75 70.43 35 70.43 6.46 69.57 6.46 68.5z" style="isolation:isolate" opacity=".05" fill="url(#Безымянный_градиент_43-3)"/><path d="M7.17 68.5c0-1 12.46-1.88 27.83-1.88s27.83.84 27.83 1.88S50.36 70.38 35 70.38 7.17 69.54 7.17 68.5z" style="isolation:isolate" opacity=".07" fill="url(#Безымянный_градиент_43-4)"/><path d="M7.87 68.5c0-1 12.14-1.83 27.12-1.83s27.12.82 27.12 1.83S50 70.33 35 70.33 7.87 69.51 7.87 68.5z" style="isolation:isolate" opacity=".1" fill="url(#Безымянный_градиент_43-5)"/><path d="M8.58 68.5c0-1 11.83-1.79 26.42-1.79s26.42.8 26.42 1.79S49.58 70.29 35 70.29s-26.42-.8-26.42-1.79z" style="isolation:isolate" opacity=".12" fill="url(#Безымянный_градиент_43-6)"/><path d="M9.28 68.5c0-1 11.51-1.74 25.71-1.74s25.71.78 25.71 1.74-11.51 1.74-25.7 1.74-25.72-.78-25.72-1.74z" style="isolation:isolate" opacity=".15" fill="url(#Безымянный_градиент_43-7)"/><path d="M10 68.5c0-.93 11.19-1.69 25-1.69s25 .75 25 1.69-11.19 1.69-25 1.69-25-.76-25-1.69z" style="isolation:isolate" opacity=".17" fill="url(#Безымянный_градиент_43-8)"/><path d="M10.69 68.5c0-.91 10.88-1.64 24.3-1.64s24.3.73 24.3 1.64S48.42 70.14 35 70.14s-24.31-.73-24.31-1.64z" style="isolation:isolate" opacity=".2" fill="url(#Безымянный_градиент_43-9)"/><path d="M11.4 68.5c0-.88 10.56-1.59 23.59-1.59s23.59.71 23.59 1.59S48 70.09 35 70.09s-23.6-.71-23.6-1.59z" style="isolation:isolate" opacity=".22" fill="url(#Безымянный_градиент_43-10)"/><path d="M12.11 68.5c0-.85 10.24-1.5 22.89-1.5s22.89.69 22.89 1.54S47.64 70 35 70s-22.89-.65-22.89-1.5z" style="isolation:isolate" opacity=".24" fill="url(#Безымянный_градиент_43-11)"/><path d="M12.81 68.5c0-.83 9.93-1.5 22.18-1.5s22.18.67 22.18 1.5S47.25 70 35 70s-22.19-.67-22.19-1.5z" style="isolation:isolate" opacity=".27" fill="url(#Безымянный_градиент_43-12)"/><path d="M13.52 68.5c0-.8 9.62-1.45 21.48-1.45s21.48.65 21.48 1.45-9.62 1.45-21.48 1.45-21.48-.65-21.48-1.45z" style="isolation:isolate" opacity=".29" fill="url(#Безымянный_градиент_43-13)"/><path d="M14.22 68.5c0-.77 9.3-1.4 20.77-1.4s20.77.63 20.77 1.4-9.29 1.4-20.76 1.4-20.78-.63-20.78-1.4z" style="isolation:isolate" opacity=".32" fill="url(#Безымянный_градиент_43-14)"/><path d="M14.93 68.5c0-.75 9-1.35 20.07-1.35s20.07.6 20.07 1.35-9 1.35-20.07 1.35-20.07-.6-20.07-1.35z" style="isolation:isolate" opacity=".34" fill="url(#Безымянный_градиент_43-15)"/><path d="M15.63 68.5c0-.72 8.67-1.3 19.36-1.3s19.36.58 19.36 1.3-8.66 1.3-19.35 1.3-19.37-.58-19.37-1.3z" style="isolation:isolate" opacity=".37" fill="url(#Безымянный_градиент_43-16)"/><path d="M16.34 68.5c0-.69 8.35-1.25 18.66-1.25s18.66.56 18.66 1.25S45.3 69.75 35 69.75s-18.66-.56-18.66-1.25z" style="isolation:isolate" opacity=".39" fill="url(#Безымянный_градиент_43-17)"/><path d="M17 68.5c0-.67 8-1.2 18-1.2s18 .54 18 1.2-8 1.2-18 1.2-18-.53-18-1.2z" style="isolation:isolate" opacity=".41" fill="url(#Безымянный_градиент_43-18)"/><path d="M17.75 68.5c0-.64 7.72-1.15 17.25-1.15s17.25.52 17.25 1.15-7.73 1.16-17.25 1.16-17.25-.52-17.25-1.16z" style="isolation:isolate" opacity=".44" fill="url(#Безымянный_градиент_43-19)"/><path d="M18.45 68.5c0-.61 7.41-1.11 16.54-1.11s16.54.5 16.54 1.11-7.4 1.11-16.53 1.11-16.55-.5-16.55-1.11z" style="isolation:isolate" opacity=".46" fill="url(#Безымянный_градиент_43-20)"/><path d="M19.16 68.5c0-.58 7.09-1.06 15.84-1.06s15.84.47 15.84 1.06-7.1 1.06-15.84 1.06-15.84-.48-15.84-1.06z" style="isolation:isolate" opacity=".49" fill="url(#Безымянный_градиент_43-21)"/><path d="M19.86 68.5c0-.56 6.77-1 15.13-1s15.13.45 15.13 1-6.77 1-15.13 1-15.13-.44-15.13-1z" style="isolation:isolate" opacity=".51" fill="url(#Безымянный_градиент_43-22)"/><path d="M20.57 68.5c0-.53 6.46-1 14.43-1s14.43.43 14.43 1-6.46 1-14.43 1-14.43-.5-14.43-1z" style="isolation:isolate" opacity=".54" fill="url(#Безымянный_градиент_43-23)"/><path d="M21.27 68.5c0-.5 6.14-.91 13.72-.91s13.72.41 13.72.91-6.14.91-13.72.91-13.72-.41-13.72-.91z" style="isolation:isolate" opacity=".56" fill="url(#Безымянный_градиент_43-24)"/><path d="M22 68.5c0-.48 5.83-.86 13-.86s13 .36 13 .86-5.83.86-13 .86-13-.36-13-.86z" style="isolation:isolate" opacity=".59" fill="url(#Безымянный_градиент_43-25)"/><path d="M22.68 68.5c0-.45 5.51-.82 12.31-.82s12.31.36 12.31.82-5.51.82-12.31.82-12.31-.32-12.31-.82z" style="isolation:isolate" opacity=".61" fill="url(#Безымянный_градиент_43-26)"/><path d="M23.39 68.5c0-.43 5.2-.77 11.6-.77s11.61.34 11.61.77-5.19.77-11.61.77-11.6-.34-11.6-.77z" style="isolation:isolate" opacity=".63" fill="url(#Безымянный_градиент_43-27)"/><path d="M24.1 68.5c0-.4 4.88-.72 10.9-.72s10.9.32 10.9.72-4.88.72-10.9.72-10.9-.32-10.9-.72z" style="isolation:isolate" opacity=".66" fill="url(#Безымянный_градиент_43-28)"/><path d="M24.8 68.5c0-.37 4.56-.67 10.19-.67s10.19.3 10.19.67-4.56.67-10.19.67-10.19-.3-10.19-.67z" style="isolation:isolate" opacity=".68" fill="url(#Безымянный_градиент_43-29)"/><path d="M25.51 68.5c0-.34 4.25-.62 9.49-.62s9.49.28 9.49.62-4.25.62-9.49.62-9.49-.28-9.49-.62z" style="isolation:isolate" opacity=".71" fill="url(#Безымянный_градиент_43-30)"/><path d="M26.21 68.5c0-.32 3.93-.57 8.78-.57s8.78.26 8.78.57-3.93.57-8.78.57-8.78-.25-8.78-.57z" style="isolation:isolate" opacity=".73" fill="url(#Безымянный_градиент_43-31)"/><path d="M26.92 68.5c0-.29 3.62-.53 8.08-.53s8.08.24 8.08.53-3.62.5-8.08.5-8.08-.21-8.08-.5z" style="isolation:isolate" opacity=".76" fill="url(#Безымянный_градиент_43-32)"/><path d="M27.62 68.5c0-.26 3.3-.48 7.37-.48s7.38.21 7.38.48-3.3.5-7.37.5-7.38-.24-7.38-.5z" style="isolation:isolate" opacity=".78" fill="url(#Безымянный_градиент_43-33)"/><path d="M28.33 68.5c0-.24 3-.43 6.67-.43s6.67.19 6.67.43-3 .43-6.67.43-6.67-.19-6.67-.43z" style="isolation:isolate" opacity=".8" fill="url(#Безымянный_градиент_43-34)"/><path d="M29 68.5c0-.21 2.67-.38 6-.38s6 .17 6 .38-2.67.38-6 .38-6-.17-6-.38z" style="isolation:isolate" opacity=".83" fill="url(#Безымянный_градиент_43-35)"/><path d="M29.74 68.5c0-.18 2.35-.33 5.26-.33s5.26.15 5.26.33-2.35.33-5.26.33-5.26-.15-5.26-.33z" style="isolation:isolate" opacity=".85" fill="url(#Безымянный_градиент_43-36)"/><path d="M30.44 68.5a18.48 18.48 0 0 1 4.56-.28 18.48 18.48 0 0 1 4.55.28 18.6 18.6 0 0 1-4.55.28 18.61 18.61 0 0 1-4.56-.28z" style="isolation:isolate" opacity=".88" fill="url(#Безымянный_градиент_43-37)"/><path d="M31.15 68.5a16 16 0 0 1 3.85-.23 15.94 15.94 0 0 1 3.85.24 16.07 16.07 0 0 1-3.85.23 16.07 16.07 0 0 1-3.85-.24z" style="isolation:isolate" opacity=".9" fill="url(#Безымянный_градиент_43-38)"/><path d="M31.85 68.5a13.32 13.32 0 0 1 3.15-.19 13.33 13.33 0 0 1 3.14.19 13.45 13.45 0 0 1-3.14.18 13.46 13.46 0 0 1-3.15-.18z" style="isolation:isolate" opacity=".93" fill="url(#Безымянный_градиент_43-39)"/><path d="M32.56 68.5a10.82 10.82 0 0 1 2.44-.14 10.81 10.81 0 0 1 2.44.14 10.92 10.92 0 0 1-2.44.14 10.92 10.92 0 0 1-2.44-.14z" style="isolation:isolate" opacity=".95" fill="url(#Безымянный_градиент_43-40)"/><path d="M33.26 68.5a8.37 8.37 0 0 1 1.74-.09 8.29 8.29 0 0 1 1.73.09 8.54 8.54 0 0 1-1.73.09 8.55 8.55 0 0 1-1.74-.09z" style="isolation:isolate" opacity=".98" fill="url(#Безымянный_градиент_43-41)"/><path d="M34 68.5a6.4 6.4 0 0 1 1 0 6.4 6.4 0 0 1 1 0 6.7 6.7 0 0 1-1 0 6.71 6.71 0 0 1-1 0z" fill="url(#Безымянный_градиент_43-42)"/></g><path class="cls-44" d="M66.22 33.36A33.36 33.36 0 0 0 32.86 0H.14C7 10.31 3.15 22 .89 30a23.75 23.75 0 0 0 .31 13.86 33.36 33.36 0 0 0 65-10.5z"/><g opacity=".7"><path d="M35.75 63.92a28.65 28.65 0 1 1 28.64-28.64 28.68 28.68 0 0 1-28.64 28.64z" fill-opacity="0"/><path d="M35.71 63.89a28.63 28.63 0 1 1 28.63-28.63 28.66 28.66 0 0 1-28.63 28.63z" style="isolation:isolate" opacity=".01"/><path d="M35.67 63.85a28.61 28.61 0 1 1 28.61-28.61 28.65 28.65 0 0 1-28.61 28.61z" style="isolation:isolate" opacity=".03"/><path d="M35.63 63.82a28.6 28.6 0 1 1 28.59-28.6 28.63 28.63 0 0 1-28.59 28.6z" style="isolation:isolate" opacity=".04"/><path d="M35.59 63.79a28.58 28.58 0 1 1 28.58-28.58 28.61 28.61 0 0 1-28.58 28.58z" style="isolation:isolate" opacity=".06"/><path d="M35.55 63.75a28.56 28.56 0 1 1 28.57-28.56 28.6 28.6 0 0 1-28.57 28.56z" style="isolation:isolate" opacity=".07"/><path d="M35.51 63.72a28.55 28.55 0 1 1 28.55-28.55 28.58 28.58 0 0 1-28.55 28.55z" style="isolation:isolate" opacity=".08"/><path d="M35.48 63.68A28.53 28.53 0 1 1 64 35.15a28.56 28.56 0 0 1-28.52 28.53z" style="isolation:isolate" opacity=".1"/><path d="M35.44 63.65A28.51 28.51 0 1 1 64 35.13a28.55 28.55 0 0 1-28.56 28.52z" style="isolation:isolate" opacity=".11"/><path d="M35.4 63.62a28.5 28.5 0 1 1 28.5-28.5 28.53 28.53 0 0 1-28.5 28.5z" style="isolation:isolate" opacity=".13"/><path d="M35.36 63.58A28.48 28.48 0 1 1 63.84 35.1a28.51 28.51 0 0 1-28.48 28.48z" style="isolation:isolate" opacity=".14"/><path d="M35.32 63.55a28.47 28.47 0 1 1 28.47-28.47 28.5 28.5 0 0 1-28.47 28.47z" style="isolation:isolate" opacity=".15"/><path d="M35.28 63.51a28.45 28.45 0 1 1 28.45-28.45 28.48 28.48 0 0 1-28.45 28.45z" style="isolation:isolate" opacity=".17"/><path d="M35.24 63.48A28.43 28.43 0 1 1 63.68 35a28.47 28.47 0 0 1-28.44 28.48z" style="isolation:isolate" opacity=".18"/><path d="M35.2 63.44A28.42 28.42 0 1 1 63.62 35 28.45 28.45 0 0 1 35.2 63.44z" style="isolation:isolate" opacity=".2"/><path d="M35.17 63.41A28.4 28.4 0 1 1 63.56 35a28.43 28.43 0 0 1-28.39 28.41z" style="isolation:isolate" opacity=".21"/><path d="M35.13 63.37A28.38 28.38 0 1 1 63.51 35a28.42 28.42 0 0 1-28.38 28.37z" style="isolation:isolate" opacity=".23"/><path d="M35.09 63.34A28.37 28.37 0 1 1 63.45 35a28.4 28.4 0 0 1-28.36 28.34z" style="isolation:isolate" opacity=".24"/><path d="M35 63.31A28.35 28.35 0 1 1 63.4 35 28.38 28.38 0 0 1 35 63.31z" style="isolation:isolate" opacity=".25"/><path d="M35 63.27a28.33 28.33 0 1 1 28.34-28.33A28.37 28.37 0 0 1 35 63.27z" style="isolation:isolate" opacity=".27"/><path d="M35 63.24a28.32 28.32 0 1 1 28.29-28.32A28.35 28.35 0 0 1 35 63.24z" style="isolation:isolate" opacity=".28"/><path d="M34.93 63.2a28.3 28.3 0 1 1 28.3-28.3 28.34 28.34 0 0 1-28.3 28.3z" style="isolation:isolate" opacity=".3"/><path d="M34.89 63.17a28.29 28.29 0 1 1 28.29-28.29 28.32 28.32 0 0 1-28.29 28.29z" style="isolation:isolate" opacity=".31"/><path d="M34.85 63.13a28.27 28.27 0 1 1 28.27-28.27 28.3 28.3 0 0 1-28.27 28.27z" style="isolation:isolate" opacity=".32"/><path d="M34.81 63.1a28.25 28.25 0 1 1 28.26-28.25A28.29 28.29 0 0 1 34.81 63.1z" style="isolation:isolate" opacity=".34"/><circle cx="34.78" cy="34.83" r="28.24" style="isolation:isolate" opacity=".35"/><path d="M34.74 63A28.22 28.22 0 1 1 63 34.81 28.25 28.25 0 0 1 34.74 63z" style="isolation:isolate" opacity=".37"/><path d="M34.7 63a28.2 28.2 0 1 1 28.2-28.2A28.24 28.24 0 0 1 34.7 63z" style="isolation:isolate" opacity=".38"/><path d="M34.66 63a28.19 28.19 0 1 1 28.19-28.23A28.22 28.22 0 0 1 34.66 63z" style="isolation:isolate" opacity=".39"/><path d="M34.62 62.93a28.17 28.17 0 1 1 28.17-28.17 28.21 28.21 0 0 1-28.17 28.17z" style="isolation:isolate" opacity=".41"/><path d="M34.58 62.89a28.16 28.16 0 1 1 28.16-28.15 28.19 28.19 0 0 1-28.16 28.15z" style="isolation:isolate" opacity=".42"/><path d="M34.54 62.86a28.14 28.14 0 1 1 28.14-28.14 28.17 28.17 0 0 1-28.14 28.14z" style="isolation:isolate" opacity=".44"/><circle cx="34.5" cy="34.7" r="28.12" transform="rotate(-45 34.503 34.699)" style="isolation:isolate" opacity=".45"/><path d="M34.47 62.79a28.11 28.11 0 1 1 28.1-28.11 28.14 28.14 0 0 1-28.1 28.11z" style="isolation:isolate" opacity=".46"/><path d="M34.43 62.76a28.09 28.09 0 1 1 28.09-28.09 28.12 28.12 0 0 1-28.09 28.09z" style="isolation:isolate" opacity=".48"/><path d="M34.39 62.72a28.07 28.07 0 1 1 28.07-28.07 28.11 28.11 0 0 1-28.07 28.07z" style="isolation:isolate" opacity=".49"/><path d="M34.35 62.69a28.06 28.06 0 1 1 28.06-28.06 28.09 28.09 0 0 1-28.06 28.06z" style="isolation:isolate" opacity=".51"/><path d="M34.31 62.65a28 28 0 1 1 28-28 28.07 28.07 0 0 1-28 28z" style="isolation:isolate" opacity=".52"/><path d="M34.27 62.62a28 28 0 1 1 28-28 28.06 28.06 0 0 1-28 28z" style="isolation:isolate" opacity=".54"/><path d="M34.23 62.58a28 28 0 1 1 28-28 28 28 0 0 1-28 28z" style="isolation:isolate" opacity=".55"/><path d="M34.19 62.55a28 28 0 1 1 28-28 28 28 0 0 1-28 28z" style="isolation:isolate" opacity=".56"/><path d="M34.15 62.52a28 28 0 1 1 28-28 28 28 0 0 1-28 28z" style="isolation:isolate" opacity=".58"/><path d="M34.11 62.48a28 28 0 1 1 28-28 28 28 0 0 1-28 28z" style="isolation:isolate" opacity=".59"/><circle cx="34.08" cy="34.51" r="27.94" transform="rotate(-87.9 34.071 34.506)" style="isolation:isolate" opacity=".61"/><path d="M34 62.41a27.93 27.93 0 1 1 28-27.92 28 28 0 0 1-28 27.92z" style="isolation:isolate" opacity=".62"/><path d="M34 62.38a27.91 27.91 0 1 1 27.91-27.91A27.94 27.94 0 0 1 34 62.38z" style="isolation:isolate" opacity=".63"/><path d="M34 62.34a27.9 27.9 0 1 1 27.89-27.9A27.93 27.93 0 0 1 34 62.34z" style="isolation:isolate" opacity=".65"/><path d="M33.92 62.31A27.88 27.88 0 1 1 61.8 34.43a27.91 27.91 0 0 1-27.88 27.88z" style="isolation:isolate" opacity=".66"/><path d="M33.88 62.28a27.86 27.86 0 1 1 27.86-27.87 27.89 27.89 0 0 1-27.86 27.87z" style="isolation:isolate" opacity=".68"/><path d="M33.84 62.24A27.85 27.85 0 1 1 61.69 34.4a27.88 27.88 0 0 1-27.85 27.84z" style="isolation:isolate" opacity=".69"/><path d="M33.8 62.21a27.83 27.83 0 1 1 27.83-27.83A27.86 27.86 0 0 1 33.8 62.21z" style="isolation:isolate" opacity=".7"/><path d="M33.76 62.17a27.81 27.81 0 1 1 27.82-27.81 27.84 27.84 0 0 1-27.82 27.81z" style="isolation:isolate" opacity=".72"/><path d="M33.73 62.14a27.8 27.8 0 1 1 27.8-27.8 27.83 27.83 0 0 1-27.8 27.8z" style="isolation:isolate" opacity=".73"/><path d="M33.69 62.1a27.78 27.78 0 1 1 27.78-27.78A27.81 27.81 0 0 1 33.69 62.1z" style="isolation:isolate" opacity=".75"/><path d="M33.65 62.07a27.76 27.76 0 1 1 27.76-27.76 27.8 27.8 0 0 1-27.76 27.76z" style="isolation:isolate" opacity=".76"/><circle cx="33.61" cy="34.29" r="27.75" transform="rotate(-76.56 33.605 34.283)" style="isolation:isolate" opacity=".77"/><path d="M33.57 62A27.73 27.73 0 1 1 61.3 34.27 27.76 27.76 0 0 1 33.57 62z" style="isolation:isolate" opacity=".79"/><path d="M33.53 62a27.72 27.72 0 1 1 27.72-27.75A27.75 27.75 0 0 1 33.53 62z" style="isolation:isolate" opacity=".8"/><path d="M33.49 61.93a27.7 27.7 0 1 1 27.7-27.7 27.73 27.73 0 0 1-27.7 27.7z" style="isolation:isolate" opacity=".82"/><path d="M33.45 61.9a27.68 27.68 0 1 1 27.69-27.69A27.71 27.71 0 0 1 33.45 61.9z" style="isolation:isolate" opacity=".83"/><path d="M33.41 61.86A27.67 27.67 0 1 1 61.08 34.2a27.7 27.7 0 0 1-27.67 27.66z" style="isolation:isolate" opacity=".85"/><path d="M33.38 61.83A27.65 27.65 0 1 1 61 34.18a27.68 27.68 0 0 1-27.62 27.65z" style="isolation:isolate" opacity=".86"/><path d="M33.34 61.79A27.63 27.63 0 1 1 61 34.16a27.67 27.67 0 0 1-27.66 27.63z" style="isolation:isolate" opacity=".87"/><path d="M33.3 61.76a27.62 27.62 0 1 1 27.61-27.62A27.65 27.65 0 0 1 33.3 61.76z" style="isolation:isolate" opacity=".89"/><path d="M33.26 61.72a27.6 27.6 0 1 1 27.6-27.6 27.63 27.63 0 0 1-27.6 27.6z" style="isolation:isolate" opacity=".9"/><path d="M33.22 61.69A27.58 27.58 0 1 1 60.8 34.11a27.62 27.62 0 0 1-27.58 27.58z" style="isolation:isolate" opacity=".92"/><path d="M33.18 61.66a27.57 27.57 0 1 1 27.57-27.57 27.6 27.6 0 0 1-27.57 27.57z" style="isolation:isolate" opacity=".93"/><path d="M33.14 61.62a27.55 27.55 0 1 1 27.55-27.55 27.58 27.58 0 0 1-27.55 27.55z" style="isolation:isolate" opacity=".94"/><path d="M33.1 61.59a27.54 27.54 0 1 1 27.54-27.54A27.57 27.57 0 0 1 33.1 61.59z" style="isolation:isolate" opacity=".96"/><path d="M33.06 61.55A27.52 27.52 0 1 1 60.58 34a27.55 27.55 0 0 1-27.52 27.55z" style="isolation:isolate" opacity=".97"/><path d="M33 61.52A27.5 27.5 0 1 1 60.53 34 27.53 27.53 0 0 1 33 61.52z" style="isolation:isolate" opacity=".99"/><path d="M33 61.49A27.49 27.49 0 1 1 60.47 34 27.52 27.52 0 0 1 33 61.49z"/></g><path d="M33 61.49A27.49 27.49 0 1 1 60.47 34 27.52 27.52 0 0 1 33 61.49z" stroke="#fff" stroke-miterlimit="10" stroke-width=".74" fill="url(#Безымянный_градиент_44)"/><path class="cls-44" d="M33.24 36.89a10.82 10.82 0 1 0-10.83-10.83 10.83 10.83 0 0 0 10.83 10.83zm0-16.65a5.83 5.83 0 1 1-5.83 5.83 5.83 5.83 0 0 1 5.83-5.84z"/><path class="cls-44" d="M43.85 42a4.19 4.19 0 0 0 1.89-3.5A3 3 0 0 0 44 35.76a3.17 3.17 0 0 0-3.33.31 12.69 12.69 0 0 1-14.94 0 3.19 3.19 0 0 0-3.33-.31 3 3 0 0 0-1.7 2.75A4.2 4.2 0 0 0 22.63 42a19.25 19.25 0 0 0 4.88 2.33l.91.25-5 4.92A3.33 3.33 0 1 0 28 54.3l.08-.08 5.13-5.31 5.14 5.32a3.33 3.33 0 0 0 4.79-4.63l-.08-.08-5-4.92.91-.25A19.18 19.18 0 0 0 43.85 42z"/></g></g></svg>