<svg xmlns="http://www.w3.org/2000/svg" xmlns:xlink="http://www.w3.org/1999/xlink" viewBox="0 0 66.22 70.53"><defs><style>.cls-1{opacity:0.3;}.cls-2,.cls-46{fill-opacity:0;}.cls-2{fill:url(#Безымянный_градиент_43);}.cls-3{opacity:0.02;fill:url(#Безымянный_градиент_43-2);}.cls-10,.cls-100,.cls-101,.cls-102,.cls-103,.cls-104,.cls-105,.cls-106,.cls-107,.cls-108,.cls-109,.cls-11,.cls-110,.cls-111,.cls-112,.cls-113,.cls-114,.cls-115,.cls-116,.cls-12,.cls-13,.cls-14,.cls-15,.cls-16,.cls-17,.cls-18,.cls-19,.cls-20,.cls-21,.cls-22,.cls-23,.cls-24,.cls-25,.cls-26,.cls-27,.cls-28,.cls-29,.cls-3,.cls-30,.cls-31,.cls-32,.cls-33,.cls-34,.cls-35,.cls-36,.cls-37,.cls-38,.cls-39,.cls-4,.cls-40,.cls-41,.cls-42,.cls-47,.cls-48,.cls-49,.cls-5,.cls-50,.cls-51,.cls-52,.cls-53,.cls-54,.cls-55,.cls-56,.cls-57,.cls-58,.cls-59,.cls-6,.cls-60,.cls-61,.cls-62,.cls-63,.cls-64,.cls-65,.cls-66,.cls-67,.cls-68,.cls-69,.cls-7,.cls-70,.cls-71,.cls-72,.cls-73,.cls-74,.cls-75,.cls-76,.cls-77,.cls-78,.cls-79,.cls-8,.cls-80,.cls-81,.cls-82,.cls-83,.cls-84,.cls-85,.cls-86,.cls-87,.cls-88,.cls-89,.cls-9,.cls-90,.cls-91,.cls-92,.cls-93,.cls-94,.cls-95,.cls-96,.cls-97,.cls-98,.cls-99{isolation:isolate;}.cls-4{opacity:0.05;fill:url(#Безымянный_градиент_43-3);}.cls-5{opacity:0.07;fill:url(#Безымянный_градиент_43-4);}.cls-6{opacity:0.1;fill:url(#Безымянный_градиент_43-5);}.cls-7{opacity:0.12;fill:url(#Безымянный_градиент_43-6);}.cls-8{opacity:0.15;fill:url(#Безымянный_градиент_43-7);}.cls-9{opacity:0.17;fill:url(#Безымянный_градиент_43-8);}.cls-10{opacity:0.2;fill:url(#Безымянный_градиент_43-9);}.cls-11{opacity:0.22;fill:url(#Безымянный_градиент_43-10);}.cls-12{opacity:0.24;fill:url(#Безымянный_градиент_43-11);}.cls-13{opacity:0.27;fill:url(#Безымянный_градиент_43-12);}.cls-14{opacity:0.29;fill:url(#Безымянный_градиент_43-13);}.cls-15{opacity:0.32;fill:url(#Безымянный_градиент_43-14);}.cls-16{opacity:0.34;fill:url(#Безымянный_градиент_43-15);}.cls-17{opacity:0.37;fill:url(#Безымянный_градиент_43-16);}.cls-18{opacity:0.39;fill:url(#Безымянный_градиент_43-17);}.cls-19{opacity:0.41;fill:url(#Безымянный_градиент_43-18);}.cls-20{opacity:0.44;fill:url(#Безымянный_градиент_43-19);}.cls-21{opacity:0.46;fill:url(#Безымянный_градиент_43-20);}.cls-22{opacity:0.49;fill:url(#Безымянный_градиент_43-21);}.cls-23{opacity:0.51;fill:url(#Безымянный_градиент_43-22);}.cls-24{opacity:0.54;fill:url(#Безымянный_градиент_43-23);}.cls-25{opacity:0.56;fill:url(#Безымянный_градиент_43-24);}.cls-26{opacity:0.59;fill:url(#Безымянный_градиент_43-25);}.cls-27{opacity:0.61;fill:url(#Безымянный_градиент_43-26);}.cls-28{opacity:0.63;fill:url(#Безымянный_градиент_43-27);}.cls-29{opacity:0.66;fill:url(#Безымянный_градиент_43-28);}.cls-30{opacity:0.68;fill:url(#Безымянный_градиент_43-29);}.cls-31{opacity:0.71;fill:url(#Безымянный_градиент_43-30);}.cls-32{opacity:0.73;fill:url(#Безымянный_градиент_43-31);}.cls-33{opacity:0.76;fill:url(#Безымянный_градиент_43-32);}.cls-34{opacity:0.78;fill:url(#Безымянный_градиент_43-33);}.cls-35{opacity:0.8;fill:url(#Безымянный_градиент_43-34);}.cls-36{opacity:0.83;fill:url(#Безымянный_градиент_43-35);}.cls-37{opacity:0.85;fill:url(#Безымянный_градиент_43-36);}.cls-38{opacity:0.88;fill:url(#Безымянный_градиент_43-37);}.cls-39{opacity:0.9;fill:url(#Безымянный_градиент_43-38);}.cls-40{opacity:0.93;fill:url(#Безымянный_градиент_43-39);}.cls-41{opacity:0.95;fill:url(#Безымянный_градиент_43-40);}.cls-42{opacity:0.98;fill:url(#Безымянный_градиент_43-41);}.cls-43{fill:url(#Безымянный_градиент_43-42);}.cls-44{fill:#ff9800;}.cls-45{opacity:0.7;}.cls-47{opacity:0.01;}.cls-48{opacity:0.03;}.cls-49{opacity:0.04;}.cls-50{opacity:0.06;}.cls-51{opacity:0.07;}.cls-52{opacity:0.08;}.cls-53{opacity:0.1;}.cls-54{opacity:0.11;}.cls-55{opacity:0.13;}.cls-56{opacity:0.14;}.cls-57{opacity:0.15;}.cls-58{opacity:0.17;}.cls-59{opacity:0.18;}.cls-60{opacity:0.2;}.cls-61{opacity:0.21;}.cls-62{opacity:0.23;}.cls-63{opacity:0.24;}.cls-64{opacity:0.25;}.cls-65{opacity:0.27;}.cls-66{opacity:0.28;}.cls-67{opacity:0.3;}.cls-68{opacity:0.31;}.cls-69{opacity:0.32;}.cls-70{opacity:0.34;}.cls-71{opacity:0.35;}.cls-72{opacity:0.37;}.cls-73{opacity:0.38;}.cls-74{opacity:0.39;}.cls-75{opacity:0.41;}.cls-76{opacity:0.42;}.cls-77{opacity:0.44;}.cls-78{opacity:0.45;}.cls-79{opacity:0.46;}.cls-80{opacity:0.48;}.cls-81{opacity:0.49;}.cls-82{opacity:0.51;}.cls-83{opacity:0.52;}.cls-84{opacity:0.54;}.cls-85{opacity:0.55;}.cls-86{opacity:0.56;}.cls-87{opacity:0.58;}.cls-88{opacity:0.59;}.cls-89{opacity:0.61;}.cls-90{opacity:0.62;}.cls-91{opacity:0.63;}.cls-92{opacity:0.65;}.cls-93{opacity:0.66;}.cls-94{opacity:0.68;}.cls-95{opacity:0.69;}.cls-96{opacity:0.7;}.cls-97{opacity:0.72;}.cls-98{opacity:0.73;}.cls-99{opacity:0.75;}.cls-100{opacity:0.76;}.cls-101{opacity:0.77;}.cls-102{opacity:0.79;}.cls-103{opacity:0.8;}.cls-104{opacity:0.82;}.cls-105{opacity:0.83;}.cls-106{opacity:0.85;}.cls-107{opacity:0.86;}.cls-108{opacity:0.87;}.cls-109{opacity:0.89;}.cls-110{opacity:0.9;}.cls-111{opacity:0.92;}.cls-112{opacity:0.93;}.cls-113{opacity:0.94;}.cls-114{opacity:0.96;}.cls-115{opacity:0.97;}.cls-116{opacity:0.99;}.cls-117{stroke:#fff;stroke-miterlimit:10;stroke-width:0.74px;fill:url(#Безымянный_градиент_44);}</style><radialGradient id="Безымянный_градиент_43" cx="-479.54" cy="-181.62" r="4.92" gradientTransform="matrix(7.11, 0, 0, -0.37, 3442.34, 2.06)" gradientUnits="userSpaceOnUse"><stop offset="0"/><stop offset="1"/></radialGradient><radialGradient id="Безымянный_градиент_43-2" cx="-477.23" cy="-190.73" r="4.94" gradientTransform="matrix(6.91, 0, 0, -0.36, 3330.62, 0.58)" xlink:href="#Безымянный_градиент_43"/><radialGradient id="Безымянный_градиент_43-3" cx="-474.78" cy="-200.35" r="4.96" gradientTransform="matrix(6.71, 0, 0, -0.35, 3218.88, -0.9)" xlink:href="#Безымянный_градиент_43"/><radialGradient id="Безымянный_градиент_43-4" cx="-472.18" cy="-210.53" r="4.98" gradientTransform="matrix(6.51, 0, 0, -0.34, 3107.14, -2.38)" xlink:href="#Безымянный_градиент_43"/><radialGradient id="Безымянный_градиент_43-5" cx="-469.41" cy="-221.31" r="5" gradientTransform="matrix(6.31, 0, 0, -0.33, 2995.4, -3.87)" xlink:href="#Безымянный_градиент_43"/><radialGradient id="Безымянный_градиент_43-6" cx="-466.47" cy="-232.74" r="5.02" gradientTransform="matrix(6.11, 0, 0, -0.32, 2883.66, -5.35)" xlink:href="#Безымянный_градиент_43"/><radialGradient id="Безымянный_градиент_43-7" cx="-463.32" cy="-247.68" r="5.04" gradientTransform="matrix(5.91, 0, 0, -0.31, 2771.92, -7.66)" xlink:href="#Безымянный_градиент_43"/><radialGradient id="Безымянный_градиент_43-8" cx="-459.95" cy="-260.73" r="5.07" gradientTransform="matrix(5.71, 0, 0, -0.3, 2660.18, -9.14)" xlink:href="#Безымянный_градиент_43"/><radialGradient id="Безымянный_градиент_43-9" cx="-456.34" cy="-274.65" r="5.09" gradientTransform="matrix(5.51, 0, 0, -0.29, 2548.44, -10.63)" xlink:href="#Безымянный_градиент_43"/><radialGradient id="Безымянный_градиент_43-10" cx="-452.46" cy="-289.55" r="5.12" gradientTransform="matrix(5.31, 0, 0, -0.28, 2436.7, -12.11)" xlink:href="#Безымянный_градиент_43"/><radialGradient id="Безымянный_градиент_43-11" cx="-448.27" cy="-305.52" r="5.15" gradientTransform="matrix(5.11, 0, 0, -0.27, 2324.95, -13.59)" xlink:href="#Безымянный_градиент_43"/><radialGradient id="Безымянный_градиент_43-12" cx="-443.75" cy="-322.69" r="5.18" gradientTransform="matrix(4.91, 0, 0, -0.26, 2213.21, -15.08)" xlink:href="#Безымянный_градиент_43"/><radialGradient id="Безымянный_градиент_43-13" cx="-438.84" cy="-341.19" r="5.22" gradientTransform="matrix(4.71, 0, 0, -0.25, 2101.47, -16.56)" xlink:href="#Безымянный_градиент_43"/><radialGradient id="Безымянный_градиент_43-14" cx="-433.49" cy="-361.19" r="5.25" gradientTransform="matrix(4.51, 0, 0, -0.24, 1989.73, -18.04)" xlink:href="#Безымянный_градиент_43"/><radialGradient id="Безымянный_градиент_43-15" cx="-427.65" cy="-382.89" r="5.3" gradientTransform="matrix(4.31, 0, 0, -0.23, 1877.99, -19.52)" xlink:href="#Безымянный_градиент_43"/><radialGradient id="Безымянный_градиент_43-16" cx="-421.24" cy="-406.48" r="5.34" gradientTransform="matrix(4.11, 0, 0, -0.22, 1766.25, -21.01)" xlink:href="#Безымянный_градиент_43"/><radialGradient id="Безымянный_градиент_43-17" cx="-414.18" cy="-436.41" r="5.39" gradientTransform="matrix(3.91, 0, 0, -0.21, 1654.51, -23.32)" xlink:href="#Безымянный_градиент_43"/><radialGradient id="Безымянный_градиент_43-18" cx="-406.35" cy="-464.89" r="5.45" gradientTransform="matrix(3.71, 0, 0, -0.2, 1542.77, -24.8)" xlink:href="#Безымянный_градиент_43"/><radialGradient id="Безымянный_градиент_43-19" cx="-397.64" cy="-496.26" r="5.51" gradientTransform="matrix(3.51, 0, 0, -0.19, 1431.03, -26.28)" xlink:href="#Безымянный_градиент_43"/><radialGradient id="Безымянный_градиент_43-20" cx="-387.87" cy="-530.99" r="5.58" gradientTransform="matrix(3.31, 0, 0, -0.18, 1319.29, -27.77)" xlink:href="#Безымянный_градиент_43"/><radialGradient id="Безымянный_градиент_43-21" cx="-376.86" cy="-569.65" r="5.66" gradientTransform="matrix(3.11, 0, 0, -0.17, 1207.55, -29.25)" xlink:href="#Безымянный_градиент_43"/><radialGradient id="Безымянный_градиент_43-22" cx="-364.33" cy="-612.93" r="5.74" gradientTransform="matrix(2.91, 0, 0, -0.16, 1095.81, -30.73)" xlink:href="#Безымянный_градиент_43"/><radialGradient id="Безымянный_градиент_43-23" cx="-349.95" cy="-661.74" r="5.84" gradientTransform="matrix(2.71, 0, 0, -0.15, 984.06, -32.22)" xlink:href="#Безымянный_градиент_43"/><radialGradient id="Безымянный_градиент_43-24" cx="-333.29" cy="-717.19" r="5.96" gradientTransform="matrix(2.51, 0, 0, -0.14, 872.32, -33.7)" xlink:href="#Безымянный_градиент_43"/><radialGradient id="Безымянный_градиент_43-25" cx="-313.75" cy="-780.74" r="6.09" gradientTransform="matrix(2.31, 0, 0, -0.13, 760.58, -35.18)" xlink:href="#Безымянный_градиент_43"/><radialGradient id="Безымянный_градиент_43-26" cx="-290.52" cy="-854.32" r="6.24" gradientTransform="matrix(2.11, 0, 0, -0.12, 648.84, -36.67)" xlink:href="#Безымянный_градиент_43"/><radialGradient id="Безымянный_градиент_43-27" cx="-262.44" cy="-948.61" r="6.43" gradientTransform="matrix(1.91, 0, 0, -0.11, 537.09, -38.98)" xlink:href="#Безымянный_градиент_43"/><radialGradient id="Безымянный_градиент_43-28" cx="-227.81" cy="-1051.73" r="6.66" gradientTransform="matrix(1.71, 0, 0, -0.1, 425.35, -40.46)" xlink:href="#Безымянный_градиент_43"/><radialGradient id="Безымянный_градиент_43-29" cx="-184.05" cy="-1176.19" r="6.94" gradientTransform="matrix(1.51, 0, 0, -0.09, 313.61, -41.94)" xlink:href="#Безымянный_градиент_43"/><radialGradient id="Безымянный_градиент_43-30" cx="-126.98" cy="-1329.3" r="7.31" gradientTransform="matrix(1.31, 0, 0, -0.08, 201.87, -43.43)" xlink:href="#Безымянный_градиент_43"/><radialGradient id="Безымянный_градиент_43-31" cx="-49.47" cy="-1522.28" r="7.79" gradientTransform="matrix(1.11, 0, 0, -0.07, 90.12, -44.91)" xlink:href="#Безымянный_градиент_43"/><radialGradient id="Безымянный_градиент_43-32" cx="61.89" cy="-1773.03" r="8.48" gradientTransform="matrix(0.91, 0, 0, -0.06, -21.62, -46.39)" xlink:href="#Безымянный_градиент_43"/><radialGradient id="Безымянный_градиент_43-33" cx="235.46" cy="-2112.07" r="9.52" gradientTransform="matrix(0.71, 0, 0, -0.06, -133.36, -47.88)" xlink:href="#Безымянный_градиент_43"/><radialGradient id="Безымянный_градиент_43-34" cx="543.57" cy="-2596.02" r="11.33" gradientTransform="matrix(0.52, 0, 0, -0.05, -245.1, -49.36)" xlink:href="#Безымянный_градиент_43"/><radialGradient id="Безымянный_градиент_43-35" cx="1241.58" cy="-3342.9" r="15.33" gradientTransform="matrix(0.32, 0, 0, -0.04, -356.85, -50.84)" xlink:href="#Безымянный_градиент_43"/><radialGradient id="Безымянный_градиент_43-36" cx="4345" cy="-4647.13" r="33.32" gradientTransform="matrix(0.12, 0, 0, -0.03, -468.59, -52.32)" xlink:href="#Безымянный_градиент_43"/><radialGradient id="Безымянный_градиент_43-37" cx="-7342.81" cy="-7601.01" r="40.36" gradientTransform="translate(-580.33 -54.64) rotate(180) scale(0.08 0.02)" xlink:href="#Безымянный_градиент_43"/><radialGradient id="Безымянный_градиент_43-38" cx="-2564.62" cy="-19172.18" r="27.24" gradientTransform="translate(-692.08 -56.12) rotate(180) scale(0.28 0.01)" xlink:href="#Безымянный_градиент_43"/><radialGradient id="Безымянный_градиент_43-39" cx="-1735.95" cy="39407.07" r="41.36" gradientTransform="matrix(-0.48, 0, 0, 0, -803.82, -57.6)" xlink:href="#Безымянный_градиент_43"/><radialGradient id="Безымянный_градиент_43-40" cx="-1391.94" cy="9890.42" r="7.93" gradientTransform="matrix(-0.68, 0, 0, 0.01, -915.56, -59.09)" xlink:href="#Безымянный_градиент_43"/><radialGradient id="Безымянный_градиент_43-41" cx="-1203.6" cy="5711" r="3.11" gradientTransform="matrix(-0.88, 0, 0, 0.02, -1027.3, -60.57)" xlink:href="#Безымянный_градиент_43"/><radialGradient id="Безымянный_градиент_43-42" cx="-1084.77" cy="4041.85" r="1.11" gradientTransform="matrix(-1.08, 0, 0, 0.03, -1139.05, -62.05)" xlink:href="#Безымянный_градиент_43"/><linearGradient id="Безымянный_градиент_44" x1="13.72" y1="57.27" x2="52.57" y2="18.42" gradientTransform="matrix(1, 0, 0, -1, 0, 72)" gradientUnits="userSpaceOnUse"><stop offset="0" stop-color="#c3c4c3"/><stop offset="0.22" stop-color="#dadada"/><stop offset="0.48" stop-color="#eeefee"/><stop offset="0.75" stop-color="#fbfbfb"/><stop offset="1" stop-color="#fff"/></linearGradient></defs><title>Ресурс 1</title><g id="Слой_2" data-name="Слой 2"><g id="Слой_1-2" data-name="Слой 1"><g class="cls-1"><path class="cls-2" d="M64.94,68.5c0,1.12-13.4,2-29.94,2s-29.94-.91-29.94-2,13.41-2,29.94-2S64.94,67.38,64.94,68.5Z"/><path class="cls-3" d="M5.76,68.5c0-1.09,13.09-2,29.24-2s29.24.89,29.24,2-13.09,2-29.24,2S5.76,69.59,5.76,68.5Z"/><path class="cls-4" d="M6.46,68.5c0-1.07,12.77-1.93,28.53-1.93s28.53.86,28.53,1.93S50.75,70.43,35,70.43,6.46,69.57,6.46,68.5Z"/><path class="cls-5" d="M7.17,68.5c0-1,12.46-1.88,27.83-1.88s27.83.84,27.83,1.88S50.36,70.38,35,70.38,7.17,69.54,7.17,68.5Z"/><path class="cls-6" d="M7.87,68.5c0-1,12.14-1.83,27.12-1.83s27.12.82,27.12,1.83S50,70.33,35,70.33,7.87,69.51,7.87,68.5Z"/><path class="cls-7" d="M8.58,68.5c0-1,11.83-1.79,26.42-1.79s26.42.8,26.42,1.79S49.58,70.29,35,70.29,8.58,69.49,8.58,68.5Z"/><path class="cls-8" d="M9.28,68.5c0-1,11.51-1.74,25.71-1.74s25.71.78,25.71,1.74S49.19,70.24,35,70.24,9.28,69.46,9.28,68.5Z"/><path class="cls-9" d="M10,68.5c0-.93,11.19-1.69,25-1.69s25,.75,25,1.69-11.19,1.69-25,1.69S10,69.43,10,68.5Z"/><path class="cls-10" d="M10.69,68.5c0-.91,10.88-1.64,24.3-1.64s24.3.73,24.3,1.64S48.42,70.14,35,70.14,10.69,69.41,10.69,68.5Z"/><path class="cls-11" d="M11.4,68.5c0-.88,10.56-1.59,23.59-1.59s23.59.71,23.59,1.59S48,70.09,35,70.09,11.4,69.38,11.4,68.5Z"/><path class="cls-12" d="M12.11,68.5C12.11,67.65,22.35,67,35,67s22.89.69,22.89,1.54S47.64,70,35,70,12.11,69.35,12.11,68.5Z"/><path class="cls-13" d="M12.81,68.5c0-.83,9.93-1.5,22.18-1.5s22.18.67,22.18,1.5S47.25,70,35,70,12.81,69.33,12.81,68.5Z"/><path class="cls-14" d="M13.52,68.5c0-.8,9.62-1.45,21.48-1.45s21.48.65,21.48,1.45S46.86,69.95,35,69.95,13.52,69.3,13.52,68.5Z"/><path class="cls-15" d="M14.22,68.5c0-.77,9.3-1.4,20.77-1.4s20.77.63,20.77,1.4S46.47,69.9,35,69.9,14.22,69.27,14.22,68.5Z"/><path class="cls-16" d="M14.93,68.5c0-.75,9-1.35,20.07-1.35s20.07.6,20.07,1.35-9,1.35-20.07,1.35S14.93,69.25,14.93,68.5Z"/><path class="cls-17" d="M15.63,68.5c0-.72,8.67-1.3,19.36-1.3s19.36.58,19.36,1.3S45.69,69.8,35,69.8,15.63,69.22,15.63,68.5Z"/><path class="cls-18" d="M16.34,68.5c0-.69,8.35-1.25,18.66-1.25s18.66.56,18.66,1.25S45.3,69.75,35,69.75,16.34,69.19,16.34,68.5Z"/><path class="cls-19" d="M17,68.5c0-.67,8-1.2,18-1.2s18,.54,18,1.2-8,1.2-18,1.2S17,69.17,17,68.5Z"/><path class="cls-20" d="M17.75,68.5c0-.64,7.72-1.15,17.25-1.15s17.25.52,17.25,1.15S44.52,69.66,35,69.66,17.75,69.14,17.75,68.5Z"/><path class="cls-21" d="M18.45,68.5c0-.61,7.41-1.11,16.54-1.11s16.54.5,16.54,1.11S44.13,69.61,35,69.61,18.45,69.11,18.45,68.5Z"/><path class="cls-22" d="M19.16,68.5c0-.58,7.09-1.06,15.84-1.06s15.84.47,15.84,1.06S43.74,69.56,35,69.56,19.16,69.08,19.16,68.5Z"/><path class="cls-23" d="M19.86,68.5c0-.56,6.77-1,15.13-1s15.13.45,15.13,1-6.77,1-15.13,1S19.86,69.06,19.86,68.5Z"/><path class="cls-24" d="M20.57,68.5c0-.53,6.46-1,14.43-1s14.43.43,14.43,1-6.46,1-14.43,1S20.57,69,20.57,68.5Z"/><path class="cls-25" d="M21.27,68.5c0-.5,6.14-.91,13.72-.91s13.72.41,13.72.91-6.14.91-13.72.91S21.27,69,21.27,68.5Z"/><path class="cls-26" d="M22,68.5c0-.48,5.83-.86,13-.86S48,68,48,68.5s-5.83.86-13,.86S22,69,22,68.5Z"/><path class="cls-27" d="M22.68,68.5c0-.45,5.51-.82,12.31-.82s12.31.36,12.31.82-5.51.82-12.31.82S22.68,69,22.68,68.5Z"/><path class="cls-28" d="M23.39,68.5c0-.43,5.2-.77,11.6-.77s11.61.34,11.61.77-5.19.77-11.61.77S23.39,68.93,23.39,68.5Z"/><path class="cls-29" d="M24.1,68.5c0-.4,4.88-.72,10.9-.72s10.9.32,10.9.72-4.88.72-10.9.72S24.1,68.9,24.1,68.5Z"/><path class="cls-30" d="M24.8,68.5c0-.37,4.56-.67,10.19-.67s10.19.3,10.19.67-4.56.67-10.19.67S24.8,68.87,24.8,68.5Z"/><path class="cls-31" d="M25.51,68.5c0-.34,4.25-.62,9.49-.62s9.49.28,9.49.62-4.25.62-9.49.62S25.51,68.84,25.51,68.5Z"/><path class="cls-32" d="M26.21,68.5c0-.32,3.93-.57,8.78-.57s8.78.26,8.78.57-3.93.57-8.78.57S26.21,68.82,26.21,68.5Z"/><path class="cls-33" d="M26.92,68.5c0-.29,3.62-.53,8.08-.53s8.08.24,8.08.53S39.46,69,35,69,26.92,68.79,26.92,68.5Z"/><path class="cls-34" d="M27.62,68.5c0-.26,3.3-.48,7.37-.48s7.38.21,7.38.48S39.07,69,35,69,27.62,68.76,27.62,68.5Z"/><path class="cls-35" d="M28.33,68.5c0-.24,3-.43,6.67-.43s6.67.19,6.67.43-3,.43-6.67.43S28.33,68.74,28.33,68.5Z"/><path class="cls-36" d="M29,68.5c0-.21,2.67-.38,6-.38s6,.17,6,.38-2.67.38-6,.38S29,68.71,29,68.5Z"/><path class="cls-37" d="M29.74,68.5c0-.18,2.35-.33,5.26-.33s5.26.15,5.26.33-2.35.33-5.26.33S29.74,68.68,29.74,68.5Z"/><path class="cls-38" d="M30.44,68.5A18.48,18.48,0,0,1,35,68.22a18.48,18.48,0,0,1,4.55.28,18.6,18.6,0,0,1-4.55.28A18.61,18.61,0,0,1,30.44,68.5Z"/><path class="cls-39" d="M31.15,68.5A16,16,0,0,1,35,68.27a15.94,15.94,0,0,1,3.85.24,16.07,16.07,0,0,1-3.85.23A16.07,16.07,0,0,1,31.15,68.5Z"/><path class="cls-40" d="M31.85,68.5A13.32,13.32,0,0,1,35,68.31a13.33,13.33,0,0,1,3.14.19,13.45,13.45,0,0,1-3.14.18A13.46,13.46,0,0,1,31.85,68.5Z"/><path class="cls-41" d="M32.56,68.5A10.82,10.82,0,0,1,35,68.36a10.81,10.81,0,0,1,2.44.14,10.92,10.92,0,0,1-2.44.14A10.92,10.92,0,0,1,32.56,68.5Z"/><path class="cls-42" d="M33.26,68.5A8.37,8.37,0,0,1,35,68.41a8.29,8.29,0,0,1,1.73.09,8.54,8.54,0,0,1-1.73.09A8.55,8.55,0,0,1,33.26,68.5Z"/><path class="cls-43" d="M34,68.5a6.4,6.4,0,0,1,1,0,6.4,6.4,0,0,1,1,0,6.7,6.7,0,0,1-1,0A6.71,6.71,0,0,1,34,68.5Z"/></g><path class="cls-44" d="M66.22,33.36A33.36,33.36,0,0,0,32.86,0H.14C7,10.31,3.15,22,.89,30A23.75,23.75,0,0,0,1.2,43.86a33.36,33.36,0,0,0,65-10.5Z"/><g class="cls-45"><path class="cls-46" d="M35.75,63.92A28.65,28.65,0,1,1,64.39,35.28,28.68,28.68,0,0,1,35.75,63.92Z"/><path class="cls-47" d="M35.71,63.89A28.63,28.63,0,1,1,64.34,35.26,28.66,28.66,0,0,1,35.71,63.89Z"/><path class="cls-48" d="M35.67,63.85A28.61,28.61,0,1,1,64.28,35.24,28.65,28.65,0,0,1,35.67,63.85Z"/><path class="cls-49" d="M35.63,63.82a28.6,28.6,0,1,1,28.59-28.6A28.63,28.63,0,0,1,35.63,63.82Z"/><path class="cls-50" d="M35.59,63.79A28.58,28.58,0,1,1,64.17,35.21,28.61,28.61,0,0,1,35.59,63.79Z"/><path class="cls-51" d="M35.55,63.75A28.56,28.56,0,1,1,64.12,35.19,28.6,28.6,0,0,1,35.55,63.75Z"/><path class="cls-52" d="M35.51,63.72A28.55,28.55,0,1,1,64.06,35.17,28.58,28.58,0,0,1,35.51,63.72Z"/><path class="cls-53" d="M35.48,63.68A28.53,28.53,0,1,1,64,35.15,28.56,28.56,0,0,1,35.48,63.68Z"/><path class="cls-54" d="M35.44,63.65A28.51,28.51,0,1,1,64,35.13,28.55,28.55,0,0,1,35.44,63.65Z"/><path class="cls-55" d="M35.4,63.62a28.5,28.5,0,1,1,28.5-28.5A28.53,28.53,0,0,1,35.4,63.62Z"/><path class="cls-56" d="M35.36,63.58A28.48,28.48,0,1,1,63.84,35.1,28.51,28.51,0,0,1,35.36,63.58Z"/><path class="cls-57" d="M35.32,63.55A28.47,28.47,0,1,1,63.79,35.08,28.5,28.5,0,0,1,35.32,63.55Z"/><path class="cls-58" d="M35.28,63.51A28.45,28.45,0,1,1,63.73,35.06,28.48,28.48,0,0,1,35.28,63.51Z"/><path class="cls-59" d="M35.24,63.48A28.43,28.43,0,1,1,63.68,35,28.47,28.47,0,0,1,35.24,63.48Z"/><path class="cls-60" d="M35.2,63.44A28.42,28.42,0,1,1,63.62,35,28.45,28.45,0,0,1,35.2,63.44Z"/><path class="cls-61" d="M35.17,63.41A28.4,28.4,0,1,1,63.56,35,28.43,28.43,0,0,1,35.17,63.41Z"/><path class="cls-62" d="M35.13,63.37A28.38,28.38,0,1,1,63.51,35,28.42,28.42,0,0,1,35.13,63.37Z"/><path class="cls-63" d="M35.09,63.34A28.37,28.37,0,1,1,63.45,35,28.4,28.4,0,0,1,35.09,63.34Z"/><path class="cls-64" d="M35,63.31A28.35,28.35,0,1,1,63.4,35,28.38,28.38,0,0,1,35,63.31Z"/><path class="cls-65" d="M35,63.27A28.33,28.33,0,1,1,63.34,34.94,28.37,28.37,0,0,1,35,63.27Z"/><path class="cls-66" d="M35,63.24A28.32,28.32,0,1,1,63.29,34.92,28.35,28.35,0,0,1,35,63.24Z"/><path class="cls-67" d="M34.93,63.2a28.3,28.3,0,1,1,28.3-28.3A28.34,28.34,0,0,1,34.93,63.2Z"/><path class="cls-68" d="M34.89,63.17A28.29,28.29,0,1,1,63.18,34.88,28.32,28.32,0,0,1,34.89,63.17Z"/><path class="cls-69" d="M34.85,63.13A28.27,28.27,0,1,1,63.12,34.86,28.3,28.3,0,0,1,34.85,63.13Z"/><path class="cls-70" d="M34.81,63.1A28.25,28.25,0,1,1,63.07,34.85,28.29,28.29,0,0,1,34.81,63.1Z"/><circle class="cls-71" cx="34.78" cy="34.83" r="28.24"/><path class="cls-72" d="M34.74,63A28.22,28.22,0,1,1,63,34.81,28.25,28.25,0,0,1,34.74,63Z"/><path class="cls-73" d="M34.7,63a28.2,28.2,0,1,1,28.2-28.2A28.24,28.24,0,0,1,34.7,63Z"/><path class="cls-74" d="M34.66,63A28.19,28.19,0,1,1,62.85,34.77,28.22,28.22,0,0,1,34.66,63Z"/><path class="cls-75" d="M34.62,62.93A28.17,28.17,0,1,1,62.79,34.76,28.21,28.21,0,0,1,34.62,62.93Z"/><path class="cls-76" d="M34.58,62.89A28.16,28.16,0,1,1,62.74,34.74,28.19,28.19,0,0,1,34.58,62.89Z"/><path class="cls-77" d="M34.54,62.86A28.14,28.14,0,1,1,62.68,34.72,28.17,28.17,0,0,1,34.54,62.86Z"/><circle class="cls-78" cx="34.5" cy="34.7" r="28.12" transform="translate(-14.43 34.56) rotate(-45)"/><path class="cls-79" d="M34.47,62.79a28.11,28.11,0,1,1,28.1-28.11A28.14,28.14,0,0,1,34.47,62.79Z"/><path class="cls-80" d="M34.43,62.76A28.09,28.09,0,1,1,62.52,34.67,28.12,28.12,0,0,1,34.43,62.76Z"/><path class="cls-81" d="M34.39,62.72A28.07,28.07,0,1,1,62.46,34.65,28.11,28.11,0,0,1,34.39,62.72Z"/><path class="cls-82" d="M34.35,62.69A28.06,28.06,0,1,1,62.41,34.63,28.09,28.09,0,0,1,34.35,62.69Z"/><path class="cls-83" d="M34.31,62.65a28,28,0,1,1,28-28A28.07,28.07,0,0,1,34.31,62.65Z"/><path class="cls-84" d="M34.27,62.62a28,28,0,1,1,28-28A28.06,28.06,0,0,1,34.27,62.62Z"/><path class="cls-85" d="M34.23,62.58a28,28,0,1,1,28-28A28,28,0,0,1,34.23,62.58Z"/><path class="cls-86" d="M34.19,62.55a28,28,0,1,1,28-28A28,28,0,0,1,34.19,62.55Z"/><path class="cls-87" d="M34.15,62.52a28,28,0,1,1,28-28A28,28,0,0,1,34.15,62.52Z"/><path class="cls-88" d="M34.11,62.48a28,28,0,1,1,28-28A28,28,0,0,1,34.11,62.48Z"/><circle class="cls-89" cx="34.08" cy="34.51" r="27.94" transform="translate(-1.66 67.29) rotate(-87.9)"/><path class="cls-90" d="M34,62.41A27.93,27.93,0,1,1,62,34.49,28,28,0,0,1,34,62.41Z"/><path class="cls-91" d="M34,62.38A27.91,27.91,0,1,1,61.91,34.47,27.94,27.94,0,0,1,34,62.38Z"/><path class="cls-92" d="M34,62.34a27.9,27.9,0,1,1,27.89-27.9A27.93,27.93,0,0,1,34,62.34Z"/><path class="cls-93" d="M33.92,62.31A27.88,27.88,0,1,1,61.8,34.43,27.91,27.91,0,0,1,33.92,62.31Z"/><path class="cls-94" d="M33.88,62.28A27.86,27.86,0,1,1,61.74,34.41,27.89,27.89,0,0,1,33.88,62.28Z"/><path class="cls-95" d="M33.84,62.24A27.85,27.85,0,1,1,61.69,34.4,27.88,27.88,0,0,1,33.84,62.24Z"/><path class="cls-96" d="M33.8,62.21A27.83,27.83,0,1,1,61.63,34.38,27.86,27.86,0,0,1,33.8,62.21Z"/><path class="cls-97" d="M33.76,62.17A27.81,27.81,0,1,1,61.58,34.36,27.84,27.84,0,0,1,33.76,62.17Z"/><path class="cls-98" d="M33.73,62.14a27.8,27.8,0,1,1,27.8-27.8A27.83,27.83,0,0,1,33.73,62.14Z"/><path class="cls-99" d="M33.69,62.1A27.78,27.78,0,1,1,61.47,34.32,27.81,27.81,0,0,1,33.69,62.1Z"/><path class="cls-100" d="M33.65,62.07A27.76,27.76,0,1,1,61.41,34.31,27.8,27.8,0,0,1,33.65,62.07Z"/><circle class="cls-101" cx="33.61" cy="34.29" r="27.75" transform="translate(-7.55 59) rotate(-76.56)"/><path class="cls-102" d="M33.57,62A27.73,27.73,0,1,1,61.3,34.27,27.76,27.76,0,0,1,33.57,62Z"/><path class="cls-103" d="M33.53,62A27.72,27.72,0,1,1,61.25,34.25,27.75,27.75,0,0,1,33.53,62Z"/><path class="cls-104" d="M33.49,61.93a27.7,27.7,0,1,1,27.7-27.7A27.73,27.73,0,0,1,33.49,61.93Z"/><path class="cls-105" d="M33.45,61.9A27.68,27.68,0,1,1,61.14,34.21,27.71,27.71,0,0,1,33.45,61.9Z"/><path class="cls-106" d="M33.41,61.86A27.67,27.67,0,1,1,61.08,34.2,27.7,27.7,0,0,1,33.41,61.86Z"/><path class="cls-107" d="M33.38,61.83A27.65,27.65,0,1,1,61,34.18,27.68,27.68,0,0,1,33.38,61.83Z"/><path class="cls-108" d="M33.34,61.79A27.63,27.63,0,1,1,61,34.16,27.67,27.67,0,0,1,33.34,61.79Z"/><path class="cls-109" d="M33.3,61.76A27.62,27.62,0,1,1,60.91,34.14,27.65,27.65,0,0,1,33.3,61.76Z"/><path class="cls-110" d="M33.26,61.72a27.6,27.6,0,1,1,27.6-27.6A27.63,27.63,0,0,1,33.26,61.72Z"/><path class="cls-111" d="M33.22,61.69A27.58,27.58,0,1,1,60.8,34.11,27.62,27.62,0,0,1,33.22,61.69Z"/><path class="cls-112" d="M33.18,61.66A27.57,27.57,0,1,1,60.75,34.09,27.6,27.6,0,0,1,33.18,61.66Z"/><path class="cls-113" d="M33.14,61.62A27.55,27.55,0,1,1,60.69,34.07,27.58,27.58,0,0,1,33.14,61.62Z"/><path class="cls-114" d="M33.1,61.59A27.54,27.54,0,1,1,60.64,34.05,27.57,27.57,0,0,1,33.1,61.59Z"/><path class="cls-115" d="M33.06,61.55A27.52,27.52,0,1,1,60.58,34,27.55,27.55,0,0,1,33.06,61.55Z"/><path class="cls-116" d="M33,61.52A27.5,27.5,0,1,1,60.53,34,27.53,27.53,0,0,1,33,61.52Z"/><path d="M33,61.49A27.49,27.49,0,1,1,60.47,34,27.52,27.52,0,0,1,33,61.49Z"/></g><path class="cls-117" d="M33,61.49A27.49,27.49,0,1,1,60.47,34,27.52,27.52,0,0,1,33,61.49Z"/><path class="cls-44" d="M33.24,36.89A10.82,10.82,0,1,0,22.41,26.06,10.83,10.83,0,0,0,33.24,36.89Zm0-16.65a5.83,5.83,0,1,1-5.83,5.83A5.83,5.83,0,0,1,33.24,20.23Z"/><path class="cls-44" d="M43.85,42a4.19,4.19,0,0,0,1.89-3.5A3,3,0,0,0,44,35.76a3.17,3.17,0,0,0-3.33.31,12.69,12.69,0,0,1-14.94,0,3.19,3.19,0,0,0-3.33-.31,3,3,0,0,0-1.7,2.75A4.2,4.2,0,0,0,22.63,42a19.25,19.25,0,0,0,4.88,2.33l.91.25-5,4.92A3.33,3.33,0,1,0,28,54.3l.08-.08,5.13-5.31,5.14,5.32a3.33,3.33,0,0,0,4.79-4.63l-.08-.08-5-4.92.91-.25A19.18,19.18,0,0,0,43.85,42Z"/></g></g></svg>