<svg xmlns="http://www.w3.org/2000/svg" width="66.723" height="70.28"><style></style><g opacity=".3"><radialGradient id="SVGID_1_" cx="-250.371" cy="-282.153" r="4.923" gradientTransform="matrix(7.1054 0 0 .3658 1814.234 171.464)" gradientUnits="userSpaceOnUse"><stop offset="0"/><stop offset="1"/></radialGradient><radialGradient id="SVGID_2_" cx="-249.146" cy="-296.046" r="4.941" gradientTransform="matrix(6.9057 0 0 .3561 1755.77 173.674)" gradientUnits="userSpaceOnUse"><stop offset="0"/><stop offset="1"/></radialGradient><path d="M6.007 68.252c0-1.093 13.089-1.979 29.237-1.979 16.147 0 29.237.886 29.237 1.979 0 1.092-13.089 1.979-29.237 1.979-16.148.001-29.237-.886-29.237-1.979z" opacity=".024" fill="url(#SVGID_2_)"/><radialGradient id="SVGID_3_" cx="-247.843" cy="-310.714" r="4.958" gradientTransform="matrix(6.706 0 0 .3464 1697.282 175.884)" gradientUnits="userSpaceOnUse"><stop offset="0"/><stop offset="1"/></radialGradient><ellipse cx="35.244" cy="68.252" rx="28.531" ry="1.931" opacity=".049" fill="url(#SVGID_3_)"/><radialGradient id="SVGID_4_" cx="-246.461" cy="-326.227" r="4.977" gradientTransform="matrix(6.5063 0 0 .3367 1638.795 178.093)" gradientUnits="userSpaceOnUse"><stop offset="0"/><stop offset="1"/></radialGradient><path d="M7.418 68.252c0-1.04 12.457-1.882 27.826-1.882s27.826.842 27.826 1.882c0 1.039-12.458 1.882-27.826 1.882-15.369.001-27.826-.843-27.826-1.882z" opacity=".073" fill="url(#SVGID_4_)"/><radialGradient id="SVGID_5_" cx="-244.992" cy="-342.659" r="4.997" gradientTransform="matrix(6.3066 0 0 .327 1580.307 180.302)" gradientUnits="userSpaceOnUse"><stop offset="0"/><stop offset="1"/></radialGradient><path d="M8.123 68.252c0-1.013 12.142-1.834 27.121-1.834s27.121.82 27.121 1.834c0 1.012-12.142 1.834-27.121 1.834s-27.121-.821-27.121-1.834z" opacity=".098" fill="url(#SVGID_5_)"/><radialGradient id="SVGID_6_" cx="-243.426" cy="-360.099" r="5.018" gradientTransform="matrix(6.1069 0 0 .3173 1521.82 182.512)" gradientUnits="userSpaceOnUse"><stop offset="0"/><stop offset="1"/></radialGradient><path d="M8.828 68.252c0-.986 11.826-1.785 26.416-1.785 14.589 0 26.415.799 26.415 1.785 0 .985-11.826 1.785-26.415 1.785-14.59.001-26.416-.799-26.416-1.785z" opacity=".122" fill="url(#SVGID_6_)"/><radialGradient id="SVGID_7_" cx="-241.754" cy="-376.187" r="5.042" gradientTransform="matrix(5.9072 0 0 .3075 1463.332 183.93)" gradientUnits="userSpaceOnUse"><stop offset="0"/><stop offset="1"/></radialGradient><ellipse cx="35.244" cy="68.252" rx="25.71" ry="1.737" opacity=".146" fill="url(#SVGID_7_)"/><radialGradient id="SVGID_8_" cx="-239.965" cy="-395.859" r="5.067" gradientTransform="matrix(5.7075 0 0 .2978 1404.845 186.14)" gradientUnits="userSpaceOnUse"><stop offset="0"/><stop offset="1"/></radialGradient><ellipse cx="35.244" cy="68.252" rx="25.005" ry="1.689" opacity=".171" fill="url(#SVGID_8_)"/><radialGradient id="SVGID_9_" cx="-238.047" cy="-416.856" r="5.092" gradientTransform="matrix(5.5078 0 0 .2881 1346.357 188.349)" gradientUnits="userSpaceOnUse"><stop offset="0"/><stop offset="1"/></radialGradient><path d="M10.944 68.252c0-.906 10.878-1.64 24.3-1.64 13.421 0 24.3.733 24.3 1.64 0 .905-10.879 1.64-24.3 1.64-13.422 0-24.3-.734-24.3-1.64z" opacity=".195" fill="url(#SVGID_9_)"/><radialGradient id="SVGID_10_" cx="-235.984" cy="-439.314" r="5.12" gradientTransform="matrix(5.3081 0 0 .2784 1287.87 190.558)" gradientUnits="userSpaceOnUse"><stop offset="0"/><stop offset="1"/></radialGradient><ellipse cx="35.244" cy="68.252" rx="23.595" ry="1.591" opacity=".22" fill="url(#SVGID_10_)"/><radialGradient id="SVGID_11_" cx="-233.76" cy="-463.396" r="5.15" gradientTransform="matrix(5.1084 0 0 .2687 1229.382 192.767)" gradientUnits="userSpaceOnUse"><stop offset="0"/><stop offset="1"/></radialGradient><ellipse cx="35.244" cy="68.252" rx="22.89" ry="1.543" opacity=".244" fill="url(#SVGID_11_)"/><radialGradient id="SVGID_12_" cx="-231.355" cy="-489.281" r="5.183" gradientTransform="matrix(4.9087 0 0 .259 1170.895 194.976)" gradientUnits="userSpaceOnUse"><stop offset="0"/><stop offset="1"/></radialGradient><path d="M13.06 68.252c0-.826 9.931-1.495 22.184-1.495 12.253 0 22.185.669 22.185 1.495 0 .825-9.932 1.495-22.185 1.495-12.253 0-22.184-.67-22.184-1.495z" opacity=".268" fill="url(#SVGID_12_)"/><radialGradient id="SVGID_13_" cx="-228.746" cy="-517.182" r="5.218" gradientTransform="matrix(4.709 0 0 .2493 1112.408 197.185)" gradientUnits="userSpaceOnUse"><stop offset="0"/><stop offset="1"/></radialGradient><path d="M13.765 68.252c0-.799 9.615-1.446 21.478-1.446s21.48.647 21.48 1.446c0 .798-9.616 1.446-21.48 1.446s-21.478-.647-21.478-1.446z" opacity=".293" fill="url(#SVGID_13_)"/><radialGradient id="SVGID_14_" cx="-225.905" cy="-547.339" r="5.256" gradientTransform="matrix(4.5093 0 0 .2396 1053.92 199.395)" gradientUnits="userSpaceOnUse"><stop offset="0"/><stop offset="1"/></radialGradient><path d="M14.47 68.252c0-.773 9.3-1.398 20.773-1.398 11.474 0 20.774.625 20.774 1.398 0 .771-9.3 1.397-20.774 1.397-11.473.001-20.773-.625-20.773-1.397z" opacity=".317" fill="url(#SVGID_14_)"/><radialGradient id="SVGID_15_" cx="-222.802" cy="-580.04" r="5.297" gradientTransform="matrix(4.3096 0 0 .2299 995.432 201.604)" gradientUnits="userSpaceOnUse"><stop offset="0"/><stop offset="1"/></radialGradient><path d="M15.175 68.252c0-.746 8.984-1.349 20.068-1.349 11.084 0 20.069.604 20.069 1.349s-8.984 1.349-20.069 1.349c-11.084.001-20.068-.604-20.068-1.349z" opacity=".342" fill="url(#SVGID_15_)"/><radialGradient id="SVGID_16_" cx="-219.397" cy="-615.629" r="5.342" gradientTransform="matrix(4.1099 0 0 .2202 936.945 203.814)" gradientUnits="userSpaceOnUse"><stop offset="0"/><stop offset="1"/></radialGradient><path d="M15.88 68.252c0-.719 8.669-1.301 19.363-1.301s19.364.582 19.364 1.301c0 .718-8.669 1.3-19.364 1.3s-19.363-.582-19.363-1.3z" opacity=".366" fill="url(#SVGID_16_)"/><radialGradient id="SVGID_17_" cx="-215.644" cy="-651.043" r="5.394" gradientTransform="matrix(3.9102 0 0 .2104 878.457 205.232)" gradientUnits="userSpaceOnUse"><stop offset="0"/><stop offset="1"/></radialGradient><path d="M16.586 68.252c0-.692 8.352-1.252 18.658-1.252 10.306 0 18.659.56 18.659 1.252 0 .691-8.353 1.252-18.659 1.252s-18.658-.56-18.658-1.252z" opacity=".39" fill="url(#SVGID_17_)"/><radialGradient id="SVGID_18_" cx="-211.488" cy="-693.517" r="5.449" gradientTransform="matrix(3.7105 0 0 .2007 819.97 207.441)" gradientUnits="userSpaceOnUse"><stop offset="0"/><stop offset="1"/></radialGradient><path d="M17.291 68.252c0-.666 8.037-1.204 17.953-1.204s17.953.539 17.953 1.204c0 .664-8.037 1.204-17.953 1.204s-17.953-.539-17.953-1.204z" opacity=".415" fill="url(#SVGID_18_)"/><radialGradient id="SVGID_19_" cx="-206.858" cy="-740.305" r="5.509" gradientTransform="matrix(3.5108 0 0 .191 761.482 209.65)" gradientUnits="userSpaceOnUse"><stop offset="0"/><stop offset="1"/></radialGradient><path d="M17.996 68.252c0-.639 7.721-1.155 17.248-1.155 9.526 0 17.248.517 17.248 1.155s-7.722 1.155-17.248 1.155c-9.527 0-17.248-.517-17.248-1.155z" opacity=".439" fill="url(#SVGID_19_)"/><radialGradient id="SVGID_20_" cx="-201.671" cy="-792.097" r="5.578" gradientTransform="matrix(3.3111 0 0 .1813 702.995 211.86)" gradientUnits="userSpaceOnUse"><stop offset="0"/><stop offset="1"/></radialGradient><path d="M18.702 68.252c0-.612 7.405-1.107 16.542-1.107s16.543.495 16.543 1.107c0 .611-7.405 1.106-16.543 1.106-9.137.001-16.542-.495-16.542-1.106z" opacity=".463" fill="url(#SVGID_20_)"/><radialGradient id="SVGID_21_" cx="-195.817" cy="-849.746" r="5.654" gradientTransform="matrix(3.1114 0 0 .1716 644.508 214.069)" gradientUnits="userSpaceOnUse"><stop offset="0"/><stop offset="1"/></radialGradient><path d="M19.407 68.252c0-.585 7.089-1.059 15.837-1.059s15.837.474 15.837 1.059c0 .584-7.09 1.058-15.837 1.058-8.748.001-15.837-.474-15.837-1.058z" opacity=".488" fill="url(#SVGID_21_)"/><radialGradient id="SVGID_22_" cx="-189.16" cy="-914.306" r="5.741" gradientTransform="matrix(2.9117 0 0 .1619 586.02 216.278)" gradientUnits="userSpaceOnUse"><stop offset="0"/><stop offset="1"/></radialGradient><path d="M20.112 68.252c0-.559 6.774-1.01 15.132-1.01s15.132.452 15.132 1.01-6.774 1.009-15.132 1.009-15.132-.451-15.132-1.009z" opacity=".512" fill="url(#SVGID_22_)"/><radialGradient id="SVGID_23_" cx="-181.522" cy="-987.095" r="5.84" gradientTransform="matrix(2.712 0 0 .1522 527.532 218.488)" gradientUnits="userSpaceOnUse"><stop offset="0"/><stop offset="1"/></radialGradient><path d="M20.817 68.252c0-.532 6.458-.962 14.427-.962 7.968 0 14.427.43 14.427.962 0 .531-6.458.961-14.427.961-7.969 0-14.427-.43-14.427-.961z" opacity=".537" fill="url(#SVGID_23_)"/><radialGradient id="SVGID_24_" cx="-172.67" cy="-1069.784" r="5.954" gradientTransform="matrix(2.5123 0 0 .1425 469.042 220.696)" gradientUnits="userSpaceOnUse"><stop offset="0"/><stop offset="1"/></radialGradient><path d="M21.522 68.252c0-.505 6.142-.914 13.721-.914s13.722.409 13.722.914c0 .504-6.143.913-13.722.913s-13.721-.409-13.721-.913z" opacity=".561" fill="url(#SVGID_24_)"/><radialGradient id="SVGID_25_" cx="-162.289" cy="-1164.56" r="6.084" gradientTransform="matrix(2.3126 0 0 .1328 410.553 222.905)" gradientUnits="userSpaceOnUse"><stop offset="0"/><stop offset="1"/></radialGradient><path d="M22.228 68.252c0-.478 5.827-.865 13.016-.865s13.017.387 13.017.865c0 .477-5.827.864-13.017.864-7.19 0-13.016-.387-13.016-.864z" opacity=".585" fill="url(#SVGID_25_)"/><radialGradient id="SVGID_26_" cx="-149.945" cy="-1274.268" r="6.24" gradientTransform="matrix(2.1129 0 0 .1231 352.063 225.114)" gradientUnits="userSpaceOnUse"><stop offset="0"/><stop offset="1"/></radialGradient><path d="M22.933 68.252c0-.451 5.511-.816 12.311-.816s12.311.365 12.311.816c0 .45-5.511.815-12.311.815-6.801.001-12.311-.364-12.311-.815z" opacity=".61" fill="url(#SVGID_26_)"/><radialGradient id="SVGID_27_" cx="-135.025" cy="-1397.008" r="6.43" gradientTransform="matrix(1.9132 0 0 .1133 293.574 226.533)" gradientUnits="userSpaceOnUse"><stop offset="0"/><stop offset="1"/></radialGradient><path d="M23.638 68.252c0-.425 5.195-.768 11.605-.768 6.411 0 11.606.343 11.606.768 0 .424-5.195.767-11.606.767-6.41.001-11.605-.343-11.605-.767z" opacity=".634" fill="url(#SVGID_27_)"/><radialGradient id="SVGID_28_" cx="-116.627" cy="-1549.142" r="6.657" gradientTransform="matrix(1.7135 0 0 .1036 235.084 228.743)" gradientUnits="userSpaceOnUse"><stop offset="0"/><stop offset="1"/></radialGradient><path d="M24.343 68.252c0-.398 4.879-.72 10.9-.72s10.901.322 10.901.72c0 .397-4.88.718-10.901.718s-10.9-.321-10.9-.718z" opacity=".658" fill="url(#SVGID_28_)"/><radialGradient id="SVGID_29_" cx="-93.375" cy="-1732.689" r="6.941" gradientTransform="matrix(1.5138 0 0 .0939 176.595 230.951)" gradientUnits="userSpaceOnUse"><stop offset="0"/><stop offset="1"/></radialGradient><path d="M25.048 68.252c0-.371 4.563-.671 10.195-.671 5.631 0 10.195.3 10.195.671 0 .37-4.564.67-10.195.67s-10.195-.3-10.195-.67z" opacity=".683" fill="url(#SVGID_29_)"/><radialGradient id="SVGID_30_" cx="-63.056" cy="-1958.534" r="7.306" gradientTransform="matrix(1.3141 0 0 .0842 118.106 233.16)" gradientUnits="userSpaceOnUse"><stop offset="0"/><stop offset="1"/></radialGradient><path d="M25.754 68.252c0-.344 4.248-.623 9.49-.623s9.49.278 9.49.623c0 .343-4.248.622-9.49.622-5.243 0-9.49-.278-9.49-.622z" opacity=".707" fill="url(#SVGID_30_)"/><radialGradient id="SVGID_31_" cx="-21.87" cy="-2243.19" r="7.791" gradientTransform="matrix(1.1144 0 0 .0745 59.616 235.37)" gradientUnits="userSpaceOnUse"><stop offset="0"/><stop offset="1"/></radialGradient><path d="M26.459 68.252c0-.318 3.932-.574 8.785-.574s8.785.256 8.785.574c0 .317-3.933.573-8.785.573-4.853 0-8.785-.256-8.785-.573z" opacity=".732" fill="url(#SVGID_31_)"/><radialGradient id="SVGID_32_" cx="37.298" cy="-2613.072" r="8.476" gradientTransform="matrix(.9147 0 0 .0648 1.127 237.579)" gradientUnits="userSpaceOnUse"><stop offset="0"/><stop offset="1"/></radialGradient><path d="M27.164 68.252c0-.291 3.616-.526 8.079-.526 4.463 0 8.08.235 8.08.526 0 .29-3.617.524-8.08.524-4.463.001-8.079-.234-8.079-.524z" opacity=".756" fill="url(#SVGID_32_)"/><radialGradient id="SVGID_33_" cx="129.519" cy="-3113.183" r="9.52" gradientTransform="matrix(.715 0 0 .0551 -57.362 239.788)" gradientUnits="userSpaceOnUse"><stop offset="0"/><stop offset="1"/></radialGradient><path d="M27.869 68.252c0-.264 3.301-.478 7.374-.478 4.074 0 7.375.213 7.375.478 0 .263-3.301.476-7.375.476-4.073.001-7.374-.212-7.374-.476z" opacity=".78" fill="url(#SVGID_33_)"/><radialGradient id="SVGID_34_" cx="293.219" cy="-3826.988" r="11.326" gradientTransform="matrix(.5153 0 0 .0454 -115.852 241.997)" gradientUnits="userSpaceOnUse"><stop offset="0"/><stop offset="1"/></radialGradient><path d="M28.575 68.252c0-.237 2.985-.429 6.668-.429 3.685 0 6.67.192 6.67.429 0 .236-2.985.428-6.67.428-3.683 0-6.668-.191-6.668-.428z" opacity=".805" fill="url(#SVGID_34_)"/><radialGradient id="SVGID_35_" cx="664.082" cy="-4928.714" r="15.333" gradientTransform="matrix(.3156 0 0 .0357 -174.34 244.207)" gradientUnits="userSpaceOnUse"><stop offset="0"/><stop offset="1"/></radialGradient><path d="M29.28 68.252c0-.211 2.669-.38 5.963-.38 3.295 0 5.964.17 5.964.38 0 .209-2.669.379-5.964.379-3.294 0-5.963-.169-5.963-.379z" opacity=".829" fill="url(#SVGID_35_)"/><radialGradient id="SVGID_36_" cx="2312.979" cy="-6852.438" r="33.325" gradientTransform="matrix(.1159 0 0 .026 -232.83 246.415)" gradientUnits="userSpaceOnUse"><stop offset="0"/><stop offset="1"/></radialGradient><path d="M29.985 68.252c0-.184 2.354-.332 5.258-.332 2.905 0 5.259.148 5.259.332 0 .183-2.354.331-5.259.331-2.905 0-5.258-.147-5.258-.331z" opacity=".854" fill="url(#SVGID_36_)"/><radialGradient id="SVGID_37_" cx="-3896.939" cy="-11085.313" r="40.358" gradientTransform="matrix(-.0838 0 0 .0162 -291.32 247.834)" gradientUnits="userSpaceOnUse"><stop offset="0"/><stop offset="1"/></radialGradient><path d="M30.691 68.252c0-.157 2.038-.284 4.553-.284 2.516 0 4.554.127 4.554.284 0 .156-2.038.282-4.554.282-2.516.001-4.553-.125-4.553-.282z" opacity=".878" fill="url(#SVGID_37_)"/><radialGradient id="SVGID_38_" cx="-1358.21" cy="-27967.945" r="27.246" gradientTransform="matrix(-.2835 0 0 .0065 -349.809 250.043)" gradientUnits="userSpaceOnUse"><stop offset="0"/><stop offset="1"/></radialGradient><path d="M31.396 68.252c0-.13 1.722-.235 3.848-.235 2.127 0 3.849.105 3.849.235 0 .129-1.722.233-3.849.233-2.127.001-3.848-.103-3.848-.233z" opacity=".902" fill="url(#SVGID_38_)"/><radialGradient id="SVGID_39_" cx="-917.927" cy="57500.137" r="41.368" gradientTransform="matrix(-.4832 0 0 -.0032 -408.298 252.252)" gradientUnits="userSpaceOnUse"><stop offset="0"/><stop offset="1"/></radialGradient><path d="M32.101 68.252c0-.104 1.406-.187 3.143-.187 1.737 0 3.144.084 3.144.187 0 .102-1.407.185-3.144.185-1.737.001-3.143-.082-3.143-.185z" opacity=".927" fill="url(#SVGID_39_)"/><radialGradient id="SVGID_40_" cx="-735.146" cy="14434.811" r="7.946" gradientTransform="matrix(-.6829 0 0 -.0129 -466.788 254.46)" gradientUnits="userSpaceOnUse"><stop offset="0"/><stop offset="1"/></radialGradient><path d="M32.806 68.252c0-.077 1.091-.138 2.438-.138 1.347 0 2.439.061 2.439.138 0 .076-1.091.137-2.439.137s-2.438-.06-2.438-.137z" opacity=".951" fill="url(#SVGID_40_)"/><radialGradient id="SVGID_41_" cx="-635.079" cy="8337.106" r="3.107" gradientTransform="matrix(-.8826 0 0 -.0226 -525.277 256.67)" gradientUnits="userSpaceOnUse"><stop offset="0"/><stop offset="1"/></radialGradient><path d="M33.511 68.252c0-.05.774-.09 1.732-.09s1.733.04 1.733.09c0 .049-.775.088-1.733.088-.957 0-1.732-.038-1.732-.088z" opacity=".976" fill="url(#SVGID_41_)"/><radialGradient id="SVGID_42_" cx="-571.94" cy="5901.795" r="1.112" gradientTransform="matrix(-1.0823 0 0 -.0323 -583.767 258.88)" gradientUnits="userSpaceOnUse"><stop offset="0"/><stop offset="1"/></radialGradient><path d="M34.216 68.252c0-.023.459-.042 1.027-.042.568 0 1.028.018 1.028.042 0 .022-.459.039-1.028.039-.568.001-1.027-.016-1.027-.039z" fill="url(#SVGID_42_)"/></g><linearGradient id="SVGID_43_" gradientUnits="userSpaceOnUse" y1="33.112" x2="66.723" y2="33.112"><stop offset="0" stop-color="#009444"/><stop offset="1" stop-color="#004726"/></linearGradient><path d="M33.361 0C14.936 0 0 14.936 0 33.361v32.726c10.306-6.852 21.958-3.01 29.95-.757a23.766 23.766 0 0 0 13.912-.305c13.279-4.398 22.861-16.91 22.861-31.665C66.723 14.936 51.787 0 33.361 0z" fill="url(#SVGID_43_)"/><g opacity=".7"><path d="M35.958 63.641c-15.787 0-28.629-12.843-28.629-28.629 0-15.786 12.843-28.629 28.629-28.629 15.785 0 28.628 12.843 28.628 28.629 0 15.786-12.842 28.629-28.628 28.629z" opacity=".014"/><path d="M35.92 63.606c-15.778 0-28.614-12.836-28.614-28.612 0-15.777 12.836-28.612 28.614-28.612 15.776 0 28.611 12.835 28.611 28.612 0 15.777-12.835 28.612-28.611 28.612z" opacity=".028"/><path d="M35.881 63.572c-15.769 0-28.597-12.829-28.597-28.596 0-15.768 12.828-28.596 28.597-28.596 15.767 0 28.595 12.828 28.595 28.596S51.648 63.572 35.881 63.572z" opacity=".042"/><path d="M35.842 63.538c-15.76 0-28.581-12.821-28.581-28.58 0-15.759 12.821-28.58 28.581-28.58 15.758 0 28.579 12.821 28.579 28.58 0 15.759-12.821 28.58-28.579 28.58z" opacity=".056"/><path d="M35.803 63.503c-15.75 0-28.564-12.814-28.564-28.563 0-15.75 12.813-28.563 28.564-28.563 15.75 0 28.563 12.813 28.563 28.563 0 15.749-12.814 28.563-28.563 28.563z" opacity=".07"/><path d="M35.764 63.469c-15.742 0-28.548-12.807-28.548-28.547 0-15.741 12.807-28.547 28.548-28.547 15.74 0 28.546 12.806 28.546 28.547.001 15.741-12.806 28.547-28.546 28.547z" opacity=".085"/><path d="M35.725 63.435c-15.733 0-28.532-12.8-28.532-28.531 0-15.732 12.799-28.531 28.532-28.531 15.731 0 28.53 12.799 28.53 28.531 0 15.731-12.798 28.531-28.53 28.531z" opacity=".099"/><path d="M35.686 63.4c-15.724 0-28.515-12.792-28.515-28.514 0-15.723 12.792-28.515 28.515-28.515 15.722 0 28.514 12.792 28.514 28.515C64.2 50.608 51.408 63.4 35.686 63.4z" opacity=".113"/><path d="M35.647 63.366c-15.715 0-28.499-12.785-28.499-28.498 0-15.714 12.784-28.498 28.499-28.498 15.713 0 28.497 12.784 28.497 28.498.001 15.714-12.784 28.498-28.497 28.498z" opacity=".127"/><path d="M35.608 63.332c-15.705 0-28.483-12.777-28.483-28.481 0-15.705 12.777-28.482 28.483-28.482 15.704 0 28.481 12.777 28.481 28.482 0 15.703-12.776 28.481-28.481 28.481z" opacity=".141"/><path d="M35.569 63.297c-15.697 0-28.466-12.77-28.466-28.465 0-15.696 12.77-28.465 28.466-28.465 15.695 0 28.465 12.769 28.465 28.465 0 15.695-12.769 28.465-28.465 28.465z" opacity=".155"/><path d="M35.531 63.263c-15.688 0-28.45-12.763-28.45-28.449 0-15.688 12.762-28.45 28.45-28.45 15.686 0 28.448 12.762 28.448 28.45 0 15.686-12.762 28.449-28.448 28.449z" opacity=".169"/><path d="M35.492 63.229c-15.679 0-28.434-12.755-28.434-28.432 0-15.678 12.755-28.433 28.434-28.433 15.677 0 28.432 12.755 28.432 28.433 0 15.676-12.755 28.432-28.432 28.432z" opacity=".183"/><path d="M35.453 63.194c-15.67 0-28.418-12.748-28.418-28.416 0-15.67 12.748-28.417 28.418-28.417 15.668 0 28.416 12.748 28.416 28.417 0 15.668-12.748 28.416-28.416 28.416z" opacity=".197"/><path d="M35.414 63.16c-15.661 0-28.401-12.741-28.401-28.4 0-15.66 12.74-28.4 28.401-28.4 15.66 0 28.4 12.74 28.4 28.4-.001 15.659-12.741 28.4-28.4 28.4z" opacity=".211"/><path d="M35.375 63.125c-15.652 0-28.385-12.733-28.385-28.383 0-15.651 12.733-28.384 28.385-28.384 15.65 0 28.383 12.733 28.383 28.384 0 15.65-12.733 28.383-28.383 28.383z" opacity=".225"/><path d="M35.336 63.091c-15.643 0-28.368-12.726-28.368-28.367 0-15.642 12.726-28.368 28.368-28.368 15.642 0 28.367 12.726 28.367 28.368 0 15.641-12.725 28.367-28.367 28.367z" opacity=".239"/><path d="M35.297 63.057c-15.633 0-28.352-12.719-28.352-28.351 0-15.633 12.719-28.352 28.352-28.352 15.633 0 28.351 12.718 28.351 28.352 0 15.632-12.718 28.351-28.351 28.351z" opacity=".254"/><path d="M35.258 63.022c-15.625 0-28.336-12.711-28.336-28.334 0-15.624 12.711-28.335 28.336-28.335 15.624 0 28.334 12.711 28.334 28.335.001 15.623-12.71 28.334-28.334 28.334z" opacity=".268"/><path d="M35.219 62.988C19.604 62.988 6.9 50.284 6.9 34.67c0-15.615 12.704-28.319 28.319-28.319 15.615 0 28.318 12.704 28.318 28.319.001 15.614-12.703 28.318-28.318 28.318z" opacity=".282"/><path d="M35.18 62.954c-15.606 0-28.303-12.697-28.303-28.302 0-15.606 12.696-28.303 28.303-28.303 15.606 0 28.302 12.696 28.302 28.303 0 15.605-12.696 28.302-28.302 28.302z" opacity=".296"/><path d="M35.142 62.919c-15.598 0-28.287-12.689-28.287-28.286 0-15.597 12.69-28.286 28.287-28.286 15.596 0 28.285 12.689 28.285 28.286 0 15.597-12.689 28.286-28.285 28.286z" opacity=".31"/><path d="M35.103 62.885c-15.589 0-28.271-12.682-28.271-28.27s12.682-28.27 28.271-28.27c15.587 0 28.269 12.682 28.269 28.27s-12.682 28.27-28.269 28.27z" opacity=".324"/><path d="M35.063 62.851c-15.58 0-28.254-12.675-28.254-28.253 0-15.579 12.674-28.254 28.254-28.254 15.579 0 28.253 12.675 28.253 28.254 0 15.578-12.674 28.253-28.253 28.253z" opacity=".338"/><path d="M35.024 62.816c-15.57 0-28.237-12.667-28.237-28.237 0-15.57 12.667-28.237 28.237-28.237 15.57 0 28.237 12.667 28.237 28.237 0 15.57-12.667 28.237-28.237 28.237z" opacity=".352"/><path d="M34.986 62.782c-15.562 0-28.222-12.661-28.222-28.221C6.764 19 19.424 6.34 34.986 6.34c15.56 0 28.22 12.66 28.22 28.221 0 15.56-12.66 28.221-28.22 28.221z" opacity=".366"/><path d="M34.947 62.748c-15.552 0-28.205-12.653-28.205-28.204 0-15.552 12.653-28.205 28.205-28.205 15.552 0 28.204 12.652 28.204 28.205 0 15.551-12.652 28.204-28.204 28.204z" opacity=".38"/><path d="M34.908 62.713c-15.543 0-28.188-12.646-28.188-28.188 0-15.543 12.645-28.188 28.188-28.188s28.188 12.646 28.188 28.188c0 15.543-12.645 28.188-28.188 28.188z" opacity=".394"/><path d="M34.869 62.679c-15.535 0-28.172-12.639-28.172-28.172 0-15.534 12.638-28.172 28.172-28.172S63.04 18.973 63.04 34.507c.001 15.534-12.637 28.172-28.171 28.172z" opacity=".408"/><path d="M34.83 62.645c-15.525 0-28.156-12.631-28.156-28.155 0-15.525 12.631-28.156 28.156-28.156 15.525 0 28.155 12.631 28.155 28.156 0 15.524-12.63 28.155-28.155 28.155z" opacity=".422"/><path d="M34.791 62.61c-15.516 0-28.14-12.623-28.14-28.139S19.275 6.332 34.791 6.332 62.93 18.955 62.93 34.471 50.307 62.61 34.791 62.61z" opacity=".437"/><ellipse transform="rotate(-45.001 34.752 34.454)" cx="34.752" cy="34.453" rx="28.123" ry="28.123" opacity=".451"/><path d="M34.713 62.542c-15.499 0-28.107-12.609-28.107-28.106 0-15.498 12.608-28.107 28.107-28.107 15.498 0 28.106 12.609 28.106 28.107.001 15.497-12.608 28.106-28.106 28.106z" opacity=".465"/><path d="M34.674 62.507c-15.489 0-28.091-12.602-28.091-28.09 0-15.489 12.602-28.09 28.091-28.09s28.09 12.601 28.09 28.09c.001 15.489-12.6 28.09-28.09 28.09z" opacity=".479"/><circle cx="34.635" cy="34.399" r="28.074" opacity=".493"/><path d="M34.597 62.438c-15.472 0-28.058-12.587-28.058-28.057 0-15.472 12.586-28.058 28.058-28.058 15.471 0 28.057 12.586 28.057 28.058 0 15.471-12.587 28.057-28.057 28.057z" opacity=".507"/><path d="M34.558 62.404c-15.462 0-28.041-12.58-28.041-28.041 0-15.462 12.579-28.042 28.041-28.042s28.041 12.58 28.041 28.042c0 15.461-12.579 28.041-28.041 28.041z" opacity=".521"/><path d="M34.519 62.37c-15.453 0-28.025-12.573-28.025-28.025 0-15.454 12.572-28.025 28.025-28.025s28.025 12.572 28.025 28.025C62.543 49.797 49.972 62.37 34.519 62.37z" opacity=".535"/><path d="M34.48 62.335c-15.444 0-28.009-12.565-28.009-28.008 0-15.444 12.565-28.009 28.009-28.009s28.008 12.565 28.008 28.009S49.924 62.335 34.48 62.335z" opacity=".549"/><path d="M34.441 62.301c-15.435 0-27.993-12.558-27.993-27.992 0-15.435 12.557-27.993 27.993-27.993 15.435 0 27.992 12.558 27.992 27.993 0 15.434-12.557 27.992-27.992 27.992z" opacity=".563"/><path d="M34.402 62.267c-15.426 0-27.976-12.551-27.976-27.976 0-15.427 12.55-27.977 27.976-27.977 15.426 0 27.976 12.55 27.976 27.977 0 15.425-12.55 27.976-27.976 27.976z" opacity=".578"/><path d="M34.363 62.232c-15.417 0-27.96-12.543-27.96-27.959 0-15.417 12.543-27.96 27.96-27.96 15.417 0 27.96 12.543 27.96 27.96 0 15.416-12.543 27.959-27.96 27.959z" opacity=".592"/><path d="M34.324 62.198c-15.408 0-27.944-12.536-27.944-27.943 0-15.409 12.536-27.944 27.944-27.944s27.943 12.535 27.943 27.944c.001 15.407-12.535 27.943-27.943 27.943z" opacity=".606"/><path d="M34.285 62.164c-15.399 0-27.927-12.529-27.927-27.927 0-15.399 12.528-27.928 27.927-27.928s27.927 12.528 27.927 27.928c0 15.398-12.527 27.927-27.927 27.927z" opacity=".62"/><path d="M34.246 62.129c-15.39 0-27.911-12.521-27.911-27.911 0-15.391 12.521-27.911 27.911-27.911 15.391 0 27.911 12.521 27.911 27.911s-12.52 27.911-27.911 27.911z" opacity=".634"/><path d="M34.208 62.095c-15.381 0-27.895-12.514-27.895-27.895S18.827 6.305 34.208 6.305 62.103 18.819 62.103 34.2c-.001 15.381-12.514 27.895-27.895 27.895z" opacity=".648"/><path d="M34.168 62.061c-15.372 0-27.878-12.506-27.878-27.878 0-15.373 12.506-27.878 27.878-27.878 15.373 0 27.878 12.506 27.878 27.878.001 15.371-12.505 27.878-27.878 27.878z" opacity=".662"/><path d="M34.129 62.026c-15.363 0-27.862-12.5-27.862-27.862 0-15.363 12.499-27.862 27.862-27.862 15.364 0 27.862 12.499 27.862 27.862.001 15.363-12.498 27.862-27.862 27.862z" opacity=".676"/><path d="M34.09 61.992c-15.354 0-27.845-12.492-27.845-27.846S18.736 6.3 34.09 6.3c15.355 0 27.846 12.492 27.846 27.846.001 15.354-12.491 27.846-27.846 27.846z" opacity=".69"/><path d="M34.052 61.958c-15.345 0-27.83-12.484-27.83-27.829s12.484-27.83 27.83-27.83 27.829 12.484 27.829 27.83c0 15.344-12.484 27.829-27.829 27.829z" opacity=".704"/><path d="M34.013 61.923C18.677 61.923 6.2 49.446 6.2 34.11c0-15.336 12.477-27.813 27.813-27.813 15.336 0 27.813 12.477 27.813 27.813 0 15.336-12.477 27.813-27.813 27.813z" opacity=".718"/><path d="M33.974 61.889c-15.327 0-27.796-12.47-27.796-27.797 0-15.328 12.47-27.797 27.796-27.797 15.328 0 27.797 12.469 27.797 27.797 0 15.327-12.47 27.797-27.797 27.797z" opacity=".732"/><path d="M33.935 61.854c-15.318 0-27.78-12.462-27.78-27.78 0-15.318 12.462-27.781 27.78-27.781 15.318 0 27.78 12.462 27.78 27.781 0 15.318-12.462 27.78-27.78 27.78z" opacity=".747"/><ellipse transform="rotate(-80.781 33.897 34.056)" cx="33.896" cy="34.056" rx="27.764" ry="27.764" opacity=".761"/><path d="M33.857 61.786c-15.3 0-27.748-12.448-27.748-27.748S18.557 6.29 33.857 6.29c15.301 0 27.748 12.448 27.748 27.748S49.158 61.786 33.857 61.786z" opacity=".775"/><path d="M33.818 61.751c-15.291 0-27.732-12.441-27.732-27.731 0-15.292 12.44-27.732 27.732-27.732S61.549 18.729 61.549 34.02c.001 15.291-12.439 27.731-27.731 27.731z" opacity=".789"/><path d="M33.779 61.717c-15.282 0-27.715-12.434-27.715-27.715 0-15.282 12.433-27.715 27.715-27.715 15.283 0 27.715 12.433 27.715 27.715.001 15.282-12.432 27.715-27.715 27.715z" opacity=".803"/><path d="M33.74 61.683c-15.273 0-27.699-12.426-27.699-27.699 0-15.273 12.426-27.699 27.699-27.699 15.274 0 27.699 12.426 27.699 27.699 0 15.273-12.425 27.699-27.699 27.699z" opacity=".817"/><path d="M33.701 61.648c-15.264 0-27.682-12.419-27.682-27.683S18.437 6.282 33.701 6.282c15.265 0 27.683 12.418 27.683 27.683 0 15.264-12.418 27.683-27.683 27.683z" opacity=".831"/><path d="M33.663 61.614c-15.255 0-27.666-12.412-27.666-27.666 0-15.256 12.411-27.667 27.666-27.667 15.256 0 27.667 12.411 27.667 27.667-.001 15.255-12.412 27.666-27.667 27.666z" opacity=".845"/><path d="M33.624 61.58c-15.246 0-27.649-12.404-27.649-27.65 0-15.247 12.403-27.65 27.649-27.65 15.247 0 27.65 12.403 27.65 27.65 0 15.246-12.403 27.65-27.65 27.65z" opacity=".859"/><path d="M33.584 61.545c-15.237 0-27.633-12.397-27.633-27.633 0-15.238 12.396-27.634 27.633-27.634 15.238 0 27.634 12.396 27.634 27.634.001 15.236-12.395 27.633-27.634 27.633z" opacity=".873"/><path d="M33.546 61.511c-15.228 0-27.617-12.39-27.617-27.617 0-15.229 12.389-27.618 27.617-27.618 15.229 0 27.618 12.389 27.618 27.618 0 15.227-12.389 27.617-27.618 27.617z" opacity=".887"/><path d="M33.507 61.477c-15.219 0-27.601-12.382-27.601-27.601 0-15.22 12.382-27.601 27.601-27.601 15.22 0 27.601 12.382 27.601 27.601S48.727 61.477 33.507 61.477z" opacity=".901"/><path d="M33.468 61.442c-15.21 0-27.584-12.375-27.584-27.584 0-15.211 12.374-27.585 27.584-27.585 15.211 0 27.585 12.375 27.585 27.585 0 15.209-12.374 27.584-27.585 27.584z" opacity=".915"/><path d="M33.429 61.408c-15.201 0-27.568-12.368-27.568-27.568 0-15.202 12.367-27.569 27.568-27.569 15.202 0 27.568 12.367 27.568 27.569.001 15.201-12.366 27.568-27.568 27.568z" opacity=".93"/><path d="M33.39 61.374c-15.192 0-27.552-12.36-27.552-27.552 0-15.193 12.36-27.553 27.552-27.553 15.193 0 27.552 12.36 27.552 27.553 0 15.191-12.359 27.552-27.552 27.552z" opacity=".944"/><path d="M33.351 61.339c-15.183 0-27.535-12.353-27.535-27.536 0-15.184 12.353-27.536 27.535-27.536 15.184 0 27.536 12.353 27.536 27.536 0 15.183-12.352 27.536-27.536 27.536z" opacity=".958"/><path d="M33.312 61.305c-15.174 0-27.519-12.346-27.519-27.52 0-15.175 12.345-27.52 27.519-27.52 15.175 0 27.52 12.345 27.52 27.52 0 15.174-12.345 27.52-27.52 27.52z" opacity=".972"/><path d="M33.273 61.271c-15.165 0-27.503-12.338-27.503-27.503 0-15.166 12.338-27.503 27.503-27.503 15.166 0 27.503 12.338 27.503 27.503.001 15.164-12.337 27.503-27.503 27.503z" opacity=".986"/><path d="M33.234 61.236c-15.156 0-27.486-12.331-27.486-27.487 0-15.157 12.33-27.487 27.486-27.487 15.157 0 27.487 12.33 27.487 27.487.001 15.156-12.329 27.487-27.487 27.487z"/></g><linearGradient id="SVGID_44_" gradientUnits="userSpaceOnUse" x1="13.967" y1="14.481" x2="52.821" y2="53.335"><stop offset="0" stop-color="#c3c4c3"/><stop offset=".217" stop-color="#dadada"/><stop offset=".484" stop-color="#eeefee"/><stop offset=".747" stop-color="#fbfbfb"/><stop offset="1" stop-color="#fff"/></linearGradient><path d="M33.234 61.236c-15.156 0-27.486-12.331-27.486-27.487 0-15.157 12.33-27.487 27.486-27.487 15.157 0 27.487 12.33 27.487 27.487.001 15.156-12.329 27.487-27.487 27.487z" fill="url(#SVGID_44_)" stroke="#fff" stroke-width=".74" stroke-miterlimit="10"/><linearGradient id="SVGID_45_" gradientUnits="userSpaceOnUse" x1="18.502" y1="33.03" x2="47.985" y2="33.03"><stop offset="0" stop-color="#004726"/><stop offset="1" stop-color="#009444"/></linearGradient><path d="M40.298 35.936c-.363-.196-2.148-1.158-2.48-1.297-.333-.132-.58-.205-.839.155-.258.36-.999 1.168-1.223 1.406-.225.238-.44.261-.804.062-.362-.2-1.538-.633-2.902-1.944-1.061-1.019-1.758-2.258-1.959-2.636-.203-.377 0-.571.191-.748.171-.161.385-.418.579-.627.191-.207.259-.36.391-.601.133-.241.079-.459-.007-.649-.084-.188-.755-2.034-1.035-2.785-.28-.752-.594-.64-.809-.646-.215-.008-.461-.046-.705-.057a1.359 1.359 0 0 0-1.003.424c-.352.357-1.342 1.216-1.41 3.032-.067 1.819 1.191 3.625 1.365 3.879.176.252 2.402 4.193 6.102 5.815 3.701 1.619 3.722 1.125 4.4 1.089.681-.036 2.22-.814 2.561-1.663.338-.852.365-1.591.279-1.747-.087-.163-.33-.263-.692-.462zm-6.788 8.76c-2.445 0-4.725-.733-6.628-1.99l-4.629 1.479 1.504-4.474a11.982 11.982 0 0 1-2.294-7.064c0-6.644 5.405-12.049 12.047-12.049 6.645 0 12.049 5.405 12.049 12.049.001 6.643-5.404 12.049-12.049 12.049zm0-26.521c-7.991 0-14.473 6.479-14.473 14.472 0 2.736.76 5.293 2.078 7.475l-2.613 7.764 8.013-2.564a14.421 14.421 0 0 0 6.995 1.799c7.994 0 14.475-6.478 14.475-14.473 0-7.994-6.481-14.473-14.475-14.473z" fill-rule="evenodd" clip-rule="evenodd" fill="url(#SVGID_45_)"/></svg>