<!-- Generator: Adobe Illustrator 22.0.1, SVG Export Plug-In  -->
<svg version="1.1"
	 xmlns="http://www.w3.org/2000/svg" xmlns:xlink="http://www.w3.org/1999/xlink" xmlns:a="http://ns.adobe.com/AdobeSVGViewerExtensions/3.0/"
	 x="0px" y="0px" width="66.723px" height="70.28px" viewBox="0 0 66.723 70.28" style="enable-background:new 0 0 66.723 70.28;"
	 xml:space="preserve">
<style type="text/css">
	.st0{opacity:0.3;}
	.st1{opacity:0;fill:url(#SVGID_1_);}
	.st2{opacity:0.0244;fill:url(#SVGID_2_);}
	.st3{opacity:0.0488;fill:url(#SVGID_3_);}
	.st4{opacity:0.0732;fill:url(#SVGID_4_);}
	.st5{opacity:0.0976;fill:url(#SVGID_5_);}
	.st6{opacity:0.122;fill:url(#SVGID_6_);}
	.st7{opacity:0.1463;fill:url(#SVGID_7_);}
	.st8{opacity:0.1707;fill:url(#SVGID_8_);}
	.st9{opacity:0.1951;fill:url(#SVGID_9_);}
	.st10{opacity:0.2195;fill:url(#SVGID_10_);}
	.st11{opacity:0.2439;fill:url(#SVGID_11_);}
	.st12{opacity:0.2683;fill:url(#SVGID_12_);}
	.st13{opacity:0.2927;fill:url(#SVGID_13_);}
	.st14{opacity:0.3171;fill:url(#SVGID_14_);}
	.st15{opacity:0.3415;fill:url(#SVGID_15_);}
	.st16{opacity:0.3659;fill:url(#SVGID_16_);}
	.st17{opacity:0.3902;fill:url(#SVGID_17_);}
	.st18{opacity:0.4146;fill:url(#SVGID_18_);}
	.st19{opacity:0.439;fill:url(#SVGID_19_);}
	.st20{opacity:0.4634;fill:url(#SVGID_20_);}
	.st21{opacity:0.4878;fill:url(#SVGID_21_);}
	.st22{opacity:0.5122;fill:url(#SVGID_22_);}
	.st23{opacity:0.5366;fill:url(#SVGID_23_);}
	.st24{opacity:0.561;fill:url(#SVGID_24_);}
	.st25{opacity:0.5854;fill:url(#SVGID_25_);}
	.st26{opacity:0.6098;fill:url(#SVGID_26_);}
	.st27{opacity:0.6341;fill:url(#SVGID_27_);}
	.st28{opacity:0.6585;fill:url(#SVGID_28_);}
	.st29{opacity:0.6829;fill:url(#SVGID_29_);}
	.st30{opacity:0.7073;fill:url(#SVGID_30_);}
	.st31{opacity:0.7317;fill:url(#SVGID_31_);}
	.st32{opacity:0.7561;fill:url(#SVGID_32_);}
	.st33{opacity:0.7805;fill:url(#SVGID_33_);}
	.st34{opacity:0.8049;fill:url(#SVGID_34_);}
	.st35{opacity:0.8293;fill:url(#SVGID_35_);}
	.st36{opacity:0.8537;fill:url(#SVGID_36_);}
	.st37{opacity:0.878;fill:url(#SVGID_37_);}
	.st38{opacity:0.9024;fill:url(#SVGID_38_);}
	.st39{opacity:0.9268;fill:url(#SVGID_39_);}
	.st40{opacity:0.9512;fill:url(#SVGID_40_);}
	.st41{opacity:0.9756;fill:url(#SVGID_41_);}
	.st42{fill:url(#SVGID_42_);}
	.st43{fill:url(#SVGID_43_);}
	.st44{opacity:0.7;}
	.st45{opacity:0;}
	.st46{opacity:0.0141;}
	.st47{opacity:0.0282;}
	.st48{opacity:0.0423;}
	.st49{opacity:0.0563;}
	.st50{opacity:0.0704;}
	.st51{opacity:0.0845;}
	.st52{opacity:0.0986;}
	.st53{opacity:0.1127;}
	.st54{opacity:0.1268;}
	.st55{opacity:0.1408;}
	.st56{opacity:0.1549;}
	.st57{opacity:0.169;}
	.st58{opacity:0.1831;}
	.st59{opacity:0.1972;}
	.st60{opacity:0.2113;}
	.st61{opacity:0.2254;}
	.st62{opacity:0.2394;}
	.st63{opacity:0.2535;}
	.st64{opacity:0.2676;}
	.st65{opacity:0.2817;}
	.st66{opacity:0.2958;}
	.st67{opacity:0.3099;}
	.st68{opacity:0.3239;}
	.st69{opacity:0.338;}
	.st70{opacity:0.3521;}
	.st71{opacity:0.3662;}
	.st72{opacity:0.3803;}
	.st73{opacity:0.3944;}
	.st74{opacity:0.4085;}
	.st75{opacity:0.4225;}
	.st76{opacity:0.4366;}
	.st77{opacity:0.4507;}
	.st78{opacity:0.4648;}
	.st79{opacity:0.4789;}
	.st80{opacity:0.493;}
	.st81{opacity:0.507;}
	.st82{opacity:0.5211;}
	.st83{opacity:0.5352;}
	.st84{opacity:0.5493;}
	.st85{opacity:0.5634;}
	.st86{opacity:0.5775;}
	.st87{opacity:0.5915;}
	.st88{opacity:0.6056;}
	.st89{opacity:0.6197;}
	.st90{opacity:0.6338;}
	.st91{opacity:0.6479;}
	.st92{opacity:0.662;}
	.st93{opacity:0.6761;}
	.st94{opacity:0.6901;}
	.st95{opacity:0.7042;}
	.st96{opacity:0.7183;}
	.st97{opacity:0.7324;}
	.st98{opacity:0.7465;}
	.st99{opacity:0.7606;}
	.st100{opacity:0.7746;}
	.st101{opacity:0.7887;}
	.st102{opacity:0.8028;}
	.st103{opacity:0.8169;}
	.st104{opacity:0.831;}
	.st105{opacity:0.8451;}
	.st106{opacity:0.8592;}
	.st107{opacity:0.8732;}
	.st108{opacity:0.8873;}
	.st109{opacity:0.9014;}
	.st110{opacity:0.9155;}
	.st111{opacity:0.9296;}
	.st112{opacity:0.9437;}
	.st113{opacity:0.9577;}
	.st114{opacity:0.9718;}
	.st115{opacity:0.9859;}
	.st116{fill:url(#SVGID_44_);stroke:#FFFFFF;stroke-width:0.7398;stroke-miterlimit:10;}
	.st117{fill-rule:evenodd;clip-rule:evenodd;fill:url(#SVGID_45_);}
	.st118{opacity:0;fill:url(#SVGID_46_);}
	.st119{opacity:0.0244;fill:url(#SVGID_47_);}
	.st120{opacity:0.0488;fill:url(#SVGID_48_);}
	.st121{opacity:0.0732;fill:url(#SVGID_49_);}
	.st122{opacity:0.0976;fill:url(#SVGID_50_);}
	.st123{opacity:0.122;fill:url(#SVGID_51_);}
	.st124{opacity:0.1463;fill:url(#SVGID_52_);}
	.st125{opacity:0.1707;fill:url(#SVGID_53_);}
	.st126{opacity:0.1951;fill:url(#SVGID_54_);}
	.st127{opacity:0.2195;fill:url(#SVGID_55_);}
	.st128{opacity:0.2439;fill:url(#SVGID_56_);}
	.st129{opacity:0.2683;fill:url(#SVGID_57_);}
	.st130{opacity:0.2927;fill:url(#SVGID_58_);}
	.st131{opacity:0.3171;fill:url(#SVGID_59_);}
	.st132{opacity:0.3415;fill:url(#SVGID_60_);}
	.st133{opacity:0.3659;fill:url(#SVGID_61_);}
	.st134{opacity:0.3902;fill:url(#SVGID_62_);}
	.st135{opacity:0.4146;fill:url(#SVGID_63_);}
	.st136{opacity:0.439;fill:url(#SVGID_64_);}
	.st137{opacity:0.4634;fill:url(#SVGID_65_);}
	.st138{opacity:0.4878;fill:url(#SVGID_66_);}
	.st139{opacity:0.5122;fill:url(#SVGID_67_);}
	.st140{opacity:0.5366;fill:url(#SVGID_68_);}
	.st141{opacity:0.561;fill:url(#SVGID_69_);}
	.st142{opacity:0.5854;fill:url(#SVGID_70_);}
	.st143{opacity:0.6098;fill:url(#SVGID_71_);}
	.st144{opacity:0.6341;fill:url(#SVGID_72_);}
	.st145{opacity:0.6585;fill:url(#SVGID_73_);}
	.st146{opacity:0.6829;fill:url(#SVGID_74_);}
	.st147{opacity:0.7073;fill:url(#SVGID_75_);}
	.st148{opacity:0.7317;fill:url(#SVGID_76_);}
	.st149{opacity:0.7561;fill:url(#SVGID_77_);}
	.st150{opacity:0.7805;fill:url(#SVGID_78_);}
	.st151{opacity:0.8049;fill:url(#SVGID_79_);}
	.st152{opacity:0.8293;fill:url(#SVGID_80_);}
	.st153{opacity:0.8537;fill:url(#SVGID_81_);}
	.st154{opacity:0.878;fill:url(#SVGID_82_);}
	.st155{opacity:0.9024;fill:url(#SVGID_83_);}
	.st156{opacity:0.9268;fill:url(#SVGID_84_);}
	.st157{opacity:0.9512;fill:url(#SVGID_85_);}
	.st158{opacity:0.9756;fill:url(#SVGID_86_);}
	.st159{fill:url(#SVGID_87_);}
	.st160{fill:url(#SVGID_88_);}
	.st161{fill:url(#SVGID_89_);stroke:#FFFFFF;stroke-width:0.7398;stroke-miterlimit:10;}
	.st162{fill-rule:evenodd;clip-rule:evenodd;fill:url(#SVGID_90_);}
</style>
<defs>
</defs>
<g>
	<g class="st0">
		
			<radialGradient id="SVGID_1_" cx="-250.3715" cy="-282.1529" r="4.9234" gradientTransform="matrix(7.1054 0 0 0.3658 1814.2338 171.4642)" gradientUnits="userSpaceOnUse">
			<stop  offset="0" style="stop-color:#000000"/>
			<stop  offset="1" style="stop-color:#000000"/>
		</radialGradient>
		<path class="st1" d="M65.186,68.252c0,1.119-13.405,2.028-29.942,2.028c-16.538,0-29.942-0.909-29.942-2.028
			c0-1.12,13.404-2.027,29.942-2.027C51.781,66.225,65.186,67.132,65.186,68.252z"/>
		
			<radialGradient id="SVGID_2_" cx="-249.1457" cy="-296.0457" r="4.9405" gradientTransform="matrix(6.9057 0 0 0.3561 1755.7697 173.6745)" gradientUnits="userSpaceOnUse">
			<stop  offset="0" style="stop-color:#000000"/>
			<stop  offset="1" style="stop-color:#000000"/>
		</radialGradient>
		<path class="st2" d="M6.007,68.252c0-1.093,13.089-1.979,29.237-1.979c16.147,0,29.237,0.886,29.237,1.979
			c0,1.092-13.089,1.979-29.237,1.979C19.096,70.232,6.007,69.345,6.007,68.252z"/>
		
			<radialGradient id="SVGID_3_" cx="-247.8434" cy="-310.7144" r="4.9582" gradientTransform="matrix(6.706 0 0 0.3464 1697.2822 175.8839)" gradientUnits="userSpaceOnUse">
			<stop  offset="0" style="stop-color:#000000"/>
			<stop  offset="1" style="stop-color:#000000"/>
		</radialGradient>
		<ellipse class="st3" cx="35.244" cy="68.252" rx="28.531" ry="1.931"/>
		
			<radialGradient id="SVGID_4_" cx="-246.4612" cy="-326.2268" r="4.9767" gradientTransform="matrix(6.5063 0 0 0.3367 1638.7947 178.0932)" gradientUnits="userSpaceOnUse">
			<stop  offset="0" style="stop-color:#000000"/>
			<stop  offset="1" style="stop-color:#000000"/>
		</radialGradient>
		<path class="st4" d="M7.418,68.252c0-1.04,12.457-1.882,27.826-1.882c15.369,0,27.826,0.842,27.826,1.882
			c0,1.039-12.458,1.882-27.826,1.882C19.875,70.135,7.418,69.291,7.418,68.252z"/>
		
			<radialGradient id="SVGID_5_" cx="-244.9915" cy="-342.6587" r="4.9971" gradientTransform="matrix(6.3066 0 0 0.327 1580.3073 180.302)" gradientUnits="userSpaceOnUse">
			<stop  offset="0" style="stop-color:#000000"/>
			<stop  offset="1" style="stop-color:#000000"/>
		</radialGradient>
		<path class="st5" d="M8.123,68.252c0-1.013,12.142-1.834,27.121-1.834c14.979,0,27.121,0.82,27.121,1.834
			c0,1.012-12.142,1.834-27.121,1.834C20.265,70.086,8.123,69.265,8.123,68.252z"/>
		
			<radialGradient id="SVGID_6_" cx="-243.4256" cy="-360.0992" r="5.0182" gradientTransform="matrix(6.1069 0 0 0.3173 1521.8198 182.5119)" gradientUnits="userSpaceOnUse">
			<stop  offset="0" style="stop-color:#000000"/>
			<stop  offset="1" style="stop-color:#000000"/>
		</radialGradient>
		<path class="st6" d="M8.828,68.252c0-0.986,11.826-1.785,26.416-1.785c14.589,0,26.415,0.799,26.415,1.785
			c0,0.985-11.826,1.785-26.415,1.785C20.654,70.038,8.828,69.238,8.828,68.252z"/>
		
			<radialGradient id="SVGID_7_" cx="-241.7538" cy="-376.1873" r="5.0421" gradientTransform="matrix(5.9072 0 0 0.3075 1463.3323 183.93)" gradientUnits="userSpaceOnUse">
			<stop  offset="0" style="stop-color:#000000"/>
			<stop  offset="1" style="stop-color:#000000"/>
		</radialGradient>
		<ellipse class="st7" cx="35.244" cy="68.252" rx="25.71" ry="1.737"/>
		
			<radialGradient id="SVGID_8_" cx="-239.9651" cy="-395.8594" r="5.0667" gradientTransform="matrix(5.7075 0 0 0.2978 1404.8448 186.1393)" gradientUnits="userSpaceOnUse">
			<stop  offset="0" style="stop-color:#000000"/>
			<stop  offset="1" style="stop-color:#000000"/>
		</radialGradient>
		<ellipse class="st8" cx="35.244" cy="68.252" rx="25.005" ry="1.689"/>
		
			<radialGradient id="SVGID_9_" cx="-238.0467" cy="-416.8564" r="5.0919" gradientTransform="matrix(5.5078 0 0 0.2881 1346.3573 188.3487)" gradientUnits="userSpaceOnUse">
			<stop  offset="0" style="stop-color:#000000"/>
			<stop  offset="1" style="stop-color:#000000"/>
		</radialGradient>
		<path class="st9" d="M10.944,68.252c0-0.906,10.878-1.64,24.3-1.64c13.421,0,24.3,0.733,24.3,1.64c0,0.905-10.879,1.64-24.3,1.64
			C21.822,69.892,10.944,69.158,10.944,68.252z"/>
		
			<radialGradient id="SVGID_10_" cx="-235.9838" cy="-439.3144" r="5.12" gradientTransform="matrix(5.3081 0 0 0.2784 1287.8699 190.5575)" gradientUnits="userSpaceOnUse">
			<stop  offset="0" style="stop-color:#000000"/>
			<stop  offset="1" style="stop-color:#000000"/>
		</radialGradient>
		<ellipse class="st10" cx="35.244" cy="68.252" rx="23.595" ry="1.591"/>
		
			<radialGradient id="SVGID_11_" cx="-233.7597" cy="-463.3958" r="5.1504" gradientTransform="matrix(5.1084 0 0 0.2687 1229.3823 192.7669)" gradientUnits="userSpaceOnUse">
			<stop  offset="0" style="stop-color:#000000"/>
			<stop  offset="1" style="stop-color:#000000"/>
		</radialGradient>
		<ellipse class="st11" cx="35.244" cy="68.252" rx="22.89" ry="1.543"/>
		
			<radialGradient id="SVGID_12_" cx="-231.3547" cy="-489.2811" r="5.1829" gradientTransform="matrix(4.9087 0 0 0.259 1170.8948 194.9762)" gradientUnits="userSpaceOnUse">
			<stop  offset="0" style="stop-color:#000000"/>
			<stop  offset="1" style="stop-color:#000000"/>
		</radialGradient>
		<path class="st12" d="M13.06,68.252c0-0.826,9.931-1.495,22.184-1.495c12.253,0,22.185,0.669,22.185,1.495
			c0,0.825-9.932,1.495-22.185,1.495C22.991,69.747,13.06,69.077,13.06,68.252z"/>
		
			<radialGradient id="SVGID_13_" cx="-228.7457" cy="-517.1816" r="5.2178" gradientTransform="matrix(4.709 0 0 0.2493 1112.4075 197.1855)" gradientUnits="userSpaceOnUse">
			<stop  offset="0" style="stop-color:#000000"/>
			<stop  offset="1" style="stop-color:#000000"/>
		</radialGradient>
		<path class="st13" d="M13.765,68.252c0-0.799,9.615-1.446,21.478-1.446s21.48,0.647,21.48,1.446c0,0.798-9.616,1.446-21.48,1.446
			S13.765,69.051,13.765,68.252z"/>
		
			<radialGradient id="SVGID_14_" cx="-225.9055" cy="-547.3392" r="5.2556" gradientTransform="matrix(4.5093 0 0 0.2396 1053.9199 199.3949)" gradientUnits="userSpaceOnUse">
			<stop  offset="0" style="stop-color:#000000"/>
			<stop  offset="1" style="stop-color:#000000"/>
		</radialGradient>
		<path class="st14" d="M14.47,68.252c0-0.773,9.3-1.398,20.773-1.398c11.474,0,20.774,0.625,20.774,1.398
			c0,0.771-9.3,1.397-20.774,1.397C23.77,69.65,14.47,69.024,14.47,68.252z"/>
		
			<radialGradient id="SVGID_15_" cx="-222.8022" cy="-580.0405" r="5.2972" gradientTransform="matrix(4.3096 0 0 0.2299 995.4324 201.6037)" gradientUnits="userSpaceOnUse">
			<stop  offset="0" style="stop-color:#000000"/>
			<stop  offset="1" style="stop-color:#000000"/>
		</radialGradient>
		<path class="st15" d="M15.175,68.252c0-0.746,8.984-1.349,20.068-1.349c11.084,0,20.069,0.604,20.069,1.349
			c0,0.745-8.984,1.349-20.069,1.349C24.159,69.602,15.175,68.997,15.175,68.252z"/>
		
			<radialGradient id="SVGID_16_" cx="-219.3973" cy="-615.6285" r="5.3423" gradientTransform="matrix(4.1099 0 0 0.2202 936.9449 203.8135)" gradientUnits="userSpaceOnUse">
			<stop  offset="0" style="stop-color:#000000"/>
			<stop  offset="1" style="stop-color:#000000"/>
		</radialGradient>
		<path class="st16" d="M15.88,68.252c0-0.719,8.669-1.301,19.363-1.301s19.364,0.582,19.364,1.301c0,0.718-8.669,1.3-19.364,1.3
			S15.88,68.97,15.88,68.252z"/>
		
			<radialGradient id="SVGID_17_" cx="-215.6445" cy="-651.0433" r="5.3938" gradientTransform="matrix(3.9102 0 0 0.2104 878.4575 205.2317)" gradientUnits="userSpaceOnUse">
			<stop  offset="0" style="stop-color:#000000"/>
			<stop  offset="1" style="stop-color:#000000"/>
		</radialGradient>
		<path class="st17" d="M16.586,68.252c0-0.692,8.352-1.252,18.658-1.252c10.306,0,18.659,0.56,18.659,1.252
			c0,0.691-8.353,1.252-18.659,1.252C24.938,69.504,16.586,68.944,16.586,68.252z"/>
		
			<radialGradient id="SVGID_18_" cx="-211.488" cy="-693.517" r="5.4493" gradientTransform="matrix(3.7105 0 0 0.2007 819.97 207.441)" gradientUnits="userSpaceOnUse">
			<stop  offset="0" style="stop-color:#000000"/>
			<stop  offset="1" style="stop-color:#000000"/>
		</radialGradient>
		<path class="st18" d="M17.291,68.252c0-0.666,8.037-1.204,17.953-1.204s17.953,0.539,17.953,1.204
			c0,0.664-8.037,1.204-17.953,1.204S17.291,68.917,17.291,68.252z"/>
		
			<radialGradient id="SVGID_19_" cx="-206.8584" cy="-740.3052" r="5.5094" gradientTransform="matrix(3.5108 0 0 0.191 761.4825 209.6505)" gradientUnits="userSpaceOnUse">
			<stop  offset="0" style="stop-color:#000000"/>
			<stop  offset="1" style="stop-color:#000000"/>
		</radialGradient>
		<path class="st19" d="M17.996,68.252c0-0.639,7.721-1.155,17.248-1.155c9.526,0,17.248,0.517,17.248,1.155
			c0,0.638-7.722,1.155-17.248,1.155C25.717,69.407,17.996,68.89,17.996,68.252z"/>
		
			<radialGradient id="SVGID_20_" cx="-201.6705" cy="-792.0967" r="5.5776" gradientTransform="matrix(3.3111 0 0 0.1813 702.995 211.8593)" gradientUnits="userSpaceOnUse">
			<stop  offset="0" style="stop-color:#000000"/>
			<stop  offset="1" style="stop-color:#000000"/>
		</radialGradient>
		<path class="st20" d="M18.702,68.252c0-0.612,7.405-1.107,16.542-1.107c9.137,0,16.543,0.495,16.543,1.107
			c0,0.611-7.405,1.106-16.543,1.106C26.107,69.359,18.702,68.863,18.702,68.252z"/>
		
			<radialGradient id="SVGID_21_" cx="-195.8166" cy="-849.7463" r="5.6545" gradientTransform="matrix(3.1114 0 0 0.1716 644.5076 214.0686)" gradientUnits="userSpaceOnUse">
			<stop  offset="0" style="stop-color:#000000"/>
			<stop  offset="1" style="stop-color:#000000"/>
		</radialGradient>
		<path class="st21" d="M19.407,68.252c0-0.585,7.089-1.059,15.837-1.059c8.748,0,15.837,0.474,15.837,1.059
			c0,0.584-7.09,1.058-15.837,1.058C26.496,69.311,19.407,68.836,19.407,68.252z"/>
		
			<radialGradient id="SVGID_22_" cx="-189.1597" cy="-914.3055" r="5.7407" gradientTransform="matrix(2.9117 0 0 0.1619 586.0201 216.278)" gradientUnits="userSpaceOnUse">
			<stop  offset="0" style="stop-color:#000000"/>
			<stop  offset="1" style="stop-color:#000000"/>
		</radialGradient>
		<path class="st22" d="M20.112,68.252c0-0.559,6.774-1.01,15.132-1.01s15.132,0.452,15.132,1.01c0,0.558-6.774,1.009-15.132,1.009
			S20.112,68.81,20.112,68.252z"/>
		
			<radialGradient id="SVGID_23_" cx="-181.5221" cy="-987.0953" r="5.8395" gradientTransform="matrix(2.712 0 0 0.1522 527.5316 218.4878)" gradientUnits="userSpaceOnUse">
			<stop  offset="0" style="stop-color:#000000"/>
			<stop  offset="1" style="stop-color:#000000"/>
		</radialGradient>
		<path class="st23" d="M20.817,68.252c0-0.532,6.458-0.962,14.427-0.962c7.968,0,14.427,0.43,14.427,0.962
			c0,0.531-6.458,0.961-14.427,0.961C27.275,69.213,20.817,68.783,20.817,68.252z"/>
		
			<radialGradient id="SVGID_24_" cx="-172.6698" cy="-1069.7841" r="5.9535" gradientTransform="matrix(2.5123 0 0 0.1425 469.0422 220.6961)" gradientUnits="userSpaceOnUse">
			<stop  offset="0" style="stop-color:#000000"/>
			<stop  offset="1" style="stop-color:#000000"/>
		</radialGradient>
		<path class="st24" d="M21.522,68.252c0-0.505,6.142-0.914,13.721-0.914s13.722,0.409,13.722,0.914
			c0,0.504-6.143,0.913-13.722,0.913S21.522,68.756,21.522,68.252z"/>
		
			<radialGradient id="SVGID_25_" cx="-162.2887" cy="-1164.5601" r="6.0843" gradientTransform="matrix(2.3126 0 0 0.1328 410.5527 222.9055)" gradientUnits="userSpaceOnUse">
			<stop  offset="0" style="stop-color:#000000"/>
			<stop  offset="1" style="stop-color:#000000"/>
		</radialGradient>
		<path class="st25" d="M22.228,68.252c0-0.478,5.827-0.865,13.016-0.865c7.189,0,13.017,0.387,13.017,0.865
			c0,0.477-5.827,0.864-13.017,0.864C28.054,69.116,22.228,68.729,22.228,68.252z"/>
		
			<radialGradient id="SVGID_26_" cx="-149.9454" cy="-1274.2682" r="6.2402" gradientTransform="matrix(2.1129 0 0 0.1231 352.0633 225.1143)" gradientUnits="userSpaceOnUse">
			<stop  offset="0" style="stop-color:#000000"/>
			<stop  offset="1" style="stop-color:#000000"/>
		</radialGradient>
		<path class="st26" d="M22.933,68.252c0-0.451,5.511-0.816,12.311-0.816c6.8,0,12.311,0.365,12.311,0.816
			c0,0.45-5.511,0.815-12.311,0.815C28.443,69.068,22.933,68.703,22.933,68.252z"/>
		
			<radialGradient id="SVGID_27_" cx="-135.0251" cy="-1397.0083" r="6.4303" gradientTransform="matrix(1.9132 0 0 0.1133 293.5738 226.5329)" gradientUnits="userSpaceOnUse">
			<stop  offset="0" style="stop-color:#000000"/>
			<stop  offset="1" style="stop-color:#000000"/>
		</radialGradient>
		<path class="st27" d="M23.638,68.252c0-0.425,5.195-0.768,11.605-0.768c6.411,0,11.606,0.343,11.606,0.768
			c0,0.424-5.195,0.767-11.606,0.767C28.833,69.02,23.638,68.676,23.638,68.252z"/>
		
			<radialGradient id="SVGID_28_" cx="-116.6271" cy="-1549.1417" r="6.6572" gradientTransform="matrix(1.7135 0 0 0.1036 235.0844 228.7428)" gradientUnits="userSpaceOnUse">
			<stop  offset="0" style="stop-color:#000000"/>
			<stop  offset="1" style="stop-color:#000000"/>
		</radialGradient>
		<path class="st28" d="M24.343,68.252c0-0.398,4.879-0.72,10.9-0.72s10.901,0.322,10.901,0.72c0,0.397-4.88,0.718-10.901,0.718
			S24.343,68.649,24.343,68.252z"/>
		
			<radialGradient id="SVGID_29_" cx="-93.3752" cy="-1732.6886" r="6.9415" gradientTransform="matrix(1.5138 0 0 0.0939 176.595 230.9511)" gradientUnits="userSpaceOnUse">
			<stop  offset="0" style="stop-color:#000000"/>
			<stop  offset="1" style="stop-color:#000000"/>
		</radialGradient>
		<path class="st29" d="M25.048,68.252c0-0.371,4.563-0.671,10.195-0.671c5.631,0,10.195,0.3,10.195,0.671
			c0,0.37-4.564,0.67-10.195,0.67C29.612,68.922,25.048,68.622,25.048,68.252z"/>
		
			<radialGradient id="SVGID_30_" cx="-63.0558" cy="-1958.5339" r="7.3055" gradientTransform="matrix(1.3141 0 0 0.0842 118.1055 233.1604)" gradientUnits="userSpaceOnUse">
			<stop  offset="0" style="stop-color:#000000"/>
			<stop  offset="1" style="stop-color:#000000"/>
		</radialGradient>
		<path class="st30" d="M25.754,68.252c0-0.344,4.248-0.623,9.49-0.623c5.242,0,9.49,0.278,9.49,0.623
			c0,0.343-4.248,0.622-9.49,0.622C30.001,68.874,25.754,68.596,25.754,68.252z"/>
		
			<radialGradient id="SVGID_31_" cx="-21.8705" cy="-2243.1897" r="7.7907" gradientTransform="matrix(1.1144 0 0 0.0745 59.6164 235.3693)" gradientUnits="userSpaceOnUse">
			<stop  offset="0" style="stop-color:#000000"/>
			<stop  offset="1" style="stop-color:#000000"/>
		</radialGradient>
		<path class="st31" d="M26.459,68.252c0-0.318,3.932-0.574,8.785-0.574c4.853,0,8.785,0.256,8.785,0.574
			c0,0.317-3.933,0.573-8.785,0.573C30.391,68.825,26.459,68.569,26.459,68.252z"/>
		
			<radialGradient id="SVGID_32_" cx="37.2983" cy="-2613.0723" r="8.4765" gradientTransform="matrix(0.9147 0 0 0.0648 1.1269 237.5787)" gradientUnits="userSpaceOnUse">
			<stop  offset="0" style="stop-color:#000000"/>
			<stop  offset="1" style="stop-color:#000000"/>
		</radialGradient>
		<path class="st32" d="M27.164,68.252c0-0.291,3.616-0.526,8.079-0.526c4.463,0,8.08,0.235,8.08,0.526
			c0,0.29-3.617,0.524-8.08,0.524C30.78,68.777,27.164,68.542,27.164,68.252z"/>
		
			<radialGradient id="SVGID_33_" cx="129.5192" cy="-3113.1826" r="9.5199" gradientTransform="matrix(0.715 0 0 0.0551 -57.3625 239.7881)" gradientUnits="userSpaceOnUse">
			<stop  offset="0" style="stop-color:#000000"/>
			<stop  offset="1" style="stop-color:#000000"/>
		</radialGradient>
		<path class="st33" d="M27.869,68.252c0-0.264,3.301-0.478,7.374-0.478c4.074,0,7.375,0.213,7.375,0.478
			c0,0.263-3.301,0.476-7.375,0.476C31.17,68.729,27.869,68.516,27.869,68.252z"/>
		
			<radialGradient id="SVGID_34_" cx="293.2186" cy="-3826.988" r="11.3262" gradientTransform="matrix(0.5153 0 0 0.0454 -115.8516 241.9969)" gradientUnits="userSpaceOnUse">
			<stop  offset="0" style="stop-color:#000000"/>
			<stop  offset="1" style="stop-color:#000000"/>
		</radialGradient>
		<path class="st34" d="M28.575,68.252c0-0.237,2.985-0.429,6.668-0.429c3.685,0,6.67,0.192,6.67,0.429
			c0,0.236-2.985,0.428-6.67,0.428C31.56,68.68,28.575,68.489,28.575,68.252z"/>
		
			<radialGradient id="SVGID_35_" cx="664.082" cy="-4928.7139" r="15.3327" gradientTransform="matrix(0.3156 0 0 0.0357 -174.3406 244.2067)" gradientUnits="userSpaceOnUse">
			<stop  offset="0" style="stop-color:#000000"/>
			<stop  offset="1" style="stop-color:#000000"/>
		</radialGradient>
		<path class="st35" d="M29.28,68.252c0-0.211,2.669-0.38,5.963-0.38c3.295,0,5.964,0.17,5.964,0.38
			c0,0.209-2.669,0.379-5.964,0.379C31.949,68.631,29.28,68.462,29.28,68.252z"/>
		
			<radialGradient id="SVGID_36_" cx="2312.9785" cy="-6852.4375" r="33.3251" gradientTransform="matrix(0.1159 0 0 0.026 -232.8305 246.4151)" gradientUnits="userSpaceOnUse">
			<stop  offset="0" style="stop-color:#000000"/>
			<stop  offset="1" style="stop-color:#000000"/>
		</radialGradient>
		<path class="st36" d="M29.985,68.252c0-0.184,2.354-0.332,5.258-0.332c2.905,0,5.259,0.148,5.259,0.332
			c0,0.183-2.354,0.331-5.259,0.331C32.338,68.583,29.985,68.436,29.985,68.252z"/>
		
			<radialGradient id="SVGID_37_" cx="-3896.9387" cy="-11085.3125" r="40.3583" gradientTransform="matrix(-0.0838 0 0 0.0162 -291.3195 247.8337)" gradientUnits="userSpaceOnUse">
			<stop  offset="0" style="stop-color:#000000"/>
			<stop  offset="1" style="stop-color:#000000"/>
		</radialGradient>
		<path class="st37" d="M30.691,68.252c0-0.157,2.038-0.284,4.553-0.284c2.516,0,4.554,0.127,4.554,0.284
			c0,0.156-2.038,0.282-4.554,0.282C32.728,68.535,30.691,68.409,30.691,68.252z"/>
		
			<radialGradient id="SVGID_38_" cx="-1358.2101" cy="-27967.9453" r="27.2459" gradientTransform="matrix(-0.2835 0 0 0.0065 -349.8089 250.043)" gradientUnits="userSpaceOnUse">
			<stop  offset="0" style="stop-color:#000000"/>
			<stop  offset="1" style="stop-color:#000000"/>
		</radialGradient>
		<path class="st38" d="M31.396,68.252c0-0.13,1.722-0.235,3.848-0.235c2.127,0,3.849,0.105,3.849,0.235
			c0,0.129-1.722,0.233-3.849,0.233C33.117,68.486,31.396,68.382,31.396,68.252z"/>
		
			<radialGradient id="SVGID_39_" cx="-917.9265" cy="57500.1367" r="41.3681" gradientTransform="matrix(-0.4832 0 0 -0.0032 -408.2984 252.2519)" gradientUnits="userSpaceOnUse">
			<stop  offset="0" style="stop-color:#000000"/>
			<stop  offset="1" style="stop-color:#000000"/>
		</radialGradient>
		<path class="st39" d="M32.101,68.252c0-0.104,1.406-0.187,3.143-0.187c1.737,0,3.144,0.084,3.144,0.187
			c0,0.102-1.407,0.185-3.144,0.185C33.507,68.438,32.101,68.355,32.101,68.252z"/>
		
			<radialGradient id="SVGID_40_" cx="-735.1464" cy="14434.8115" r="7.9459" gradientTransform="matrix(-0.6829 0 0 -0.0129 -466.7878 254.4607)" gradientUnits="userSpaceOnUse">
			<stop  offset="0" style="stop-color:#000000"/>
			<stop  offset="1" style="stop-color:#000000"/>
		</radialGradient>
		<path class="st40" d="M32.806,68.252c0-0.077,1.091-0.138,2.438-0.138c1.347,0,2.439,0.061,2.439,0.138
			c0,0.076-1.091,0.137-2.439,0.137C33.896,68.389,32.806,68.329,32.806,68.252z"/>
		
			<radialGradient id="SVGID_41_" cx="-635.0792" cy="8337.1064" r="3.1071" gradientTransform="matrix(-0.8826 0 0 -0.0226 -525.2772 256.67)" gradientUnits="userSpaceOnUse">
			<stop  offset="0" style="stop-color:#000000"/>
			<stop  offset="1" style="stop-color:#000000"/>
		</radialGradient>
		<path class="st41" d="M33.511,68.252c0-0.05,0.774-0.09,1.732-0.09c0.958,0,1.733,0.04,1.733,0.09
			c0,0.049-0.775,0.088-1.733,0.088C34.286,68.34,33.511,68.302,33.511,68.252z"/>
		
			<radialGradient id="SVGID_42_" cx="-571.9397" cy="5901.7954" r="1.112" gradientTransform="matrix(-1.0823 0 0 -0.0323 -583.7667 258.8794)" gradientUnits="userSpaceOnUse">
			<stop  offset="0" style="stop-color:#000000"/>
			<stop  offset="1" style="stop-color:#000000"/>
		</radialGradient>
		<path class="st42" d="M34.216,68.252c0-0.023,0.459-0.042,1.027-0.042c0.568,0,1.028,0.018,1.028,0.042
			c0,0.022-0.459,0.039-1.028,0.039C34.675,68.292,34.216,68.275,34.216,68.252z"/>
	</g>
	<linearGradient id="SVGID_43_" gradientUnits="userSpaceOnUse" x1="0" y1="33.1125" x2="66.7227" y2="33.1125">
		<stop  offset="0" style="stop-color:#009444"/>
		<stop  offset="1" style="stop-color:#004726"/>
	</linearGradient>
	<path class="st43" d="M33.361,0C14.936,0,0,14.936,0,33.361v32.726c10.306-6.852,21.958-3.01,29.95-0.757
		c4.561,1.286,9.413,1.185,13.912-0.305c13.279-4.398,22.861-16.91,22.861-31.665C66.723,14.936,51.787,0,33.361,0z"/>
	<g class="st44">
		<path class="st45" d="M35.998,63.675c-15.796,0-28.646-12.851-28.646-28.645c0-15.795,12.85-28.645,28.646-28.645
			c15.794,0,28.644,12.85,28.644,28.645C64.642,50.825,51.792,63.675,35.998,63.675z"/>
		<path class="st46" d="M35.958,63.641c-15.787,0-28.629-12.843-28.629-28.629c0-15.786,12.843-28.629,28.629-28.629
			c15.785,0,28.628,12.843,28.628,28.629C64.586,50.798,51.744,63.641,35.958,63.641z"/>
		<path class="st47" d="M35.92,63.606c-15.778,0-28.614-12.836-28.614-28.612c0-15.777,12.836-28.612,28.614-28.612
			c15.776,0,28.611,12.835,28.611,28.612C64.531,50.771,51.696,63.606,35.92,63.606z"/>
		<path class="st48" d="M35.881,63.572c-15.769,0-28.597-12.829-28.597-28.596c0-15.768,12.828-28.596,28.597-28.596
			c15.767,0,28.595,12.828,28.595,28.596C64.476,50.744,51.648,63.572,35.881,63.572z"/>
		<path class="st49" d="M35.842,63.538c-15.76,0-28.581-12.821-28.581-28.58c0-15.759,12.821-28.58,28.581-28.58
			c15.758,0,28.579,12.821,28.579,28.58C64.421,50.717,51.6,63.538,35.842,63.538z"/>
		<path class="st50" d="M35.803,63.503c-15.75,0-28.564-12.814-28.564-28.563c0-15.75,12.813-28.563,28.564-28.563
			c15.75,0,28.563,12.813,28.563,28.563C64.366,50.689,51.552,63.503,35.803,63.503z"/>
		<path class="st51" d="M35.764,63.469c-15.742,0-28.548-12.807-28.548-28.547c0-15.741,12.807-28.547,28.548-28.547
			c15.74,0,28.546,12.806,28.546,28.547C64.311,50.663,51.504,63.469,35.764,63.469z"/>
		<path class="st52" d="M35.725,63.435c-15.733,0-28.532-12.8-28.532-28.531c0-15.732,12.799-28.531,28.532-28.531
			c15.731,0,28.53,12.799,28.53,28.531C64.255,50.635,51.457,63.435,35.725,63.435z"/>
		<path class="st53" d="M35.686,63.4c-15.724,0-28.515-12.792-28.515-28.514c0-15.723,12.792-28.515,28.515-28.515
			c15.722,0,28.514,12.792,28.514,28.515C64.2,50.608,51.408,63.4,35.686,63.4z"/>
		<path class="st54" d="M35.647,63.366c-15.715,0-28.499-12.785-28.499-28.498c0-15.714,12.784-28.498,28.499-28.498
			c15.713,0,28.497,12.784,28.497,28.498C64.145,50.582,51.36,63.366,35.647,63.366z"/>
		<path class="st55" d="M35.608,63.332c-15.705,0-28.483-12.777-28.483-28.481c0-15.705,12.777-28.482,28.483-28.482
			c15.704,0,28.481,12.777,28.481,28.482C64.089,50.554,51.313,63.332,35.608,63.332z"/>
		<path class="st56" d="M35.569,63.297c-15.697,0-28.466-12.77-28.466-28.465c0-15.696,12.77-28.465,28.466-28.465
			c15.695,0,28.465,12.769,28.465,28.465C64.034,50.527,51.265,63.297,35.569,63.297z"/>
		<path class="st57" d="M35.531,63.263c-15.688,0-28.45-12.763-28.45-28.449c0-15.688,12.762-28.45,28.45-28.45
			c15.686,0,28.448,12.762,28.448,28.45C63.979,50.5,51.217,63.263,35.531,63.263z"/>
		<path class="st58" d="M35.492,63.229c-15.679,0-28.434-12.755-28.434-28.432c0-15.678,12.755-28.433,28.434-28.433
			c15.677,0,28.432,12.755,28.432,28.433C63.924,50.473,51.169,63.229,35.492,63.229z"/>
		<path class="st59" d="M35.453,63.194c-15.67,0-28.418-12.748-28.418-28.416c0-15.67,12.748-28.417,28.418-28.417
			c15.668,0,28.416,12.748,28.416,28.417C63.869,50.446,51.121,63.194,35.453,63.194z"/>
		<path class="st60" d="M35.414,63.16c-15.661,0-28.401-12.741-28.401-28.4c0-15.66,12.74-28.4,28.401-28.4
			c15.66,0,28.4,12.74,28.4,28.4C63.813,50.419,51.073,63.16,35.414,63.16z"/>
		<path class="st61" d="M35.375,63.125c-15.652,0-28.385-12.733-28.385-28.383c0-15.651,12.733-28.384,28.385-28.384
			c15.65,0,28.383,12.733,28.383,28.384C63.758,50.392,51.025,63.125,35.375,63.125z"/>
		<path class="st62" d="M35.336,63.091c-15.643,0-28.368-12.726-28.368-28.367c0-15.642,12.726-28.368,28.368-28.368
			c15.642,0,28.367,12.726,28.367,28.368C63.703,50.365,50.978,63.091,35.336,63.091z"/>
		<path class="st63" d="M35.297,63.057c-15.633,0-28.352-12.719-28.352-28.351c0-15.633,12.719-28.352,28.352-28.352
			c15.633,0,28.351,12.718,28.351,28.352C63.648,50.338,50.93,63.057,35.297,63.057z"/>
		<path class="st64" d="M35.258,63.022c-15.625,0-28.336-12.711-28.336-28.334c0-15.624,12.711-28.335,28.336-28.335
			c15.624,0,28.334,12.711,28.334,28.335C63.593,50.311,50.882,63.022,35.258,63.022z"/>
		<path class="st65" d="M35.219,62.988C19.604,62.988,6.9,50.284,6.9,34.67c0-15.615,12.704-28.319,28.319-28.319
			c15.615,0,28.318,12.704,28.318,28.319C63.538,50.284,50.834,62.988,35.219,62.988z"/>
		<path class="st66" d="M35.18,62.954c-15.606,0-28.303-12.697-28.303-28.302c0-15.606,12.696-28.303,28.303-28.303
			c15.606,0,28.302,12.696,28.302,28.303C63.482,50.257,50.786,62.954,35.18,62.954z"/>
		<path class="st67" d="M35.142,62.919c-15.598,0-28.287-12.689-28.287-28.286c0-15.597,12.69-28.286,28.287-28.286
			c15.596,0,28.285,12.689,28.285,28.286C63.427,50.23,50.738,62.919,35.142,62.919z"/>
		<path class="st68" d="M35.103,62.885c-15.589,0-28.271-12.682-28.271-28.27c0-15.588,12.682-28.27,28.271-28.27
			c15.587,0,28.269,12.682,28.269,28.27C63.372,50.203,50.69,62.885,35.103,62.885z"/>
		<path class="st69" d="M35.063,62.851c-15.58,0-28.254-12.675-28.254-28.253c0-15.579,12.674-28.254,28.254-28.254
			c15.579,0,28.253,12.675,28.253,28.254C63.316,50.176,50.642,62.851,35.063,62.851z"/>
		<path class="st70" d="M35.024,62.816c-15.57,0-28.237-12.667-28.237-28.237c0-15.57,12.667-28.237,28.237-28.237
			c15.57,0,28.237,12.667,28.237,28.237C63.261,50.149,50.594,62.816,35.024,62.816z"/>
		<path class="st71" d="M34.986,62.782c-15.562,0-28.222-12.661-28.222-28.221C6.764,19,19.424,6.34,34.986,6.34
			c15.56,0,28.22,12.66,28.22,28.221C63.206,50.121,50.546,62.782,34.986,62.782z"/>
		<path class="st72" d="M34.947,62.748c-15.552,0-28.205-12.653-28.205-28.204c0-15.552,12.653-28.205,28.205-28.205
			c15.552,0,28.204,12.652,28.204,28.205C63.151,50.095,50.499,62.748,34.947,62.748z"/>
		<path class="st73" d="M34.908,62.713c-15.543,0-28.188-12.646-28.188-28.188c0-15.543,12.645-28.188,28.188-28.188
			c15.543,0,28.188,12.646,28.188,28.188C63.096,50.068,50.451,62.713,34.908,62.713z"/>
		<path class="st74" d="M34.869,62.679c-15.535,0-28.172-12.639-28.172-28.172c0-15.534,12.638-28.172,28.172-28.172
			c15.534,0,28.171,12.638,28.171,28.172C63.041,50.041,50.403,62.679,34.869,62.679z"/>
		<path class="st75" d="M34.83,62.645c-15.525,0-28.156-12.631-28.156-28.155c0-15.525,12.631-28.156,28.156-28.156
			c15.525,0,28.155,12.631,28.155,28.156C62.985,50.014,50.355,62.645,34.83,62.645z"/>
		<path class="st76" d="M34.791,62.61c-15.516,0-28.14-12.623-28.14-28.139c0-15.516,12.624-28.139,28.14-28.139
			c15.516,0,28.139,12.623,28.139,28.139C62.93,49.987,50.307,62.61,34.791,62.61z"/>
		
			<ellipse transform="matrix(0.7071 -0.7071 0.7071 0.7071 -14.1834 34.6644)" class="st77" cx="34.752" cy="34.453" rx="28.123" ry="28.123"/>
		<path class="st78" d="M34.713,62.542c-15.499,0-28.107-12.609-28.107-28.106c0-15.498,12.608-28.107,28.107-28.107
			c15.498,0,28.106,12.609,28.106,28.107C62.82,49.933,50.211,62.542,34.713,62.542z"/>
		<path class="st79" d="M34.674,62.507c-15.489,0-28.091-12.602-28.091-28.09c0-15.489,12.602-28.09,28.091-28.09
			c15.489,0,28.09,12.601,28.09,28.09C62.765,49.906,50.164,62.507,34.674,62.507z"/>
		<circle class="st80" cx="34.635" cy="34.399" r="28.074"/>
		<path class="st81" d="M34.597,62.438c-15.472,0-28.058-12.587-28.058-28.057c0-15.472,12.586-28.058,28.058-28.058
			c15.471,0,28.057,12.586,28.057,28.058C62.654,49.852,50.067,62.438,34.597,62.438z"/>
		<path class="st82" d="M34.558,62.404c-15.462,0-28.041-12.58-28.041-28.041c0-15.462,12.579-28.042,28.041-28.042
			c15.462,0,28.041,12.58,28.041,28.042C62.599,49.824,50.02,62.404,34.558,62.404z"/>
		<path class="st83" d="M34.519,62.37c-15.453,0-28.025-12.573-28.025-28.025c0-15.454,12.572-28.025,28.025-28.025
			s28.025,12.572,28.025,28.025C62.543,49.797,49.972,62.37,34.519,62.37z"/>
		<path class="st84" d="M34.48,62.335c-15.444,0-28.009-12.565-28.009-28.008c0-15.444,12.565-28.009,28.009-28.009
			c15.444,0,28.008,12.565,28.008,28.009C62.488,49.771,49.924,62.335,34.48,62.335z"/>
		<path class="st85" d="M34.441,62.301c-15.435,0-27.993-12.558-27.993-27.992c0-15.435,12.557-27.993,27.993-27.993
			c15.435,0,27.992,12.558,27.992,27.993C62.433,49.743,49.876,62.301,34.441,62.301z"/>
		<path class="st86" d="M34.402,62.267c-15.426,0-27.976-12.551-27.976-27.976c0-15.427,12.55-27.977,27.976-27.977
			c15.426,0,27.976,12.55,27.976,27.977C62.378,49.716,49.828,62.267,34.402,62.267z"/>
		<path class="st87" d="M34.363,62.232c-15.417,0-27.96-12.543-27.96-27.959c0-15.417,12.543-27.96,27.96-27.96
			c15.417,0,27.96,12.543,27.96,27.96C62.323,49.689,49.78,62.232,34.363,62.232z"/>
		<path class="st88" d="M34.324,62.198c-15.408,0-27.944-12.536-27.944-27.943c0-15.409,12.536-27.944,27.944-27.944
			s27.943,12.535,27.943,27.944C62.268,49.662,49.732,62.198,34.324,62.198z"/>
		<path class="st89" d="M34.285,62.164c-15.399,0-27.927-12.529-27.927-27.927c0-15.399,12.528-27.928,27.927-27.928
			s27.927,12.528,27.927,27.928C62.212,49.635,49.685,62.164,34.285,62.164z"/>
		<path class="st90" d="M34.246,62.129c-15.39,0-27.911-12.521-27.911-27.911c0-15.391,12.521-27.911,27.911-27.911
			c15.391,0,27.911,12.521,27.911,27.911C62.157,49.608,49.637,62.129,34.246,62.129z"/>
		<path class="st91" d="M34.208,62.095c-15.381,0-27.895-12.514-27.895-27.895c0-15.381,12.514-27.895,27.895-27.895
			c15.381,0,27.895,12.514,27.895,27.895C62.102,49.581,49.589,62.095,34.208,62.095z"/>
		<path class="st92" d="M34.168,62.061c-15.372,0-27.878-12.506-27.878-27.878c0-15.373,12.506-27.878,27.878-27.878
			c15.373,0,27.878,12.506,27.878,27.878C62.047,49.554,49.541,62.061,34.168,62.061z"/>
		<path class="st93" d="M34.129,62.026c-15.363,0-27.862-12.5-27.862-27.862c0-15.363,12.499-27.862,27.862-27.862
			c15.364,0,27.862,12.499,27.862,27.862C61.992,49.527,49.493,62.026,34.129,62.026z"/>
		<path class="st94" d="M34.09,61.992c-15.354,0-27.845-12.492-27.845-27.846C6.245,18.792,18.736,6.3,34.09,6.3
			c15.355,0,27.846,12.492,27.846,27.846C61.937,49.5,49.445,61.992,34.09,61.992z"/>
		<path class="st95" d="M34.052,61.958c-15.345,0-27.83-12.484-27.83-27.829c0-15.345,12.484-27.83,27.83-27.83
			s27.829,12.484,27.829,27.83C61.881,49.473,49.397,61.958,34.052,61.958z"/>
		<path class="st96" d="M34.013,61.923C18.677,61.923,6.2,49.446,6.2,34.11c0-15.336,12.477-27.813,27.813-27.813
			c15.336,0,27.813,12.477,27.813,27.813C61.826,49.446,49.349,61.923,34.013,61.923z"/>
		<path class="st97" d="M33.974,61.889c-15.327,0-27.796-12.47-27.796-27.797c0-15.328,12.47-27.797,27.796-27.797
			c15.328,0,27.797,12.469,27.797,27.797C61.771,49.419,49.301,61.889,33.974,61.889z"/>
		<path class="st98" d="M33.935,61.854c-15.318,0-27.78-12.462-27.78-27.78c0-15.318,12.462-27.781,27.78-27.781
			c15.318,0,27.78,12.462,27.78,27.781C61.715,49.392,49.253,61.854,33.935,61.854z"/>
		
			<ellipse transform="matrix(0.1602 -0.9871 0.9871 0.1602 -5.1499 62.0593)" class="st99" cx="33.896" cy="34.056" rx="27.764" ry="27.764"/>
		<path class="st100" d="M33.857,61.786c-15.3,0-27.748-12.448-27.748-27.748c0-15.3,12.448-27.748,27.748-27.748
			c15.301,0,27.748,12.448,27.748,27.748C61.605,49.338,49.158,61.786,33.857,61.786z"/>
		<path class="st101" d="M33.818,61.751c-15.291,0-27.732-12.441-27.732-27.731c0-15.292,12.44-27.732,27.732-27.732
			c15.292,0,27.731,12.441,27.731,27.732C61.55,49.311,49.11,61.751,33.818,61.751z"/>
		<path class="st102" d="M33.779,61.717c-15.282,0-27.715-12.434-27.715-27.715c0-15.282,12.433-27.715,27.715-27.715
			c15.283,0,27.715,12.433,27.715,27.715C61.495,49.284,49.062,61.717,33.779,61.717z"/>
		<path class="st103" d="M33.74,61.683c-15.273,0-27.699-12.426-27.699-27.699c0-15.273,12.426-27.699,27.699-27.699
			c15.274,0,27.699,12.426,27.699,27.699C61.439,49.257,49.014,61.683,33.74,61.683z"/>
		<path class="st104" d="M33.701,61.648c-15.264,0-27.682-12.419-27.682-27.683c0-15.264,12.418-27.683,27.682-27.683
			c15.265,0,27.683,12.418,27.683,27.683C61.384,49.229,48.966,61.648,33.701,61.648z"/>
		<path class="st105" d="M33.663,61.614c-15.255,0-27.666-12.412-27.666-27.666c0-15.256,12.411-27.667,27.666-27.667
			c15.256,0,27.667,12.411,27.667,27.667C61.329,49.203,48.918,61.614,33.663,61.614z"/>
		<path class="st106" d="M33.624,61.58c-15.246,0-27.649-12.404-27.649-27.65c0-15.247,12.403-27.65,27.649-27.65
			c15.247,0,27.65,12.403,27.65,27.65C61.274,49.176,48.871,61.58,33.624,61.58z"/>
		<path class="st107" d="M33.584,61.545c-15.237,0-27.633-12.397-27.633-27.633c0-15.238,12.396-27.634,27.633-27.634
			c15.238,0,27.634,12.396,27.634,27.634C61.219,49.148,48.823,61.545,33.584,61.545z"/>
		<path class="st108" d="M33.546,61.511c-15.228,0-27.617-12.39-27.617-27.617c0-15.229,12.389-27.618,27.617-27.618
			c15.229,0,27.618,12.389,27.618,27.618C61.164,49.121,48.775,61.511,33.546,61.511z"/>
		<path class="st109" d="M33.507,61.477c-15.219,0-27.601-12.382-27.601-27.601c0-15.22,12.382-27.601,27.601-27.601
			c15.22,0,27.601,12.382,27.601,27.601C61.108,49.095,48.727,61.477,33.507,61.477z"/>
		<path class="st110" d="M33.468,61.442c-15.21,0-27.584-12.375-27.584-27.584c0-15.211,12.374-27.585,27.584-27.585
			c15.211,0,27.585,12.375,27.585,27.585C61.053,49.067,48.679,61.442,33.468,61.442z"/>
		<path class="st111" d="M33.429,61.408c-15.201,0-27.568-12.368-27.568-27.568c0-15.202,12.367-27.569,27.568-27.569
			c15.202,0,27.568,12.367,27.568,27.569C60.998,49.041,48.631,61.408,33.429,61.408z"/>
		<path class="st112" d="M33.39,61.374c-15.192,0-27.552-12.36-27.552-27.552c0-15.193,12.36-27.553,27.552-27.553
			c15.193,0,27.552,12.36,27.552,27.553C60.942,49.013,48.583,61.374,33.39,61.374z"/>
		<path class="st113" d="M33.351,61.339c-15.183,0-27.535-12.353-27.535-27.536c0-15.184,12.353-27.536,27.535-27.536
			c15.184,0,27.536,12.353,27.536,27.536C60.887,48.986,48.535,61.339,33.351,61.339z"/>
		<path class="st114" d="M33.312,61.305c-15.174,0-27.519-12.346-27.519-27.52c0-15.175,12.345-27.52,27.519-27.52
			c15.175,0,27.52,12.345,27.52,27.52C60.832,48.959,48.487,61.305,33.312,61.305z"/>
		<path class="st115" d="M33.273,61.271c-15.165,0-27.503-12.338-27.503-27.503c0-15.166,12.338-27.503,27.503-27.503
			c15.166,0,27.503,12.338,27.503,27.503C60.777,48.932,48.439,61.271,33.273,61.271z"/>
		<path d="M33.234,61.236c-15.156,0-27.486-12.331-27.486-27.487c0-15.157,12.33-27.487,27.486-27.487
			c15.157,0,27.487,12.33,27.487,27.487C60.722,48.905,48.392,61.236,33.234,61.236z"/>
	</g>
	<linearGradient id="SVGID_44_" gradientUnits="userSpaceOnUse" x1="13.9667" y1="14.4809" x2="52.8209" y2="53.3351">
		<stop  offset="0" style="stop-color:#C3C4C3"/>
		<stop  offset="0.2166" style="stop-color:#DADADA"/>
		<stop  offset="0.4838" style="stop-color:#EEEFEE"/>
		<stop  offset="0.7471" style="stop-color:#FBFBFB"/>
		<stop  offset="1" style="stop-color:#FFFFFF"/>
	</linearGradient>
	<path class="st116" d="M33.234,61.236c-15.156,0-27.486-12.331-27.486-27.487c0-15.157,12.33-27.487,27.486-27.487
		c15.157,0,27.487,12.33,27.487,27.487C60.722,48.905,48.392,61.236,33.234,61.236z"/>
	<linearGradient id="SVGID_45_" gradientUnits="userSpaceOnUse" x1="18.502" y1="33.0304" x2="47.9854" y2="33.0304">
		<stop  offset="0" style="stop-color:#004726"/>
		<stop  offset="1" style="stop-color:#009444"/>
	</linearGradient>
	<path class="st117" d="M40.298,35.936c-0.363-0.196-2.148-1.158-2.48-1.297c-0.333-0.132-0.58-0.205-0.839,0.155
		c-0.258,0.36-0.999,1.168-1.223,1.406c-0.225,0.238-0.44,0.261-0.804,0.062c-0.362-0.2-1.538-0.633-2.902-1.944
		c-1.061-1.019-1.758-2.258-1.959-2.636c-0.203-0.377,0-0.571,0.191-0.748c0.171-0.161,0.385-0.418,0.579-0.627
		c0.191-0.207,0.259-0.36,0.391-0.601c0.133-0.241,0.079-0.459-0.007-0.649c-0.084-0.188-0.755-2.034-1.035-2.785
		c-0.28-0.752-0.594-0.64-0.809-0.646c-0.215-0.008-0.461-0.046-0.705-0.057c-0.25-0.009-0.652,0.069-1.003,0.424
		c-0.352,0.357-1.342,1.216-1.41,3.032c-0.067,1.819,1.191,3.625,1.365,3.879c0.176,0.252,2.402,4.193,6.102,5.815
		c3.701,1.619,3.722,1.125,4.4,1.089c0.681-0.036,2.22-0.814,2.561-1.663c0.338-0.852,0.365-1.591,0.279-1.747
		C40.903,36.235,40.66,36.135,40.298,35.936L40.298,35.936z M33.51,44.696c-2.445,0-4.725-0.733-6.628-1.99l-4.629,1.479
		l1.504-4.474c-1.442-1.985-2.294-4.427-2.294-7.064c0-6.644,5.405-12.049,12.047-12.049c6.645,0,12.049,5.405,12.049,12.049
		C45.56,39.29,40.155,44.696,33.51,44.696L33.51,44.696z M33.51,18.175c-7.991,0-14.473,6.479-14.473,14.472
		c0,2.736,0.76,5.293,2.078,7.475l-2.613,7.764l8.013-2.564c2.075,1.146,4.458,1.799,6.995,1.799
		c7.994,0,14.475-6.478,14.475-14.473C47.985,24.654,41.504,18.175,33.51,18.175L33.51,18.175z"/>
</g>
</svg>